<svg xmlns="http://www.w3.org/2000/svg" width="120" height="120" viewBox="0 0 120 120">
    <defs>
        <style>
            .cls-2{fill:#0b4269}
        </style>
    </defs>
    <g id="Grupo_490" transform="translate(-568 -8)">
        <path id="Rectángulo_8" fill="none" d="M0 0H120V120H0z" transform="translate(568 8)"/>
        <g id="noun_falling_2043954" transform="translate(592.323 26.71)">
            <path id="Trazado_473" d="M92.681 94.7l3.212-1.5a1.7 1.7 0 1 0-1.435-3.076l-3.212 1.5a1.7 1.7 0 0 0-.82 2.255 1.724 1.724 0 0 0 2.255.821z" class="cls-2" transform="translate(-37.612 -30.147)"/>
            <path id="Trazado_474" d="M84.5 116.646a1.7 1.7 0 0 0-3.076 1.435l1.5 3.212A1.7 1.7 0 0 0 86 119.858z" class="cls-2" transform="translate(-34.764 -38.282)"/>
            <path id="Trazado_475" d="M96.292 107.079l-3.349-1.23a1.7 1.7 0 0 0-2.187 1.025 1.715 1.715 0 0 0 .068 1.3 1.543 1.543 0 0 0 .957.889l3.349 1.23a1.7 1.7 0 0 0 2.187-1.025 1.755 1.755 0 0 0-1.025-2.189z" class="cls-2" transform="translate(-37.738 -35.14)"/>
            <path id="Trazado_476" d="M55.1 78.625L52.5 77.6l-.2 1.709-.957 8.475L51 91.338v.752a4.512 4.512 0 0 0 .068.957l.342 1.3.752 3.144 2.324 9.842a3.78 3.78 0 0 0 3.486 2.871 3.9 3.9 0 0 0 .889-.068.251.251 0 0 0 .205-.068 3.829 3.829 0 0 0 2.871-4.237l-.205-1.5-.41-2.734-1.435-9.158 2.392-7.586.957-3.007-.547-.205z" class="cls-2" transform="translate(-25.184 -26.233)"/>
            <path id="Trazado_477" d="M82.58 56.952l-.342-1.709-1.914-8.68-1.5-2.529-.683-1.162c-.068-.068-.068-.137-.137-.205l-.068-.068a16.354 16.354 0 0 0-.889-1.435c-.615-1.025-1.23-1.982-1.777-3.007a15.4 15.4 0 0 0-2.324-3.212l-.068-.068c-.205-.205-.478-.41-.683-.615a20.055 20.055 0 0 0-6.63-3.554.423.423 0 0 0-.478.137l-3.967 3.963a.489.489 0 0 1-.82-.205l-1.025-4.784a.433.433 0 0 0-.41-.342 18.854 18.854 0 0 0-5.878.478c-3.212.82-6.425 1.572-9.637 2.392-.137 0-.273.068-.41.068l-10.184-1.3a2.843 2.843 0 0 0-.957 5.6l6.63 1.367 5.194 1.094c.068 0 .205.068.273 0h.273l.752-.068 4.374-.478.478-.068c-.41.957-.889 2.119-1.3 3.144-.205.41-.342.82-.478 1.162-.342.752-.683 1.572-.957 2.324l-.41 1.025-.615.82-2.527-.537-.752-.137-4.443-.889a4.747 4.747 0 0 0-3.212.478l-1.3.683-3.759 2.05-1.572.889-12.779 7.036a4.622 4.622 0 0 0-2.255 2.8 4.936 4.936 0 0 0 .342 3.554 4.7 4.7 0 0 0 6.083 2.05l6.835-3.281 5.878-2.871 2.666-1.3L37.61 56.4l.342.137c.478.205 1.025.41 1.5.615 1.5.683 3.076 1.3 4.579 1.982a6.9 6.9 0 0 1 1.025.478c.273.137.547.205.82.342h.137c1.367.615 2.734 1.162 4.1 1.777l1.025.41a10.814 10.814 0 0 0 2.46.615 7.82 7.82 0 0 0 2.529 0 7.289 7.289 0 0 0 4.173-1.703 3.906 3.906 0 0 0 .478-.547 7.077 7.077 0 0 0 1.162-2.255c.205-.683.615-1.777 1.094-3.076s1.162-2.8 1.914-4.443c.547-1.162 1.162-2.255 1.777-3.417.137-.205.205-.342.342-.547.683-1.162 1.435-2.255 2.187-3.349l.41.478 2.529 3.076.478.547.889 1.025.683.889.273.342 2.8 8.27a2.614 2.614 0 0 0 3.349 1.777 2.86 2.86 0 0 0 1.23-.752 2.38 2.38 0 0 0 .683-1.914c.071.137.071-.068.002-.205z" class="cls-2" transform="translate(-13.227 -10.985)"/>
            <path id="Trazado_478" d="M84.572 18.339a5.8 5.8 0 0 0 6.971-2.46l1.3-2.187.683-1.094.474-.752a6.134 6.134 0 0 0-3.281-8.612l-.068-.068h-.068l-.342-.137-.478-.205a6.242 6.242 0 0 0-5.809.82A6.083 6.083 0 0 0 81.7 7.2l-.752 4.579a5.74 5.74 0 0 0 3.624 6.56z" class="cls-2" transform="translate(-34.63 -2.444)"/>
        </g>
    </g>
</svg>
