<svg xmlns="http://www.w3.org/2000/svg" width="120" height="120" viewBox="0 0 120 120">
    <g>
        <path fill="none" d="M0 0H120V120H0z" transform="translate(-928 -3220) translate(928 3220)"/>
        <g>
            <path fill="#0b4269" d="M80.859 129.52h-9.017l-9.6-15.6A4.073 4.073 0 0 0 58.8 112H24.416a4.073 4.073 0 0 0-3.443 1.924l-2.073 3.369a1.348 1.348 0 0 0 .441 1.853l-1.348 2.19a1.348 1.348 0 0 0-1.412 2.288l-1.5 2.434a1.348 1.348 0 0 0-1.853.441l-1.856 3.02H1.348A1.348 1.348 0 0 0 0 130.867v18.867a1.348 1.348 0 0 0 1.348 1.348h12.216a10.781 10.781 0 0 0 21.475-1.348h2.7a1.348 1.348 0 0 0 1.348 1.348H51.3a10.781 10.781 0 0 0 21.394 0h8.167a5.391 5.391 0 0 0 5.391-5.391V134.91a5.391 5.391 0 0 0-5.393-5.39zm-41.777 0v-9.434h11.792v9.434zm-12.43 0a1.348 1.348 0 0 1-1.215-1.944l3.325-6.738a1.348 1.348 0 0 1 1.223-.751h6.4v9.434zm21.864 8.086a1.348 1.348 0 0 1-1.348 1.348h-2.7a1.348 1.348 0 0 1 0-2.7h2.7a1.348 1.348 0 0 1 1.348 1.351zm35.039 4.043h-2.7a1.348 1.348 0 0 1 0-2.7h2.7zM53.569 129.52v-9.434h9.3l5.805 9.434zm-29.312 28.3a8.086 8.086 0 1 1 8.086-8.086 8.086 8.086 0 0 1-8.085 8.086zm37.734 0a8.086 8.086 0 1 1 8.086-8.086 8.086 8.086 0 0 1-8.085 8.086zm-35.039-8.086a2.7 2.7 0 1 1-2.7-2.7 2.7 2.7 0 0 1 2.701 2.7zm37.734 0a2.7 2.7 0 1 1-2.7-2.7 2.7 2.7 0 0 1 2.702 2.7z" transform="translate(-928 -3220) translate(944.875 3261.482) translate(0 -112)"/>
        </g>
    </g>
</svg>
