<svg xmlns="http://www.w3.org/2000/svg" width="119" height="119" viewBox="0 0 119 119">
    <defs>
        <style>
            .cls-2{fill:#0b4269}
        </style>
    </defs>
    <g id="Grupo_489" transform="translate(-808 -8)">
        <g id="Grupo_379" transform="translate(808 8)">
            <path id="Rectángulo_11" fill="none" d="M0 0H119V119H0z"/>
        </g>
        <g id="noun_Old_Law_1872937" transform="translate(830.313 30.44)">
            <g id="Grupo_414" transform="translate(46.71 3.068)">
                <path id="Trazado_468" d="M69.379 16.409a11.591 11.591 0 0 1-6.569 8.552c1.116.248 1.859-.62 2.479.248 1.487 2.107-4.338 3.966-8.552 3.966 1.363 1.487 1.983.62 2.355 1.735a.948.948 0 0 1-.248 1.116c-1.239 1.487-5.33 2.107-7.313 1.859.992.744 1.859.5 1.983 1.611a1.084 1.084 0 0 1-.744 1.116 18.349 18.349 0 0 1-5.454.992c-4.09 0-6.321-1.859-6.941-4.09-1.487-5.082 1.735-12.891 1.983-13.139a1.185 1.185 0 0 1 1.86-.375 7.7 7.7 0 0 1 1.487 2.107 43.576 43.576 0 0 1 3.966-7.685 1.061 1.061 0 0 1 1.487-.372 4.122 4.122 0 0 1 1.487 1.735 32.737 32.737 0 0 1 5.082-8.3 1.161 1.161 0 0 1 1.363-.248 1.175 1.175 0 0 1 .62 1.363 4.782 4.782 0 0 0 .5 2.231c2.231-4.214 7.437-5.826 7.685-5.826a1.069 1.069 0 0 1 1.363.744c0 .248 1.363 4.462-2.231 10.04.248-.124.372-.248.62-.372a1.126 1.126 0 0 1 1.24 0 1.108 1.108 0 0 1 .492.992z" class="cls-2" transform="translate(-39.985 -4.975)"/>
            </g>
            <g id="Grupo_415" transform="translate(33.573 35.078)">
                <path id="Trazado_469" d="M43.781 32.287L31.386 45.674a1.057 1.057 0 0 1-1.611 0 1.159 1.159 0 0 1-.124-1.611L41.922 30.8a13.721 13.721 0 0 0 1.859 1.487z" class="cls-2" transform="translate(-29.386 -30.8)"/>
            </g>
            <g id="Grupo_419">
                <g id="Grupo_416">
                    <path id="Trazado_470" d="M6.638 2.5h-.991A3.881 3.881 0 0 0 2.3 6.342v.5h7.809v-.5A4.1 4.1 0 0 0 6.638 2.5z" class="cls-2" transform="translate(-2.3 -2.5)"/>
                </g>
                <g id="Grupo_417" transform="translate(8.8)">
                    <path id="Trazado_471" d="M52.534 72.9V40.552a7.569 7.569 0 0 1-1.611-.372L38.032 54.063a3.559 3.559 0 0 1-5.082.248 3.452 3.452 0 0 1-.124-5.082l12.767-13.883a.745.745 0 0 1-.124-.5c-1.611-5.578 1.363-13.386 1.983-14.874a3.745 3.745 0 0 1 4.834-1.983 2.709 2.709 0 0 1 .372-.62V6.342A3.862 3.862 0 0 0 48.816 2.5H9.4a6.058 6.058 0 0 1 1.363 3.842v67.8a3.842 3.842 0 0 0 7.685 0 1.333 1.333 0 0 1 1.24-1.242zM18.076 9.193h27.269a1.171 1.171 0 0 1 1.239 1.239 1.171 1.171 0 0 1-1.239 1.239H18.076a1.171 1.171 0 0 1-1.239-1.239 1.242 1.242 0 0 1 1.239-1.239zm0 10.907h23.55a1.239 1.239 0 1 1 0 2.479h-23.55a1.171 1.171 0 0 1-1.239-1.239 1.242 1.242 0 0 1 1.239-1.24zm0 10.907H34.19a1.239 1.239 0 1 1 0 2.479H18.076a1.171 1.171 0 0 1-1.239-1.239 1.242 1.242 0 0 1 1.239-1.239zm0 10.908H34.19a1.239 1.239 0 1 1 0 2.479H18.076a1.239 1.239 0 0 1 0-2.479zm0 13.386a1.239 1.239 0 1 1 0-2.479h6.941a1.239 1.239 0 1 1 0 2.479z" class="cls-2" transform="translate(-9.4 -2.5)"/>
                </g>
                <g id="Grupo_418" transform="translate(19.088 72.882)">
                    <path id="Trazado_472" d="M18.939 61.3a6.345 6.345 0 0 1-1.239 2.6h36.069a4.044 4.044 0 0 0 3.718-2.6z" class="cls-2" transform="translate(-17.7 -61.3)"/>
                </g>
            </g>
        </g>
    </g>
</svg>
