<svg xmlns="http://www.w3.org/2000/svg" width="86.25" height="56.604" viewBox="0 0 86.25 56.604">
    <path fill="#0b4269" d="M85.35 111.028a1.348 1.348 0 0 0-.573-.751L68.639 90.03a5.359 5.359 0 0 0-4.211-2.021H26.5a1.348 1.348 0 0 0-1.348 1.348h-2.916a1.254 1.254 0 0 0-.027-.263 1.322 1.322 0 0 0-.076-.253 1.347 1.347 0 0 0-.125-.232 1.278 1.278 0 0 0-.372-.372 1.346 1.346 0 0 0-.232-.125 1.361 1.361 0 0 0-1.031 0 1.346 1.346 0 0 0-.232.125 1.278 1.278 0 0 0-.372.372 1.346 1.346 0 0 0-.125.232 1.322 1.322 0 0 0-.076.253 1.253 1.253 0 0 0-.027.254h-2.977A1.348 1.348 0 0 0 15.217 88H8.086A8.094 8.094 0 0 0 0 96.086v31a8.094 8.094 0 0 0 8.086 8.086h3.12a10.781 10.781 0 0 0 21.475-1.348h3.369a1.348 1.348 0 0 0 1.348 1.348h14.574a10.781 10.781 0 0 0 21.394 0h4.8a8.094 8.094 0 0 0 8.086-8.086V114.01a5.414 5.414 0 0 0-.9-2.982zm-30.433 7.463a1.348 1.348 0 0 1 1.348-1.348h2.7a1.348 1.348 0 0 1 0 2.7h-2.7a1.348 1.348 0 0 1-1.348-1.352zm22.91 3.874a1.348 1.348 0 0 1 1.348-1.348h4.38v2.7h-4.38a1.348 1.348 0 0 1-1.348-1.352zM39.756 99.624v7.749a2.7 2.7 0 0 1-2.7 2.7H22.573a2.7 2.7 0 0 1-2.7-2.7v-7.749a2.7 2.7 0 0 1 2.7-2.7h14.488a2.7 2.7 0 0 1 2.695 2.7zm15.161 10.444a2.7 2.7 0 0 1-2.7-2.7v-7.744a2.7 2.7 0 0 1 2.7-2.7h15.774l10.473 13.14zM21.9 141.906a8.086 8.086 0 1 1 8.086-8.086 8.086 8.086 0 0 1-8.086 8.086zm40.767 0a8.086 8.086 0 1 1 8.086-8.086 8.086 8.086 0 0 1-8.087 8.086zm-38.072-8.086a2.7 2.7 0 1 1-2.7-2.7 2.7 2.7 0 0 1 2.7 2.7zm40.767 0a2.7 2.7 0 1 1-2.7-2.7 2.7 2.7 0 0 1 2.699 2.7z" transform="translate(0 -88)"/>
</svg>
