<svg xmlns="http://www.w3.org/2000/svg" width="120" height="120" viewBox="0 0 120 120">
    <g>
        <path fill="none" d="M0 0H120V120H0z" transform="translate(-705 -1142) translate(705 1142)"/>
        <g>
            <path fill="#0b4269" d="M74.248 178.742v-30.31H78.9a2.407 2.407 0 0 0 1.517-4.268l-21.026-17.125a2.4 2.4 0 0 0-1.517-.539H28.28a2.389 2.389 0 0 0-1.534.553s-.059.048-.128.113l-17.867 16.97a2.4 2.4 0 0 0 3.3 3.485l2.253-2.136v32.841H10.4a2.4 2.4 0 1 0 0 4.807h62.5a2.4 2.4 0 0 0 1.348-4.391zm-4.807-.416h-6.46v-6.617a2.4 2.4 0 0 0-.15-4.8h-13.52a2.4 2.4 0 0 0-.15 4.8v6.617H42.4V144.7l3.509 3.126a2.4 2.4 0 0 0 1.6.608H69.44zm-50.324 0v-37.405l9.216-8.752 9.261 8.247v37.91zm12.168-13.82h-6.01a2.4 2.4 0 0 0-2.4 2.4v6.009a2.4 2.4 0 0 0 2.4 2.4h6.009a2.4 2.4 0 0 0 2.4-2.4v-6.009a2.4 2.4 0 0 0-2.4-2.4zm0-19.529h-6.01a2.4 2.4 0 0 0-2.4 2.4v6.009a2.4 2.4 0 0 0 2.4 2.4h6.009a2.4 2.4 0 0 0 2.4-2.4v-6.009a2.4 2.4 0 0 0-2.4-2.4zM82.51 180.73a2.4 2.4 0 1 1-4.523-1.127 2.405 2.405 0 0 1 4.523 1.127zM46.907 157.9a2.4 2.4 0 0 1 2.4-2.4h2.854a2.4 2.4 0 1 1 0 4.807h-2.85a2.4 2.4 0 0 1-2.404-2.407zm10.666 0a2.4 2.4 0 0 1 2.4-2.4h2.854a2.4 2.4 0 0 1 0 4.807h-2.85a2.4 2.4 0 0 1-2.404-2.407z" transform="translate(-705 -1142) translate(727.592 1175.734) translate(-8 -126.5)"/>
        </g>
    </g>
</svg>
