<svg xmlns="http://www.w3.org/2000/svg" id="Grupo_362" width="120" height="120" viewBox="0 0 120 120">
    <defs>
        <style>
            .cls-2{fill:#0b4269}
        </style>
    </defs>
    <path id="Rectángulo_68" fill="none" d="M0 0H120V120H0z"/>
    <g id="Capa_2" transform="translate(20 44.932)">
        <g id="Capa_1">
            <path id="Trazado_13" d="M54.016 6.775a11.721 11.721 0 0 0-3.433 1.663l.2 1.081s-11.09-7.557-21.614 3.632a13.026 13.026 0 0 1-13.15-4.614S15.936 6.284 2.876 6.65l.981 1.006c-1.862.2-1.33 1.862 1.87 1.862 0 0 6.775 7.656 11.879 7.166l7.365 3.633c1.272 2.062 3.242 4.223 3.325 6.775-.781.1-1.571.291-2.552.49a13.126 13.126 0 1 0-.49 9.718l3.146 2.493s23.059.1 24.34-.59c-1.663-4.713-1.962-9.028 2.161-12.27a13.225 13.225 0 1 0 11.97-8.313c.881-.59 1.571-.981 1.571-.981l-1.072-.956s2.943-.69 2.261-2.161-7.656-9.975-7.656-9.975A3.658 3.658 0 0 0 60.716 0l-1.205 2.652C56.269.49 53.692.3 50.874 3.042a3.392 3.392 0 0 0 .781 2.352m15.512 17.175a9.144 9.144 0 1 1-9.144 9.231 9.144 9.144 0 0 1 9.144-9.227zm-44.955 11a9.061 9.061 0 0 1-8.928 7.357 9.177 9.177 0 1 1 0-18.354 9.285 9.285 0 0 1 8.537 5.885m7.265 4.713a3.957 3.957 0 0 0 1.081 1.962l-4.223.2a11.58 11.58 0 0 0 .391-1.962z" class="cls-2" transform="translate(-.198)"/>
            <circle id="Elipse_1" cx="2.776" cy="2.776" r="2.776" class="cls-2" transform="translate(10.343 29.186)"/>
            <circle id="Elipse_2" cx="2.776" cy="2.776" r="2.776" class="cls-2" transform="translate(64.367 29.186)"/>
        </g>
    </g>
</svg>
