<svg xmlns="http://www.w3.org/2000/svg" width="121" height="121" viewBox="0 0 121 121">
    <g>
        <path fill="none" d="M0 0H121V121H0z" transform="translate(-1293 -1337) translate(1293 1337)"/>
        <g>
            <path fill="#0b4269" d="M74.282 46h-25.2a1.179 1.179 0 0 0-1.182 1.179v5.6a1.179 1.179 0 0 0 1.179 1.179h8.991v11.57a1.179 1.179 0 0 0 1.179 1.179V68.7a1.1 1.1 0 0 0-.23.021 1.16 1.16 0 0 0-.221.066 1.18 1.18 0 0 0-.2.109 1.237 1.237 0 0 0-.18.147 1.179 1.179 0 0 0 0 1.668 1.145 1.145 0 0 0 .18.147 1.18 1.18 0 0 0 .2.109 1.158 1.158 0 0 0 .221.066 1.1 1.1 0 0 0 .23.024v1.953a1.179 1.179 0 0 0-1.179 1.179V82.6L45.152 95.522h-23.66a8.548 8.548 0 0 0-15.275 0H1.179A1.179 1.179 0 0 0 0 96.7v5.306a1.179 1.179 0 0 0 1.179 1.179h5.038a8.548 8.548 0 0 0 15.77-1.179h2.98a1.179 1.179 0 0 0 1.179 1.179h27.971a8.548 8.548 0 1 0 11.322-11.544V53.959h8.843a1.179 1.179 0 0 0 1.179-1.179v-5.6A1.179 1.179 0 0 0 74.282 46zM58.07 85.941v5.7a8.6 8.6 0 0 0-3.953 3.878H48.49zm-44.216 19.6a6.19 6.19 0 1 1 6.19-6.19 6.19 6.19 0 0 1-6.19 6.193zm54.091-6.19a6.19 6.19 0 1 1-8.357-5.8 1.2 1.2 0 0 0 .122-.043 6.156 6.156 0 0 1 4.088 0 1.2 1.2 0 0 0 .122.043 6.2 6.2 0 0 1 4.025 5.803zm-52.322 0a1.769 1.769 0 1 1-1.769-1.769 1.769 1.769 0 0 1 1.769 1.769zm47.9 0a1.769 1.769 0 1 1-1.769-1.769 1.769 1.769 0 0 1 1.769 1.772z" transform="translate(-1293 -1337) translate(1315.638 1364.983) translate(0 -46)"/>
        </g>
    </g>
</svg>
