<svg xmlns="http://www.w3.org/2000/svg" width="120" height="120" viewBox="0 0 120 120">
    <g>
        <path fill="none" d="M0 0H120V120H0z" transform="translate(-648 -8) translate(648 8)"/>
        <path fill="#0b4269" d="M36.874 56.737v10.357A21.224 21.224 0 0 0 79.1 70.035a12.291 12.291 0 1 0-6.7-.134 14.522 14.522 0 0 1-28.822-2.807V56.737a21.243 21.243 0 0 0 17.874-20.96V22.355A3.353 3.353 0 0 0 58.1 19h-8.937v6.711h5.586v10.066a14.523 14.523 0 1 1-29.045 0V25.711h5.586V19h-8.939A3.353 3.353 0 0 0 19 22.355v13.422a21.243 21.243 0 0 0 17.874 20.96zm33.514 1.409a5.586 5.586 0 1 1 5.586 5.592 5.589 5.589 0 0 1-5.586-5.592z" transform="translate(-648 -8) translate(654.337 14.325)"/>
    </g>
</svg>
