<svg xmlns="http://www.w3.org/2000/svg" width="120" height="120" viewBox="0 0 120 120">
    <g>
        <path fill="none" d="M0 0H120V120H0z" transform="translate(-1097 -1337) translate(1097 1337)"/>
        <g>
            <g>
                <path fill="#0b4269" d="M57.779 9.892V9.63a2.411 2.411 0 0 0-2.4-2.4h-4.818a2.411 2.411 0 0 0-2.411 2.4h-2.4V8.236A8.236 8.236 0 0 0 37.51 0H29.9a8.236 8.236 0 0 0-8.228 8.236V9.63H19.26a2.4 2.4 0 0 0-2.4-2.4h-4.819a2.411 2.411 0 0 0-2.411 2.4v.262A12.2 12.2 0 0 0 0 21.933v23.782a12.2 12.2 0 0 0 12.18 12.064h43.05A12.2 12.2 0 0 0 67.409 45.6V21.81a12.2 12.2 0 0 0-9.63-11.918zM26.486 8.236a3.444 3.444 0 0 1 3.421-3.421h7.6a3.444 3.444 0 0 1 3.421 3.421V9.63H26.486z" transform="translate(-1097 -1337) translate(1123.215 1369.902) translate(.001)"/>
            </g>
        </g>
    </g>
</svg>
