<svg xmlns="http://www.w3.org/2000/svg" width="120" height="120" viewBox="0 0 120 120">
    <g>
        <path fill="none" d="M0 0H120V120H0z" transform="translate(-901 -1142) translate(901 1142)"/>
        <path fill="#0b4269" d="M77 34.307a2.679 2.679 0 0 1-2.679 2.679H51.554l-7.232 9.643a2.679 2.679 0 0 1-2.143 1.071h-.241a2.679 2.679 0 0 1-2.143-1.473l-8.786-17.572-5.357 7.259a2.679 2.679 0 0 1-2.143 1.071H4.679a2.679 2.679 0 1 1 0-5.357h17.41l7.232-9.643a2.679 2.679 0 0 1 2.143-1.071h.268a2.679 2.679 0 0 1 2.143 1.473l8.786 17.571 5.357-7.258a2.679 2.679 0 0 1 2.2-1.071h24.103A2.679 2.679 0 0 1 77 34.307zM8.616 28.95A17.33 17.33 0 0 1 36.955 10.2l2.545 2.679 2.679-2.679a17.33 17.33 0 0 1 28.339 18.75h-20.3a5.357 5.357 0 0 0-4.286 2.143l-2.843 3.777-6.83-13.661a5.357 5.357 0 0 0-4.312-2.973h-.482a5.357 5.357 0 0 0-4.259 2.143L20.75 28.95zm44.277-12.375A2.679 2.679 0 0 0 55.17 19.6a3.589 3.589 0 0 1 3.08 3.536 2.679 2.679 0 0 0 5.357 0 8.973 8.973 0 0 0-7.661-8.836 2.679 2.679 0 0 0-3.054 2.277zm0 23.089l-6.429 8.571a5.357 5.357 0 0 1-4.286 2.143H41.7a5.357 5.357 0 0 1-4.312-2.946l-6.83-13.661-2.839 3.75a5.357 5.357 0 0 1-4.286 2.143h-8.04l22.259 22.929a2.679 2.679 0 0 0 3.857 0l22.1-22.929z" transform="translate(-901 -1142) translate(923.375 1168.587)"/>
    </g>
</svg>
