<svg xmlns="http://www.w3.org/2000/svg" width="345" height="231" viewBox="0 0 345 231">
    <defs>
        <clipPath id="clip-path">
            <path id="Rectángulo_93" fill="#22d3c5" d="M0 0H345V231H0z" transform="translate(15 120)"/>
        </clipPath>
        <style>
            .cls-3,.cls-4{fill:rgba(6,3,22,.27)}.cls-4{fill-rule:evenodd}
        </style>
    </defs>
    <g id="Enmascarar_grupo_2" clip-path="url(#clip-path)" transform="translate(-15 -120)">
        <g id="Grupo_76" transform="translate(-985 -176)">
            <g id="_01._Sedan_сar" transform="translate(1023 182.124)">
                <path id="Trazado_1" d="M43.125 121.344h-4.809l-5.121-8.318A2.172 2.172 0 0 0 31.361 112H13.022a2.172 2.172 0 0 0-1.836 1.026l-1.105 1.8a.719.719 0 0 0 .235.988l-.716 1.165a.719.719 0 0 0-.753 1.22l-.8 1.3a.719.719 0 0 0-.988.235l-.99 1.611H.719a.719.719 0 0 0-.719.719v10.062a.719.719 0 0 0 .719.719h6.515a5.75 5.75 0 0 0 11.453-.719h1.438a.719.719 0 0 0 .719.719h6.515a5.75 5.75 0 0 0 11.41 0h4.356A2.875 2.875 0 0 0 46 129.969v-5.75a2.875 2.875 0 0 0-2.875-2.875zm-22.281 0v-5.031h6.289v5.031zm-6.63 0a.719.719 0 0 1-.648-1.037l1.774-3.594a.719.719 0 0 1 .652-.4h3.414v5.031zm11.661 4.313a.719.719 0 0 1-.719.719h-1.437a.719.719 0 0 1 0-1.437h1.438a.719.719 0 0 1 .718.717zm18.688 2.156h-1.438a.719.719 0 0 1 0-1.437h1.438zm-15.993-6.469v-5.031h4.961l3.1 5.031zm-15.632 15.093a4.312 4.312 0 1 1 4.313-4.312 4.312 4.312 0 0 1-4.313 4.312zm20.125 0a4.312 4.312 0 1 1 4.313-4.312 4.312 4.312 0 0 1-4.313 4.312zm-18.687-4.312a1.438 1.438 0 1 1-1.437-1.437 1.437 1.437 0 0 1 1.436 1.437zm20.125 0a1.438 1.438 0 1 1-1.437-1.437 1.437 1.437 0 0 1 1.436 1.437z" class="cls-3"/>
            </g>
            <g id="_20._Scooter" transform="translate(1101 444.833)">
                <path id="Trazado_2" d="M39.375 46H26.016a.625.625 0 0 0-.625.625v2.969a.625.625 0 0 0 .625.625h4.766v6.133a.625.625 0 0 0 .625.625v1.055a.585.585 0 0 0-.122.011.615.615 0 0 0-.117.035.626.626 0 0 0-.108.058.655.655 0 0 0-.1.078.625.625 0 0 0 0 .884.607.607 0 0 0 .1.078.626.626 0 0 0 .108.058.614.614 0 0 0 .117.035.581.581 0 0 0 .122.012v1.035a.625.625 0 0 0-.625.625V65.4l-6.848 6.85H11.392a4.531 4.531 0 0 0-8.1 0H.625a.625.625 0 0 0-.625.625v2.812a.625.625 0 0 0 .625.625H3.3a4.531 4.531 0 0 0 8.359-.625h1.58a.625.625 0 0 0 .625.625h14.822a4.531 4.531 0 1 0 6-6.12V50.219h4.688a.625.625 0 0 0 .626-.625v-2.969a.625.625 0 0 0-.625-.625zm-8.594 21.172v3.023a4.56 4.56 0 0 0-2.1 2.055H25.7zM7.344 77.562a3.281 3.281 0 1 1 3.281-3.281 3.281 3.281 0 0 1-3.281 3.281zm28.672-3.281a3.281 3.281 0 1 1-4.43-3.073.634.634 0 0 0 .065-.023 3.263 3.263 0 0 1 2.167 0 .635.635 0 0 0 .065.023 3.286 3.286 0 0 1 2.133 3.073zm-27.734 0a.937.937 0 1 1-.937-.937.938.938 0 0 1 .937.937zm25.391 0a.938.938 0 1 1-.938-.937.938.938 0 0 1 .937.937z" class="cls-3"/>
            </g>
            <g id="_21._Giroskuter" transform="translate(1175.979 215.091)">
                <path id="Trazado_3" d="M34.044 92.941a5.947 5.947 0 0 0-.986.083L31.844 90.8l.955-.747a2.049 2.049 0 0 0 .354-2.865l-3.663-4.713.459-.106a1.619 1.619 0 0 0 .839-2.656L29.513 78.3a4.186 4.186 0 0 0-3.952-1.3l-5.881 1.213a.625.625 0 0 0-.48.759l.5 2.059a.625.625 0 0 0 .732.469l2.935-.6.748 2.243a.625.625 0 0 0 .734.411l.313-.072.648 5.681-3.47 4.719h-5.15l-.686-4.1a2.422 2.422 0 0 0-.938-4.653h-4.505a.625.625 0 1 0 0 1.25h4.506a1.172 1.172 0 0 1 0 2.344H5.1a1.172 1.172 0 0 1 0-2.344h1.625a.625.625 0 1 0 0-1.25H5.1a2.422 2.422 0 0 0-1.57 4.265l-2.3 1.154a.625.625 0 0 0-.318.744l.584 1.916a.625.625 0 0 0 .3.368l.8.431a5.975 5.975 0 1 0 9.368 5.184h1.726a.625.625 0 0 0 .625.625h9.16a.625.625 0 0 0 .5-.244l4.817-6.256.853 1.563a5.974 5.974 0 1 0 4.4-1.938zm-2.221.429a5.947 5.947 0 0 0-1.218.664l-.866-1.585 1.107-.867zM6 103.644a4.726 4.726 0 0 1-1.974-9.02.625.625 0 0 0 .264-.113A4.727 4.727 0 1 1 6 103.644zm28.048 0a4.724 4.724 0 0 1-3.268-8.134.607.607 0 0 0 .127-.118 4.731 4.731 0 0 1 1.852-1.023.614.614 0 0 0 .263-.066 4.727 4.727 0 1 1 1.023 9.341zM6 96.144a2.774 2.774 0 1 0 2.774 2.774A2.774 2.774 0 0 0 6 96.144zm0 4.3a1.523 1.523 0 1 1 1.523-1.523A1.523 1.523 0 0 1 6 100.441zm28-4.3a2.813 2.813 0 1 0 2.813 2.813A2.813 2.813 0 0 0 34 96.144zm0 4.375a1.563 1.563 0 1 1 1.563-1.563A1.563 1.563 0 0 1 34 100.519zM8.483 86.194a.625.625 0 0 1 0-.884.659.659 0 0 1 .1-.078.648.648 0 0 1 .217-.092.64.64 0 0 1 .244 0 .648.648 0 0 1 .225.093.659.659 0 0 1 .1.078.625.625 0 0 1 0 .884.659.659 0 0 1-.1.078.676.676 0 0 1-.108.057.616.616 0 0 1-.117.036.6.6 0 0 1-.244 0 .616.616 0 0 1-.117-.036.676.676 0 0 1-.108-.057.659.659 0 0 1-.092-.079z" class="cls-3"/>
            </g>
            <g id="_15._Minivan_car" transform="translate(1248 202.155)">
                <path id="Trazado_4" d="M45.52 100.282a.719.719 0 0 0-.305-.4l-8.607-10.8A2.858 2.858 0 0 0 34.362 88H14.135a.719.719 0 0 0-.719.719h-1.557a.669.669 0 0 0-.014-.14.705.705 0 0 0-.04-.135.718.718 0 0 0-.066-.124.682.682 0 0 0-.2-.2.718.718 0 0 0-.124-.066.726.726 0 0 0-.55 0 .718.718 0 0 0-.124.066.682.682 0 0 0-.2.2.718.718 0 0 0-.066.124.705.705 0 0 0-.04.135.669.669 0 0 0-.014.136H8.834A.719.719 0 0 0 8.116 88h-3.8A4.317 4.317 0 0 0 0 92.312v16.531a4.317 4.317 0 0 0 4.313 4.313h1.663a5.75 5.75 0 0 0 11.453-.719h1.8a.719.719 0 0 0 .719.719h7.773a5.75 5.75 0 0 0 11.41 0h2.559a4.317 4.317 0 0 0 4.31-4.312v-6.972a2.888 2.888 0 0 0-.48-1.59zm-16.231 3.98a.719.719 0 0 1 .719-.719h1.437a.719.719 0 0 1 0 1.438h-1.437a.719.719 0 0 1-.719-.719zm12.219 2.066a.719.719 0 0 1 .719-.719h2.336v1.438h-2.336a.719.719 0 0 1-.719-.719zM21.2 94.2v4.133a1.437 1.437 0 0 1-1.437 1.438h-7.724a1.437 1.437 0 0 1-1.439-1.439V94.2a1.437 1.437 0 0 1 1.437-1.437h7.727A1.438 1.438 0 0 1 21.2 94.2zm8.086 5.57a1.437 1.437 0 0 1-1.437-1.437V94.2a1.437 1.437 0 0 1 1.438-1.437H37.7l5.586 7.008zM11.68 116.75a4.313 4.313 0 1 1 4.312-4.312 4.312 4.312 0 0 1-4.312 4.312zm21.742 0a4.313 4.313 0 1 1 4.313-4.312 4.312 4.312 0 0 1-4.313 4.312zm-20.3-4.312A1.437 1.437 0 1 1 11.68 111a1.437 1.437 0 0 1 1.437 1.437zm21.742 0A1.438 1.438 0 1 1 33.422 111a1.438 1.438 0 0 1 1.437 1.437z" class="cls-3"/>
            </g>
            <g id="Capa_2" transform="translate(1328.001 289.571)">
                <g id="Capa_1" transform="translate(-.001)">
                    <path id="Trazado_5" d="M30.857 5.283v-.14a1.288 1.288 0 0 0-1.284-1.284H27a1.288 1.288 0 0 0-1.288 1.284H24.43V4.4a4.4 4.4 0 0 0-4.4-4.4h-4.063a4.4 4.4 0 0 0-4.394 4.4v.745h-1.288A1.284 1.284 0 0 0 9 3.859H6.43a1.288 1.288 0 0 0-1.288 1.284v.14A6.517 6.517 0 0 0 0 11.713v12.7a6.517 6.517 0 0 0 6.5 6.443h22.99a6.517 6.517 0 0 0 6.5-6.5v-12.7a6.517 6.517 0 0 0-5.143-6.365zM14.144 4.4a1.839 1.839 0 0 1 1.827-1.827h4.061A1.839 1.839 0 0 1 21.859 4.4v.745h-7.715z" class="cls-3" transform="translate(.001)"/>
                </g>
            </g>
            <g id="_47._Bungalow" transform="translate(1393 163.418)">
                <path id="Trazado_6" d="M43.188 154.249v-16.1h2.474a1.278 1.278 0 0 0 .806-2.267l-11.171-9.1a1.277 1.277 0 0 0-.806-.286H18.772a1.269 1.269 0 0 0-.815.294s-.031.026-.068.06L8.4 135.868a1.277 1.277 0 0 0 1.755 1.851l1.2-1.135v17.444H9.277a1.277 1.277 0 1 0 0 2.553H42.47a1.277 1.277 0 0 0 .718-2.332zm-2.553-.221H37.2v-3.515a1.277 1.277 0 0 0-.08-2.549h-7.177a1.277 1.277 0 0 0-.08 2.549v3.515h-3.591v-17.862l1.864 1.66a1.276 1.276 0 0 0 .849.323h11.65zm-26.73 0V134.16l4.9-4.649 4.919 4.381v20.136zm6.463-7.341h-3.192a1.277 1.277 0 0 0-1.277 1.277v3.192a1.277 1.277 0 0 0 1.277 1.277h3.192a1.277 1.277 0 0 0 1.277-1.277v-3.192a1.277 1.277 0 0 0-1.277-1.277zm0-10.373h-3.192a1.277 1.277 0 0 0-1.277 1.277v3.192a1.277 1.277 0 0 0 1.277 1.277h3.192a1.277 1.277 0 0 0 1.277-1.277v-3.192a1.277 1.277 0 0 0-1.277-1.277zM47.577 155.3a1.276 1.276 0 1 1-2.4-.6 1.277 1.277 0 0 1 2.4.6zm-18.911-12.124a1.277 1.277 0 0 1 1.277-1.277h1.516a1.277 1.277 0 1 1 0 2.553h-1.516a1.277 1.277 0 0 1-1.277-1.276zm5.665 0a1.277 1.277 0 0 1 1.277-1.277h1.516a1.277 1.277 0 1 1 0 2.553h-1.516a1.277 1.277 0 0 1-1.277-1.276z" class="cls-3"/>
            </g>
            <g id="_19._Trailer" transform="translate(1172.006 404)">
                <path id="Trazado_7" d="M21.744 113.5a1.5 1.5 0 1 1-1.5-1.5 1.5 1.5 0 0 1 1.5 1.5zm-12-1.5a1.5 1.5 0 1 0 1.5 1.5 1.5 1.5 0 0 0-1.5-1.5zm25.875-7.406a.75.75 0 0 0-.75.75v1.312a.75.75 0 1 0 1.5 0v-1.312a.75.75 0 0 0-.75-.75zm12.375 6.375v2.531a.75.75 0 0 1-.75.75H28.869a.75.75 0 0 1-.75-.75h-1.875a6 6 0 0 1-11.25 2.9 6 6 0 0 1-11.209-2.207 4.507 4.507 0 0 1-3.791-4.443v-9.45a.75.75 0 0 1 .75-.75v-1.238A.7.7 0 0 1 .6 98.3a.736.736 0 0 1-.141-.042.75.75 0 0 1-.129-.069.728.728 0 0 1-.114-.094.75.75 0 0 1 0-1.061.786.786 0 0 1 .114-.094.75.75 0 0 1 .129-.069.736.736 0 0 1 .141-.045.7.7 0 0 1 .146-.013v-1.594a.75.75 0 0 1-.75-.75V92.5a4.5 4.5 0 0 1 4.5-4.5h34.31a4.5 4.5 0 0 1 4.5 4.5v17.719h3.937a.75.75 0 0 1 .751.749zM7.817 100.341a2.354 2.354 0 0 0 1.838.877h4.406v-7.312H10.2a2.377 2.377 0 0 0-2.314 1.875l-.549 2.581a2.353 2.353 0 0 0 .475 1.979zm15.24-4.935a1.5 1.5 0 0 0-1.5-1.5h-6v7.312h6a1.5 1.5 0 0 0 1.5-1.5zM14.244 113.5a4.5 4.5 0 1 0-4.5 4.5 4.5 4.5 0 0 0 4.5-4.5zm10.5 0a4.5 4.5 0 1 0-4.5 4.5 4.5 4.5 0 0 0 4.5-4.5zm13.312-13.312a1.5 1.5 0 0 0-1.5-1.5h-5.437a1.5 1.5 0 0 0-1.5 1.5v10.5a.75.75 0 0 1-.75.75v1.312h9.187zm8.437 11.531h-3.187v1.031h3.187z" class="cls-3"/>
            </g>
            <g id="noun_collision_580429" transform="translate(1093.459 344.086)">
                <g id="Grupo_2" transform="translate(27.813 15.3)">
                    <g id="Grupo_1">
                        <path id="Trazado_8" d="M58.43 18.1v-2.492l-3.266-.017c-1.5-.017-4.629-.648-6 0-3.117 1.471-.415 4.3.715 6.274l-1.346-3.814 4.812.025-.017 5.386-10.563-.05 2.6-3.524a1.627 1.627 0 0 1-.706-1.637c.1-.64.166-1.28.208-1.911l-6.856 9.291-2.576-.017a5.655 5.655 0 0 0-3.166 1.9l.681.433-1.14 3.129-.01 1.953h2.46l-2.466 1.621-.009.815 1.479.8-1.4 1.529a1.925 1.925 0 0 0 1.92 1.438h.291l2.011.009a5.133 5.133 0 0 0 10.264.058v-.042l1.994.009v.034l5.477.033-.952-8.433 1.272 2.46 1.812 1.23-.606 4.754 3.084.017V23.486l-2.1-.009.033-5.386zM43.935 39.269a2.727 2.727 0 0 1-5.452-.034.171.171 0 0 0-.009-.066 2.73 2.73 0 0 1 5.46.025c-.009.017 0 .042 0 .058z" class="cls-3" transform="translate(-31.785 -15.3)"/>
                    </g>
                </g>
                <path id="Trazado_9" d="M25.494 32.724l-.773-4.089-2.793-.2-3.49-.308-2.917-1.587-2.693-1.529 5.269 1.87 3.258-.216 3.033.224-.473-2.535s-1.13-2.335-6.849-2.02l-5.593 1.055s-5.619-3.423-8.793-5.783a1.684 1.684 0 0 1-.058 1.088 1.636 1.636 0 0 1-.382.59 4.722 4.722 0 0 1-.7.59l1.081.606 3.059 1.7-3.059.582v16.152l7.588-1.438a.063.063 0 0 1-.017-.042l2.045-.391c.009.017.009.033.017.042a5.134 5.134 0 0 0 10.09-1.9c0-.025-.009-.05-.009-.075l1.887-.357v.025a2.077 2.077 0 0 0 1.272-2.054zm-7.7 6.017a2.717 2.717 0 0 1-3.166-2.1.086.086 0 0 1-.009-.042.03.03 0 0 1-.009-.025 2.724 2.724 0 1 1 5.352-1.022c0 .009.009.009 0 .017a.091.091 0 0 1 .017.058 2.725 2.725 0 0 1-2.189 3.114z" class="cls-3" transform="translate(0 -.303)"/>
            </g>
            <path id="noun_cardiogram_2167891" d="M42 20.674a1.429 1.429 0 0 1-1.429 1.426H28.429l-3.857 5.143a1.429 1.429 0 0 1-1.143.571H23.3a1.429 1.429 0 0 1-1.143-.786l-4.686-9.368-2.857 3.871a1.429 1.429 0 0 1-1.143.571H3.429a1.429 1.429 0 1 1 0-2.857h9.286l3.856-5.145a1.429 1.429 0 0 1 1.143-.571h.143a1.429 1.429 0 0 1 1.143.788l4.686 9.371 2.857-3.871a1.429 1.429 0 0 1 1.171-.571h12.857A1.429 1.429 0 0 1 42 20.674zM5.529 17.817a9.243 9.243 0 0 1 15.114-10L22 9.246l1.429-1.429a9.243 9.243 0 0 1 15.114 10H27.714a2.857 2.857 0 0 0-2.286 1.143l-1.514 2.014-3.643-7.286a2.857 2.857 0 0 0-2.3-1.586h-.257a2.857 2.857 0 0 0-2.271 1.143L12 17.817zm23.614-6.6a1.429 1.429 0 0 0 1.214 1.614A1.914 1.914 0 0 1 32 14.717a1.429 1.429 0 0 0 2.857 0A4.786 4.786 0 0 0 30.771 10a1.429 1.429 0 0 0-1.629 1.214zm0 12.314L25.714 28.1a2.857 2.857 0 0 1-2.286 1.143h-.257a2.857 2.857 0 0 1-2.3-1.571l-3.643-7.286-1.514 2a2.857 2.857 0 0 1-2.286 1.143H9.143L21.014 35.76a1.429 1.429 0 0 0 2.057 0l11.786-12.229z" class="cls-3" transform="translate(1025 351.803)"/>
            <g id="Capa_2-2" transform="translate(1179.238 351)">
                <g id="Capa_1-2">
                    <path id="Trazado_10" d="M32.762 20.487V6.273h-.507A23.047 23.047 0 0 1 16.381 0 23.047 23.047 0 0 1 .507 6.273H0v14.214a12.371 12.371 0 0 0 5.845 10.484l10.536 6.483 10.536-6.483a12.371 12.371 0 0 0 5.845-10.484zm-4.1.8a1.363 1.363 0 0 1-1.362 1.367h-6.821v6.823a1.363 1.363 0 0 1-1.363 1.363h-5.46a1.363 1.363 0 0 1-1.363-1.363v-6.823H5.46a1.363 1.363 0 0 1-1.36-1.363v-5.46a1.363 1.363 0 0 1 1.36-1.363h6.823V7.645a1.363 1.363 0 0 1 1.363-1.363h5.46a1.363 1.363 0 0 1 1.364 1.363v6.823h6.823a1.363 1.363 0 0 1 1.363 1.363z" class="cls-3"/>
                    <path id="Trazado_11" d="M18.731 17.133V10.31H16v6.823a1.363 1.363 0 0 1-1.358 1.367H7.81v2.735h6.823A1.363 1.363 0 0 1 16 22.594v6.823h2.735v-6.823a1.363 1.363 0 0 1 1.363-1.363h6.823V18.5H20.1a1.363 1.363 0 0 1-1.372-1.363z" class="cls-3" transform="translate(-.987 -1.303)"/>
                </g>
            </g>
            <g id="noun_Community_2429142" transform="translate(1222.945 204.426)">
                <path id="Trazado_12" d="M37.705 156.38a2.785 2.785 0 1 1-2.784 2.784 2.785 2.785 0 0 1 2.784-2.784zm10.35 0a2.785 2.785 0 1 1-2.785 2.784 2.785 2.785 0 0 1 2.785-2.784zm-8.583 9.893c-.689.032-.9.2-.961.905-.22 2.5-.336 6.14 1.412 8.044 1.147 1.25 1.076 5.992 1.565 7.759.154.55 2.646.55 2.8 0 .49-1.767.418-6.509 1.566-7.759 1.748-1.9 1.631-5.542 1.411-8.044-.061-.708-.272-.872-.961-.905a5.153 5.153 0 0 1-6.832 0zm3.416-5.444a2.805 2.805 0 1 1-2.805 2.806 2.806 2.806 0 0 1 2.805-2.805zm-13.749 5.444c-.69.032-.9.2-.962.905-.22 2.5-.336 6.14 1.412 8.044 1.147 1.25 1.075 5.992 1.565 7.759.154.55 2.646.55 2.8 0 .49-1.767.419-6.509 1.566-7.759 1.748-1.9 1.632-5.542 1.412-8.044-.062-.708-.272-.872-.961-.905a5.152 5.152 0 0 1-6.831 0zm3.415-5.444a2.805 2.805 0 1 1-2.805 2.806 2.805 2.805 0 0 1 2.806-2.805zm17.252 5.444c-.69.032-.9.2-.962.905-.22 2.5-.335 6.14 1.412 8.044 1.147 1.25 1.076 5.992 1.566 7.759.154.55 2.645.55 2.8 0 .49-1.767.418-6.509 1.566-7.759 1.748-1.9 1.632-5.542 1.411-8.044-.061-.708-.272-.872-.961-.905a5.152 5.152 0 0 1-6.831 0zm3.415-5.444a2.805 2.805 0 1 1-2.8 2.806 2.805 2.805 0 0 1 2.801-2.805zm6.918 5.444c-.689.032-.9.2-.962.905-.22 2.5-.336 6.14 1.412 8.044 1.147 1.25 1.075 5.992 1.565 7.759.154.55 2.646.55 2.8 0 .49-1.767.418-6.509 1.566-7.759 1.748-1.9 1.632-5.542 1.412-8.044-.061-.708-.272-.872-.961-.905a5.153 5.153 0 0 1-6.832 0zm3.416-5.444a2.805 2.805 0 1 1-2.806 2.806 2.805 2.805 0 0 1 2.807-2.805zm-5.167-4.45a2.785 2.785 0 1 1-2.784 2.784 2.785 2.785 0 0 1 2.785-2.783z" class="cls-4"/>
            </g>
            <g id="Capa_2-3" transform="translate(1100.025 295.964)">
                <g id="Capa_1-3" transform="translate(.198)">
                    <path id="Trazado_13" d="M28.9 3.613a6.251 6.251 0 0 0-1.83.887l.106.576s-5.914-4.03-11.527 1.937a6.947 6.947 0 0 1-7.013-2.46s-.044-1.2-7.009-1.006l.523.536c-.993.106-.709.993 1 .993 0 0 3.613 4.083 6.335 3.822l3.928 1.937c.678 1.1 1.729 2.252 1.773 3.613-.417.053-.838.155-1.361.262a7 7 0 1 0-.262 5.183l1.676 1.33s12.3.053 12.981-.315c-.887-2.514-1.046-4.815 1.153-6.544a7.054 7.054 0 1 0 6.384-4.433c.47-.315.838-.523.838-.523l-.572-.51s1.569-.368 1.206-1.153-4.083-5.32-4.083-5.32A1.951 1.951 0 0 0 32.474 0l-.643 1.414C30.1.262 28.728.16 27.225 1.623a1.809 1.809 0 0 0 .417 1.255m8.273 9.159a4.877 4.877 0 1 1-4.877 4.921 4.877 4.877 0 0 1 4.877-4.921zM11.939 17.9a4.832 4.832 0 0 1-4.762 3.924 4.895 4.895 0 1 1 0-9.789 4.952 4.952 0 0 1 4.553 3.139m3.875 2.514a2.11 2.11 0 0 0 .576 1.046l-2.252.106a6.176 6.176 0 0 0 .208-1.046z" class="cls-3" transform="translate(-.198)"/>
                    <circle id="Elipse_1" cx="1.481" cy="1.481" r="1.481" class="cls-3" transform="translate(5.516 15.566)"/>
                    <circle id="Elipse_2" cx="1.481" cy="1.481" r="1.481" class="cls-3" transform="translate(34.329 15.566)"/>
                </g>
            </g>
            <path id="noun_Death_3393281" d="M41.895 45.422a8.432 8.432 0 0 1 2.605-4.751.478.478 0 0 0-.512-.8 9.923 9.923 0 0 0-4.717 5.551h-.2V31.3a11.3 11.3 0 0 0-22.6 0v14.122h-.2a9.93 9.93 0 0 0-4.717-5.551.478.478 0 0 0-.512.8 8.425 8.425 0 0 1 2.608 4.751H8v2.825h39.546v-2.825zm-18.359-7.768v-1.412a.706.706 0 0 1 .706-.706H31.3a.706.706 0 0 1 .706.706v1.412a.706.706 0 0 1-.706.706h-7.058a.706.706 0 0 1-.706-.706zm-2.825-7.062a.706.706 0 0 1 .706-.706h12.711a.706.706 0 0 1 .706.706V32a.706.706 0 0 1-.706.706H21.417a.706.706 0 0 1-.706-.706z" class="cls-3" transform="translate(1318.454 339.753)"/>
            <g id="noun_Bank_2697802" transform="translate(979.209 398.519)">
                <path id="Trazado_15" d="M359.032 188.911V179.1h-2.007v10.789z" class="cls-3" transform="translate(-281.015 -141.909)"/>
                <path id="Trazado_16" d="M94.585 363.85v.611h5.871v-.611l-.435-.869h-5z" class="cls-3" transform="translate(-42.526 -309.004)"/>
                <path id="Trazado_17" d="M80.547 159.317a1.384 1.384 0 1 0 2.768-.039 1.414 1.414 0 0 0-1.424-1.345H74.8a1.384 1.384 0 0 0-1.381 1.473 1.4 1.4 0 0 0 1.292 1.292 1.384 1.384 0 0 0 1.473-1.382.548.548 0 0 1 .548-.548H80a.548.548 0 0 1 .547.549z" class="cls-3" transform="translate(-23.291 -122.67)"/>
                <path id="Trazado_18" d="M84.383 31.533l-18.3-8.589-18.3 8.589V34.1h36.6zM71.462 29.7h-1.115a4.3 4.3 0 0 1-8.527 0h-1.107a.548.548 0 0 1 0-1.1h1.107a4.3 4.3 0 0 1 8.527 0h1.114a.548.548 0 0 1 0 1.1z" class="cls-3"/>
                <path id="Trazado_19" d="M216.36 55.888a3.2 3.2 0 1 0 3.2 3.2 3.2 3.2 0 0 0-3.2-3.2zm0 4.24a.932.932 0 1 1 .932-.932.932.932 0 0 1-.932.932z" class="cls-3" transform="translate(-150.277 -29.938)"/>
                <path id="Trazado_20" d="M321.819 159.317a1.384 1.384 0 1 0 2.768-.039 1.414 1.414 0 0 0-1.424-1.345h-7.09a1.384 1.384 0 0 0-1.381 1.473 1.4 1.4 0 0 0 1.292 1.292 1.384 1.384 0 0 0 1.473-1.381.548.548 0 0 1 .548-.548h3.266a.548.548 0 0 1 .548.548z" class="cls-3" transform="translate(-242.544 -122.67)"/>
                <path id="Rectángulo_22" d="M0 0H2.008V15.685H0z" class="cls-3" transform="translate(53.99 37.195)"/>
                <path id="Trazado_21" d="M167.568 160.687a2.45 2.45 0 0 1-1.382.422h-.16a2.479 2.479 0 0 1-1.851-3.928h-10.887a2.426 2.426 0 0 1 .485 1.384 2.478 2.478 0 0 1-4.026 2v14.3h.74a.548.548 0 0 1 .49.3l.644 1.288a.548.548 0 0 1 .058.245v.74h11.69V172.9a.547.547 0 0 1 .307-.492l3.892-1.9zm-8.828 13.959a6.2 6.2 0 1 1 6.2-6.2 6.2 6.2 0 0 1-6.201 6.199z" class="cls-3" transform="translate(-92.654 -121.982)"/>
                <path id="Trazado_22" d="M86.347 391.2H64.99v1.948h21.389a4.746 4.746 0 0 1-.032-.527z" class="cls-3" transform="translate(-15.632 -334.649)"/>
                <path id="Trazado_23" d="M311.016 299.143v6.715a4.039 4.039 0 0 0 .1.842.544.544 0 0 1 .052.219 6.091 6.091 0 0 0 .37 1.021 5.531 5.531 0 0 0 1.754 2.213l4.717 3.214 4.717-3.214a5.914 5.914 0 0 0 2.274-4.295v-6.7l-6.991-3.43zm10.572 3.045a.548.548 0 0 1-.01.774l-4.1 4a.548.548 0 0 1-.765 0l-2.277-2.221a.548.548 0 1 1 .765-.784l1.895 1.848 3.72-3.628a.548.548 0 0 1 .774.01z" class="cls-3" transform="translate(-239.206 -247.885)"/>
                <path id="Trazado_24" d="M246.647 90.351a.163.163 0 1 0 .163.163.163.163 0 0 0-.163-.163z" class="cls-3" transform="translate(-180.563 -61.255)"/>
                <path id="Trazado_25" d="M197.439 224.7a5.106 5.106 0 1 0 5.106 5.106 5.106 5.106 0 0 0-5.106-5.106zm0 4.529a1.832 1.832 0 0 1 .548 3.581v.3a.548.548 0 0 1-1.1 0v-.3a1.836 1.836 0 0 1-1.285-1.749.548.548 0 1 1 1.1 0 .738.738 0 0 0 .728.737h.019a.737.737 0 0 0-.01-1.474 1.832 1.832 0 0 1-.548-3.581v-.243a.548.548 0 1 1 1.1 0v.242a1.836 1.836 0 0 1 1.285 1.749.548.548 0 0 1-1.1 0 .737.737 0 1 0-.737.737z" class="cls-3" transform="translate(-131.354 -183.344)"/>
            </g>
            <g id="noun_data_security_3315532" transform="translate(1100.5 420.095)">
                <g id="Grupo_4" transform="translate(21.929 19.756)">
                    <g id="Grupo_3">
                        <path id="Trazado_26" d="M49.267 35.865h-4.494a5.985 5.985 0 0 1-3.853 3.656c.432 5.688 3.248 7.593 6.1 10.069 2.955-2.562 5.674-4.411 6.1-10.069a6.007 6.007 0 0 1-3.853-3.656zm-1.451 6.683l.174 2.273h-1.743l.174-2.273a1.181 1.181 0 1 1 1.395 0z" class="cls-3" transform="translate(-38.737 -33.739)"/>
                        <path id="Trazado_27" d="M53.33 36.034a3.822 3.822 0 0 1-3.949-3.668.278.278 0 0 0-.281-.281h-7.549a.278.278 0 0 0-.281.281 3.822 3.822 0 0 1-3.949 3.668.279.279 0 0 0-.281.281c0 6.457 2.453 9.686 6.7 13.078l1.412 1.125a.277.277 0 0 0 .349 0l1.412-1.125c4.241-3.392 6.7-6.621 6.7-13.078a.279.279 0 0 0-.283-.281zM45.5 48.516a.277.277 0 0 1-.349 0c-3.179-2.752-6.117-4.657-6.508-10.834a.291.291 0 0 1 .208-.293 5.424 5.424 0 0 0 3.757-3.544.277.277 0 0 1 .264-.2h4.9a.284.284 0 0 1 .27.2 5.424 5.424 0 0 0 3.758 3.544.28.28 0 0 1 .2.293c-.384 6.095-3.249 8.018-6.5 10.834z" class="cls-3" transform="translate(-37.04 -32.085)"/>
                    </g>
                </g>
                <path id="Trazado_28" d="M46.244 6.12H42.47V5.8a1.887 1.887 0 0 1 3.774 0v.32z" class="cls-3" transform="translate(-17.487 -.004)"/>
                <path id="Trazado_29" d="M12.579 3.9a2.246 2.246 0 0 0-2.239 2.249v19.682h14.529c-.051-.585-.073-1.2-.073-1.845a.843.843 0 0 1 .844-.844 3.53 3.53 0 0 0 2.205-.754V5.795a2.514 2.514 0 0 1 .894-1.89h-16.16zm1.266 4.252h10.5a.278.278 0 0 1 .281.281.282.282 0 0 1-.281.281h-10.5a.282.282 0 0 1-.281-.281.278.278 0 0 1 .28-.276zm5.804 13.438h-6.71a.281.281 0 0 1 0-.562h6.711a.281.281 0 0 1 0 .563zm5.6-2.576h-12.31a.278.278 0 0 1-.281-.281.282.282 0 0 1 .281-.281h12.313a.286.286 0 0 1 .281.281.282.282 0 0 1-.281.281zm0-2.571h-12.31a.282.282 0 0 1-.281-.281.279.279 0 0 1 .281-.281h12.313a.282.282 0 0 1 .281.281.286.286 0 0 1-.281.281zm0-2.576h-12.31a.281.281 0 0 1 0-.562h12.313a.281.281 0 0 1 0 .563zm0-2.576h-12.31a.279.279 0 0 1-.281-.281.282.282 0 0 1 .281-.281h12.313a.286.286 0 0 1 .281.281.282.282 0 0 1-.281.281z" class="cls-3" transform="translate(-3.43)"/>
                <g id="Grupo_5" transform="translate(13.761 32.699)">
                    <path id="Trazado_30" d="M33.882 58.757v1.682a.279.279 0 0 1-.281.281H22.8a.279.279 0 0 1-.281-.281v-1.682a.725.725 0 0 1 .191-.546 1.155 1.155 0 0 1 .883-.2h1.226l.3-2.919h6.159l.3 2.919H32.8a1.127 1.127 0 0 1 .883.2.727.727 0 0 1 .199.546z" class="cls-3" transform="translate(-22.52 -55.095)"/>
                </g>
                <g id="Grupo_6" transform="translate(2.5 6.678)">
                    <path id="Trazado_31" d="M21.918 30.919H4.756L4.75 11.1h1.6V8.835H4.756A2.26 2.26 0 0 0 2.5 11.1v20.927a2.265 2.265 0 0 0 2.256 2.267H23.3a12.659 12.659 0 0 1-1.382-3.375zm-2.644 2.042a.571.571 0 1 1 .574-.574.568.568 0 0 1-.574.574zM34.118 8.835h-9.14V11.1h9.141l.006 10.266a.841.841 0 0 1 .709.832 3.052 3.052 0 0 0 1.547 2.6V11.1a2.261 2.261 0 0 0-2.263-2.265z" class="cls-3" transform="translate(-2.5 -8.835)"/>
                </g>
            </g>
            <g id="Grupo_7" transform="translate(1176 424)">
                <g id="Grupo_7-2">
                    <path id="Trazado_32" d="M37.367 40a1.367 1.367 0 1 0 1.367 1.367A1.366 1.366 0 0 0 37.367 40" class="cls-4" transform="translate(-11.4 -12.667)"/>
                    <path id="Trazado_33" d="M12.367 34a1.367 1.367 0 1 0 1.367 1.367A1.366 1.366 0 0 0 12.367 34" class="cls-4" transform="translate(-3.483 -10.767)"/>
                    <path id="Trazado_34" d="M11.367 18.15h5.927a1.367 1.367 0 0 0 1.315-1.742l-.976-3.416A1.372 1.372 0 0 0 16.318 12h-4.951A1.368 1.368 0 0 0 10 13.367v3.417a1.368 1.368 0 0 0 1.367 1.367" class="cls-4" transform="translate(-3.167 -3.8)"/>
                    <path id="Trazado_35" d="M32.425 5.884a.212.212 0 0 0 .016-.019 3.423 3.423 0 0 0 .462-.545c.005-.008.008-.017.014-.025a3.406 3.406 0 0 0 .311-.591c.005-.012.014-.023.019-.036l4.39 6.266h-2.386zM20.806 18.45h-.271l-.714-3.192 7.308-10.11c.011.018.027.034.038.053a3.414 3.414 0 0 0 .232.325c.059.075.117.15.182.22s.149.146.227.215a3.443 3.443 0 0 0 .273.225c.074.054.153.1.232.148a3.337 3.337 0 0 0 .333.181c.085.039.172.07.26.1s.144.065.221.087zm5.161 13.667a3.415 3.415 0 1 1 .538-6.779 3.4 3.4 0 0 1 2.751 2.792l.1.57h.028a3.421 3.421 0 0 1-3.417 3.417zm-8.235-6.833c.018-.226.035-.453.035-.683s-.017-.457-.035-.683h3.452a.683.683 0 0 1 0 1.367zm-12.948-8.56V8.2a1.37 1.37 0 0 1 1.368-1.366h9.289A1.359 1.359 0 0 1 16.775 7.9l1.645 7.353.715 3.193H15.28l-.007-.007c-.031-.033-.06-.069-.092-.1-.007-.007-.009-.016-.016-.023s-.016-.009-.023-.015a8.8 8.8 0 0 0-7.257-2.526c-.1.011-.2.031-.3.045-.231.034-.461.074-.685.126-.108.025-.214.054-.321.083q-.335.09-.66.206c-.092.033-.184.065-.275.1-.262.1-.517.219-.767.345-.031.016-.064.027-.094.042zm12.3 4.459h2.735a.683.683 0 1 1 0 1.367h-2.3a8.8 8.8 0 0 0-.437-1.367zm-.743 4.334c-.027.223-.061.446-.109.666-.006.028-.015.055-.022.083-.054.234-.116.466-.193.695 0 .016-.012.031-.017.047q-.121.354-.277.7a7.551 7.551 0 0 1-1.063 1.7L12.749 27.5a.683.683 0 1 0-.966.966l1.907 1.907a7.485 7.485 0 0 1-4.123 1.709v-2.7a.683.683 0 1 0-1.367 0v2.7a7.483 7.483 0 0 1-4.123-1.709l1.907-1.907a.683.683 0 1 0-.966-.966l-1.907 1.906A7.477 7.477 0 0 1 1.4 25.284h2.7a.683.683 0 0 0 0-1.367H1.4a7.479 7.479 0 0 1 1.71-4.123L5.018 21.7a.683.683 0 1 0 .966-.966l-1.907-1.906c.147-.123.3-.236.459-.348.122-.087.246-.168.372-.247.06-.038.12-.074.182-.111.118-.07.238-.137.359-.2.083-.042.167-.081.251-.121l.327-.15c.189-.078.381-.15.577-.212.074-.024.149-.042.223-.063.145-.042.292-.081.44-.113.081-.018.162-.033.243-.048.154-.029.308-.053.465-.071.072-.009.145-.019.218-.026H8.2v2.7a.683.683 0 1 0 1.367 0v-2.7c.035 0 .071 0 .106.005l.036.006a7.489 7.489 0 0 1 2.226.605l.023.011q.34.154.664.34l.052.031q.305.18.6.388l.069.052c.118.087.229.184.342.277l-1.9 1.9a.683.683 0 1 0 .966.966l1.9-1.9c.077.091.154.181.226.275l.073.1q.166.227.314.465l.077.126q.137.23.258.468c.027.053.052.107.077.16.072.152.141.306.2.463.027.066.05.135.074.2.053.148.1.3.149.446.025.087.046.176.068.265.035.135.069.271.1.409.023.122.039.246.056.37s.036.218.046.328v.04h-2.7a.683.683 0 1 0 0 1.367h2.7c0 .036 0 .073-.006.109s-.014.083-.019.124zm23.976-14.583h-1.011L33.3 2.361a3.407 3.407 0 0 0-6.65 1.056c0 .018 0 .034.005.052l-7.233 10.008-1.313-5.872a2.717 2.717 0 0 0-2.668-2.138H6.152A2.738 2.738 0 0 0 3.417 8.2v9.411a8.852 8.852 0 0 0-.791.691c-.008.006-.016.008-.024.015s-.009.016-.015.023a8.865 8.865 0 0 0 0 12.517c.006.007.008.016.015.023s.016.009.024.016a8.864 8.864 0 0 0 12.516 0c.007-.007.016-.009.023-.016s.009-.016.016-.023a8.938 8.938 0 0 0 1.575-2.157h4.427a4.783 4.783 0 1 0 9.567 0h.682a1.664 1.664 0 0 0 1.5-.927l2.446-6.944a1.673 1.673 0 0 0-1.518-2.379H22.481l8.282-11.689a3.442 3.442 0 0 0 .5-.155l2.422 4.328h-1.568a.683.683 0 0 0-.628.952L32.1 13.3a6.986 6.986 0 0 0 5.64 4.185l1.8.2a2.046 2.046 0 0 1-1.95 1.449.683.683 0 1 0 0 1.367A3.421 3.421 0 0 0 41 17.084v-5.467a.683.683 0 0 0-.683-.683z" class="cls-4"/>
                </g>
            </g>
            <g id="noun_transport_1610290" transform="translate(1248 424.789)">
                <circle id="Elipse_3" cx=".734" cy=".734" r=".734" class="cls-3" transform="translate(33.414 19.002)"/>
                <path id="Trazado_36" d="M2.96 21h26.025a2.928 2.928 0 0 1 2.96 2.895v4.082h9.425a2.717 2.717 0 0 1 2.2 1.353l2.73 5.313a7.459 7.459 0 0 1 .7 2.88v8.019a1.515 1.515 0 0 1-1.5 1.528h-1.824c.009.122.019.243.019.367a4.773 4.773 0 1 1-9.547 0c0-.124.009-.246.019-.367h-20.6c.009.122.019.243.019.367a4.773 4.773 0 1 1-9.547 0c0-.124.009-.246.019-.367H0V23.895A2.928 2.928 0 0 1 2.96 21zM38 29.445h-3.115l.022 5.868a.762.762 0 0 0 .777.741L38 36.048zm7 5.87L42.262 30a1.31 1.31 0 0 0-.892-.557h-1.9v6.6l5.8-.015a4.363 4.363 0 0 0-.27-.713zm-6.078 15.427a3.3 3.3 0 1 0-3.305-3.3 3.3 3.3 0 0 0 3.305 3.3zM31.945 45.6h2.57a4.774 4.774 0 0 1 8.813 0H45.5c.006 0 .033-.015.033-.059v-3.98h-8.447a.734.734 0 0 1 0-1.469h8.445v-2.57-.025l-9.84.025h-.006a2.233 2.233 0 0 1-2.245-2.2l-.022-5.874h-1.473zm-1.469-8.078v-1.468h-6.609V22.469H22.4v13.585h-6.611V22.469H14.32v13.585H8.445a.734.734 0 0 0 0 1.469zM8.813 50.742a3.3 3.3 0 1 0-3.305-3.3 3.3 3.3 0 0 0 3.305 3.3zM5.508 37.523a.734.734 0 1 0-.734-.734.734.734 0 0 0 .734.734zm-4.039 0h1.1a.734.734 0 0 0 0-1.469h-1.1z" class="cls-3" transform="translate(0 -21)"/>
            </g>
            <g id="noun_Agriculture_4221" transform="translate(1329 419)">
                <path id="Trazado_37" d="M14.434 88.579l-.543-5.466c0-.5.641-.058 1.449-.058.8 0 1.45-.445 1.45.058l-.454 5.33c0 1.165-1.902.691-1.902.136z" class="cls-3" transform="translate(-8.335 -49.725)"/>
                <path id="Trazado_38" d="M3.772 45.7C-.209 43.905.115 41.072.115 41.072c-.5 1 .566 9.724 4.716 9.724 1.856.004 3.416-3.081-1.059-5.096z" class="cls-3" transform="translate(0 -24.643)"/>
                <path id="Trazado_39" d="M3.772 30.3C-.209 28.509.115 25.676.115 25.676c-.5 1 .566 9.724 4.716 9.724 1.856 0 3.416-3.081-1.059-5.1z" class="cls-3" transform="translate(0 -15.406)"/>
                <path id="Trazado_40" d="M3.772 15.36C-.209 13.573.115 10.735.115 10.735c-.5 1 .566 9.718 4.716 9.718 1.856 0 3.416-3.072-1.059-5.093z" class="cls-3" transform="translate(0 -6.441)"/>
                <path id="Trazado_41" d="M20.456 50.8c4.15 0 5.213-8.724 4.716-9.724 0 0 .322 2.833-3.662 4.633-4.471 2.006-2.916 5.091-1.054 5.091z" class="cls-3" transform="translate(-11.163 -24.643)"/>
                <path id="Trazado_42" d="M3.772 61.485C-.209 59.686.115 56.853.115 56.853c-.5 1 .566 9.724 4.716 9.724 1.856 0 3.416-3.077-1.059-5.092z" class="cls-3" transform="translate(0 -34.112)"/>
                <path id="Trazado_43" d="M20.456 66.577c4.15 0 5.213-8.724 4.716-9.724 0 0 .322 2.833-3.662 4.632-4.471 2.015-2.916 5.092-1.054 5.092z" class="cls-3" transform="translate(-11.163 -34.112)"/>
                <path id="Trazado_44" d="M20.456 35.4c4.15 0 5.213-8.726 4.716-9.724 0 0 .322 2.833-3.662 4.627-4.471 2.016-2.916 5.097-1.054 5.097z" class="cls-3" transform="translate(-11.163 -15.406)"/>
                <path id="Trazado_45" d="M20.456 20.453c4.15 0 5.213-8.718 4.716-9.718 0 0 .322 2.838-3.662 4.625-4.471 2.021-2.916 5.093-1.054 5.093z" class="cls-3" transform="translate(-11.163 -6.441)"/>
                <path id="Trazado_46" d="M15.138 9.385C19.54 9.385 14.9 0 14.9 0c-.564.883-4.163 9.385.238 9.385z" class="cls-3" transform="translate(-7.788)"/>
                <path id="Trazado_47" d="M45.421 89.937l2.656-4.648c.211-.448-.562-.325-1.288-.658-.737-.342-1.13-1.016-1.34-.56l-1.811 5.182c-.232.507 1.29 1.736 1.783.684z" class="cls-3" transform="translate(-26.169 -50.35)"/>
                <path id="Trazado_48" d="M52.445 45.857c-2.847-3.31-1.364-5.742-1.364-5.742-.876.7-3.579 9.06.18 10.807 1.684.784 4.398-1.352 1.184-5.065z" class="cls-3" transform="translate(-29.592 -24.069)"/>
                <path id="Trazado_49" d="M58.934 31.885c-2.849-3.3-1.367-5.734-1.367-5.734-.878.693-3.585 9.054.177 10.807 1.69.781 4.398-1.349 1.19-5.073z" class="cls-3" transform="translate(-33.481 -15.691)"/>
                <path id="Trazado_50" d="M65.235 18.336c-2.857-3.3-1.367-5.739-1.367-5.739-.875.7-3.58 9.054.182 10.807 1.685.779 4.395-1.349 1.185-5.068z" class="cls-3" transform="translate(-37.264 -7.558)"/>
                <path id="Trazado_51" d="M62.716 61.592c3.762 1.742 8.406-5.713 8.369-6.836 0 0-.9 2.706-5.271 2.656-4.901-.052-4.786 3.388-3.098 4.18z" class="cls-3" transform="translate(-36.997 -32.854)"/>
                <path id="Trazado_52" d="M45.8 60.175c-2.853-3.308-1.37-5.737-1.37-5.737-.875.692-3.579 9.054.182 10.8 1.688.78 4.395-1.35 1.188-5.063z" class="cls-3" transform="translate(-25.601 -32.663)"/>
                <path id="Trazado_53" d="M56.07 75.9c3.76 1.75 8.4-5.713 8.372-6.83 0 0-.9 2.706-5.271 2.656-4.902-.056-4.785 3.389-3.101 4.174z" class="cls-3" transform="translate(-33.011 -41.44)"/>
                <path id="Trazado_54" d="M69.211 47.619c3.76 1.747 8.4-5.718 8.369-6.833 0 0-.9 2.7-5.27 2.656-4.91-.052-4.787 3.398-3.099 4.177z" class="cls-3" transform="translate(-40.893 -24.472)"/>
                <path id="Trazado_55" d="M75.508 34.06c3.763 1.752 8.4-5.708 8.367-6.828 0 0-.9 2.713-5.268 2.656-4.907-.052-4.783 3.393-3.099 4.172z" class="cls-3" transform="translate(-44.673 -16.339)"/>
                <path id="Trazado_56" d="M75.691 18.841c3.99 1.854 3.734-8.614 3.734-8.614-.879.573-7.725 6.76-3.734 8.614z" class="cls-3" transform="translate(-44.672 -6.136)"/>
            </g>
            <path id="noun_single-lens_reflex_camera_1502156" d="M30 12h-2.382l-1.5-3 1.776-3.552v-.026A.984.984 0 0 0 28 5V1a1 1 0 0 0-1-1H15a1 1 0 0 0-1 1v4a.984.984 0 0 0 .1.422v.026L15.882 9l-1.5 3H10v-1a1 1 0 0 0-1-1H5a1 1 0 0 0-1 1v1H2a2 2 0 0 0-2 2v16a2 2 0 0 0 2 2h28a2 2 0 0 0 2-2V14a2 2 0 0 0-2-2zM7 22a3 3 0 1 1 3-3 3 3 0 0 1-3 3zm9-20h10v2H16zm5 26a7 7 0 1 1 7-7 7 7 0 0 1-7 7z" class="cls-3" transform="translate(1405 423)"/>
            <g id="noun_Earthquake_186735" transform="translate(1021 466.287)">
                <path id="Trazado_57" d="M51.083 52.583l2.167 1.083L50 60.167l3.25 2.167-1.43 4.333h16.6V45H52.6zm9.75-3.25h4.333v4.333h-4.333zm0 8.667h4.333v4.333h-4.333zm-6.5-8.667h4.333v4.333h-4.333zm0 8.667h4.333v4.333h-4.333z" class="cls-3" transform="translate(-25.5 -8.953)"/>
                <path id="Trazado_58" d="M26.853 51.507L24.6 50.6l1.04-8.8L7.7 43.273l1.733 21.58 17.767-1.43.347-3.293-3.423-1.907zM11.3 47.3l4.333-.347.347 4.333-4.333.347zm1.04 12.957l-.347-4.333 4.333-.347.347 4.333zm5.417-13.477l4.333-.347.347 4.333-4.333.347zm1.04 12.957l-.347-4.333 4.333-.347.347 4.333z" class="cls-3" transform="translate(-1.53 -7.14)"/>
                <path id="Trazado_59" d="M56.367 32.5l-.867 4.333h17.117L68.283 32.5z" class="cls-3" transform="translate(-28.617 -1.87)"/>
                <path id="Trazado_60" d="M24.717 29.2l-15.73 1.257L5 35.137l19.24-1.56z" class="cls-3"/>
            </g>
            <g id="noun_business_goal_1073954" transform="translate(1405 356)">
                <path id="Trazado_61" d="M11.056 11.075a3.734 3.734 0 1 1 3.734 3.734 3.734 3.734 0 0 1-3.734-3.734zM37.619 6.4a15.963 15.963 0 0 0-3.292-3.219A8.193 8.193 0 0 1 36.7.38c-3.747-1.771-6.447 3.325-10.194 1.554l.918 6.024c3.748 1.771 6.448-3.326 10.195-1.558zM48 47.991L0 48c3.763-2.6 7.788-5.261 11.677-7.61a1.662 1.662 0 0 1-.589-1.267V20.971a2.744 2.744 0 0 0-1.006-1.8L6.2 15.475C5.734 15 3.23 9.85 3.23 9.85A1.373 1.373 0 0 1 5.673 8.6l2.594 5.051 1.938 1.848c.777.736 1.588.122 3.334 0l1.12 1.579-1.129 7.9 1.26 1.47 1.26-1.47-1.128-7.9 1.12-1.579a10.923 10.923 0 0 1 4.334 1.379c.5.372 3.079 3.9 3.079 3.9l3.474-.165-2.723-17.861a.786.786 0 0 1 1.553-.237l2.747 18.019a1.372 1.372 0 0 1 .41 2.693l1.258 8.252a.786.786 0 0 1-1.554.237l-1.277-8.379-4.543.213a1.349 1.349 0 0 1-1.088-.536l-2.349-3.046c-.569-.041-.874.6-.874.873v7.505l2.049 7.2C24 33.909 27 32.9 29.117 32.9c5.439 0 15.163 5.7 18.883 8.646zM17.523 37.06L15.1 29.35h-.614v9.388q1.547-.887 3.037-1.678z" class="cls-3"/>
            </g>
            <g id="noun_Tow_Truck_580430" transform="translate(1244 496.391)">
                <path id="Trazado_49-2" d="M1.955 18.551a2.263 2.263 0 0 1 1.464-.328h.133v-.009h1.162v.009c.044 0 .089-.009.142-.009 2.04 0 4.072 0 6.1.125a1.05 1.05 0 0 1 .515.2 2.049 2.049 0 0 1 .63.674c.754 1.5 1.393 3.043 2.085 4.569a7.34 7.34 0 0 0 3.939 4.187 1.569 1.569 0 0 1 .993 1.464v1.349l-2.431.036.009.666a1.354 1.354 0 0 0 1.472 1.188l.949-.009v6.795a1.288 1.288 0 0 1-1.286 1.286H15.28v.009a3.89 3.89 0 0 1-7.78-.009H1.512V19.9a1.757 1.757 0 0 1 .443-1.349zM9.6 40.745a1.783 1.783 0 0 0 3.565.035v-.036a1.765 1.765 0 0 0-1.756-1.774A1.744 1.744 0 0 0 9.6 40.726zM5.122 26.694h8.924c-.666-1.606-1.322-3.167-1.969-4.71-.222-.524-.443-1.029-.656-1.544 0-.017-.017-.036-.036-.053a.118.118 0 0 0-.044-.062.612.612 0 0 0-.382-.231c-1.943-.036-3.877-.017-5.837-.017z" class="cls-3" transform="translate(36.709 -17.032)"/>
                <path id="Trazado_50-2" d="M22.738 34.208a1.238 1.238 0 0 1 .541-.115h7.5a1.568 1.568 0 0 1 .284.027l23.837-.027v7.992h-8.086v.009a3.895 3.895 0 0 1-7.789-.009h-3.788v.009a3.89 3.89 0 0 1-7.78-.009h-4.178a1.27 1.27 0 0 1-1.26-1.038 1.12 1.12 0 0 1-.027-.24v-5.438a1.276 1.276 0 0 1 .746-1.161zm18.4 7.877a1.726 1.726 0 0 0 1.748 1.783A1.757 1.757 0 0 0 44.7 42.12v-.036a1.766 1.766 0 0 0-1.765-1.774 1.738 1.738 0 0 0-1.8 1.756zm-9.82 1.784a1.757 1.757 0 0 0 1.818-1.748v-.036a1.787 1.787 0 0 0-3.575-.018v.017a1.739 1.739 0 0 0 1.756 1.785z" class="cls-3" transform="translate(-17.818 -18.372)"/>
                <path id="Trazado_51-2" d="M22.027 30.08l.027-.027a.29.29 0 0 1 .159-.036.351.351 0 0 1 .106.017.2.2 0 0 0 .044.027.747.747 0 0 1 .275.248c.125.168.24.355.346.532l.053.089c.027.036.044.08.071.115s.053.089.071.125a.645.645 0 0 0 .559.337h.044a.532.532 0 0 0 .488-.363.847.847 0 0 0-.133-.719 2.884 2.884 0 0 0-.816-.789l-.044-.036c-.027-.027-.062-.053-.089-.08a.634.634 0 0 1-.293-.52.683.683 0 0 0-.089-.337.065.065 0 0 1-.009-.036.972.972 0 0 1-.186-1.224 1.044 1.044 0 0 1 .222-.266l.08-.053v-8.652l-.027-.017v-.435a.649.649 0 0 1-.009-.133c0-1.162 1.038-.94 1.8-.834l16.368 2.2.426-.577h17.6v13.13h-26.63v-.923L37.506 24l-11.594-4.388-1.934-.763v8.206a.119.119 0 0 1 .053.044l.027.027a1 1 0 0 1 .248 1.277 1.149 1.149 0 0 1-.284.3l-.022.054h-.009a.275.275 0 0 0-.053.2.454.454 0 0 0 .231.266l.031-.023.027.036c.009.009.027.009.044.027.062.036.142.08.231.125l.106.053c.036.027.08.044.115.071a2.237 2.237 0 0 1 .293.2 1.684 1.684 0 0 1 .133 2.439 1.574 1.574 0 0 1-1.233.621 1.532 1.532 0 0 1-.39-.044 1.861 1.861 0 0 1-.417-.159 1.671 1.671 0 0 1-.736-1.038 1.735 1.735 0 0 0-.062-.2c-.017-.044-.036-.1-.053-.151-.027-.115-.062-.222-.1-.337-.053-.168-.1-.337-.151-.505a.371.371 0 0 1 .02-.258zm35.74.515v-1.943h-.009l-1.544 2zm-3.016-.027l3.016-3.868v-1.26l-1.038.027-4.019 5.164zm-3.531 0l4.019-5.163-2.032.062-4.019 5.163zm-3.69 0l4.019-5.163-2.04.062-4.019 5.164zm-3.691 0l4.009-5.163-2.032.062-4.016 5.164zm-3.7 0l4.019-5.163-2.032.062-4.019 5.163zm-5.73.062l2.04-.062 4.019-5.163-2.04.062z" class="cls-3" transform="translate(-21.994 -16.923)"/>
            </g>
        </g>
    </g>
</svg>
