<svg xmlns="http://www.w3.org/2000/svg" width="90.531" height="47.124" viewBox="0 0 90.531 47.124">
    <defs>
        <style>
            .cls-2{fill:#003b61}.cls-3,.cls-5{fill:none}.cls-3{stroke:#fed198}.cls-4{stroke:none}
        </style>
    </defs>
    <g id="Grupo_470" transform="translate(-247 -4357.876)">
        <path id="Trazado_70" fill="#ccfeff" d="M228.272 114.935c-9.365 2.421-18.038 1.505-28.728-2.182-8.621-2.976-15.888-2.917-23.1 2.949-.036-.059 2.634 2.613 2.589 2.592 11.052-8.988 22.462.813 34.271 2.031A40.284 40.284 0 0 0 228.273 119v3.27c-9.365 2.423-18.038 1.506-28.728-2.18-8.621-2.976-15.888-2.917-23.1 2.949a31.178 31.178 0 0 1 2.589 2.592c11.052-8.989 22.462.813 34.271 2.031a40.3 40.3 0 0 0 14.966-1.325v3.27c-9.365 2.423-18.038 1.505-28.728-2.18-8.621-2.976-15.888-2.918-23.1 2.949a20.415 20.415 0 0 0 2.589 2.592c11.052-8.989 22.462.813 34.271 2.031a40.324 40.324 0 0 0 14.966-1.326v5.078h26.078V103.5h-26.08zm3.462 2.992c.956-.328 1.906-.674 2.856-1.055v3.311c-.963.388-1.909.7-2.856 1.019zm0 7.335c.956-.329 1.906-.676 2.856-1.056v3.312c-.963.387-1.909.7-2.856 1.017zm0 7.337c.956-.329 1.906-.676 2.856-1.056v1.605h13.448V109.1H234.59v3.754c-.963.387-1.909.7-2.856 1.018v-6.908h19.156v28.324h-19.156V132.6z" transform="translate(83.179 4254.375)"/>
        <g id="Grupo_73" transform="translate(277.008 4157.762)">
            <g id="Grupo_11" transform="translate(44.133 218.778)">
                <path id="Trazado_11" d="M-13.05-13.133h-3.031v-3.03a.019.019 0 0 1 .019-.019h.755a.019.019 0 0 1 .019.019v2.218a.019.019 0 0 0 .019.019h2.218a.019.019 0 0 1 .019.019v.755a.019.019 0 0 1-.019.019" class="cls-2" transform="translate(16.081 16.183)"/>
            </g>
            <g id="Grupo_12" transform="translate(44.314 214.681)">
                <path id="Trazado_12" d="M-28.284-29.848a.129.129 0 0 1-.182 0l-6.348-6.352a.129.129 0 0 1 0-.182l.363-.363a.129.129 0 0 1 .182 0l6.349 6.349a.129.129 0 0 1 0 .182z" class="cls-2" transform="translate(34.852 36.78)"/>
            </g>
            <g id="Grupo_13" transform="translate(45.324 213.667)">
                <path id="Trazado_13" d="M-28.284-29.848a.129.129 0 0 1-.182 0l-6.348-6.352a.129.129 0 0 1 0-.182l.363-.363a.129.129 0 0 1 .182 0l6.349 6.349a.129.129 0 0 1 0 .182z" class="cls-2" transform="translate(34.852 36.78)"/>
            </g>
            <g id="Grupo_14" transform="translate(43.304 215.687)">
                <path id="Trazado_14" d="M-28.284-29.848a.129.129 0 0 1-.182 0l-6.348-6.352a.129.129 0 0 1 0-.182l.363-.363a.129.129 0 0 1 .182 0l6.349 6.349a.129.129 0 0 1 0 .182z" class="cls-2" transform="translate(34.852 36.78)"/>
            </g>
            <g id="Grupo_15" transform="translate(48.408 214.503)">
                <path id="Trazado_15" d="M-.083 0h3.031v3.031a.019.019 0 0 1-.019.019h-.756a.019.019 0 0 1-.019-.019V.813a.019.019 0 0 0-.019-.019H-.083A.019.019 0 0 1-.1.774V.019A.019.019 0 0 1-.083 0" class="cls-2" transform="translate(.102)"/>
            </g>
        </g>
        <g id="Grupo_74" transform="translate(5 71)">
            <g id="Elipse_4" class="cls-3" transform="translate(242 4294)">
                <circle cx="20" cy="20" r="20" class="cls-4"/>
                <circle cx="20" cy="20" r="19.5" class="cls-5"/>
            </g>
            <g id="Elipse_5" class="cls-3" transform="translate(249 4301)">
                <circle cx="13" cy="13" r="13" class="cls-4"/>
                <circle cx="13" cy="13" r="12.5" class="cls-5"/>
            </g>
        </g>
    </g>
</svg>
