<svg xmlns="http://www.w3.org/2000/svg" id="Capa_2" width="104.268" height="58.588" viewBox="0 0 104.268 58.588">
    <defs>
        <style>
            .cls-1{fill:#0b4269}
        </style>
    </defs>
    <g id="Capa_1">
        <path id="Trazado_13" d="M70.161 8.807a15.237 15.237 0 0 0-4.461 2.162l.259 1.4S51.542 2.55 37.861 17.1a16.934 16.934 0 0 1-17.1-6S20.657 8.17 3.68 8.645l1.275 1.308c-2.421.259-1.729 2.421 2.431 2.421 0 0 8.807 9.953 15.442 9.315l9.572 4.722c1.653 2.68 4.215 5.49 4.323 8.807-1.016.13-2.042.378-3.318.638a17.063 17.063 0 1 0-.638 12.633l4.085 3.242s29.977.13 31.641-.767c-2.161-6.127-2.55-11.736 2.81-15.95a17.193 17.193 0 1 0 15.565-10.807c1.145-.767 2.042-1.275 2.042-1.275l-1.394-1.243s3.826-.9 2.939-2.81S80.5 5.911 80.5 5.911A4.755 4.755 0 0 0 78.871 0L77.3 3.447C73.09.638 69.74.389 66.077 3.955a4.409 4.409 0 0 0 1.016 3.058M87.257 29.34a11.887 11.887 0 1 1-11.887 12 11.887 11.887 0 0 1 11.887-12zm-58.442 14.3A11.779 11.779 0 0 1 17.21 53.2a11.93 11.93 0 1 1 0-23.861 12.071 12.071 0 0 1 11.1 7.651m9.445 6.127a5.144 5.144 0 0 0 1.4 2.55l-5.49.259a15.053 15.053 0 0 0 .508-2.55z" class="cls-1" transform="translate(-.198)"/>
        <circle id="Elipse_1" cx="3.609" cy="3.609" r="3.609" class="cls-1" transform="translate(13.445 37.942)"/>
        <circle id="Elipse_2" cx="3.609" cy="3.609" r="3.609" class="cls-1" transform="translate(83.677 37.942)"/>
    </g>
</svg>
