<svg xmlns="http://www.w3.org/2000/svg" id="Capa_2" width="85.04" height="25.15" viewBox="0 0 85.04 25.15">
    <defs>
        <style>
            .cls-1{fill:#095540}
        </style>
    </defs>
    <g id="Capa_1">
        <path id="Trazado_282" d="M33.7 12.23a3.41 3.41 0 0 0 1.75-3.06c0-1.84-.82-4-4.73-4h-4.8V20.2h4.94c4.2 0 5.08-2.33 5.08-4.29a3.72 3.72 0 0 0-2.24-3.68m-2.62-.6h-3.59v-5h3.43c2.51 0 2.84 1.37 2.84 2.56 0 1.63-.9 2.46-2.68 2.46m3.17 4.29c0 1.21-.33 2.82-3.21 2.82h-3.55V13.1h3.59c2.28 0 3.17.79 3.17 2.82" class="cls-1"/>
        <path id="Trazado_283" d="M41.57 9.88c-3.83 0-4.27 3-4.27 5.26s.44 5.26 4.27 5.26a8 8 0 0 0 3.31-.6h.07v-1.46l-.16.07a7.43 7.43 0 0 1-3.22.54c-2.16 0-2.57-1.53-2.65-3.06h6.53v-.75c0-2.66-.3-5.26-3.87-5.26m-2.65 4.65c.07-1.68.47-3.2 2.65-3.2s2.26 1.38 2.26 3.2z" class="cls-1"/>
        <path id="Trazado_284" d="M83.21 10.08l-2.69 7.88-2.69-7.88H76l3.8 9.75-2.28 5.32h1.73l5.79-15.07z" class="cls-1"/>
        <path id="Trazado_285" d="M65.17 18.27V5.13H63.6v13a2 2 0 0 0 2.29 2.29H66V19h-.11c-.56 0-.72-.17-.72-.78" class="cls-1"/>
        <path id="Trazado_286" d="M71.71 9.88c-3.83 0-4.27 3-4.27 5.26s.44 5.26 4.27 5.26a8 8 0 0 0 3.29-.6h.07v-1.46l-.16.07a7.43 7.43 0 0 1-3.22.54c-2.16 0-2.57-1.53-2.65-3.06h6.53v-.75c0-2.66-.3-5.26-3.87-5.26m-2.65 4.65c.07-1.68.47-3.2 2.65-3.2s2.3 1.38 2.3 3.2z" class="cls-1"/>
        <path id="Trazado_287" d="M62.26 10.08h-2.19l-4.32 4.28V5.13h-1.57V20.2h1.57v-3.9l1.12-1.07 3.86 4.97h2.02l-4.88-5.92z" class="cls-1"/>
        <path id="Trazado_288" d="M51.56 9.88a5.49 5.49 0 0 0-3.13 1l-.27-.76h-1V20.2h1.64v-8.28a5.38 5.38 0 0 1 2.76-.59 3.72 3.72 0 0 1 1.15.15h.15V10h-.1a7.26 7.26 0 0 0-1.21-.1" class="cls-1"/>
        <path id="Rectángulo_140" d="M0 0H0.26V17.92H0z" class="cls-1" transform="translate(20.02 3.69)"/>
        <path id="Trazado_289" d="M7.55 5.18a7.5 7.5 0 0 0-5.1 2V0H0v12.6a7.56 7.56 0 0 0 7.55 7.57 7.42 7.42 0 0 0 7.53-7.4 7.56 7.56 0 0 0-7.53-7.59m0 12.52a5.11 5.11 0 1 1 5.08-5.11 5.11 5.11 0 0 1-5.08 5.11" class="cls-1"/>
        <path id="Trazado_290" d="M11.24 10.19a2.78 2.78 0 0 0-1.35.44c-.29.2-2.33 1.74-2.33 1.74s-2-1.54-2.34-1.74a2.78 2.78 0 0 0-1.36-.44c-.11 0-.13 0-.08.09a.72.72 0 0 1 .31.65v2.71A2.13 2.13 0 0 0 6 15.89h1.17s.24.31.37.31.38-.31.38-.31H9.1a2.13 2.13 0 0 0 1.9-2.25v-2.71a.72.72 0 0 1 .31-.65c.06-.05 0-.1-.08-.09m-5.15 5c-1 0-1.21-1.05-1.21-1.34v-2.42c0-.11 0-.18-.09-.22s-.06-.11 0-.11a.66.66 0 0 1 .51.16.78.78 0 0 1 .32.65v1.73a.52.52 0 0 0 .51.52c.33 0 .51-.36.51-.65s-.17-.58-.33-.59A.52.52 0 0 0 6 13c-.07.06-.11 0-.09-.05s.14-.83.76-.83.82.57.82 1.23-.36 1.76-1.4 1.76M6 13.54a.2.2 0 1 1 .2.2.2.2 0 0 1-.2-.2m4.34-2.32c-.08 0-.09.11-.09.22v2.38c0 .29-.17 1.34-1.21 1.34s-1.4-1-1.4-1.76.35-1.23.82-1.23.74.73.76.83 0 .11-.09.05a.53.53 0 0 0-.32-.12c-.16 0-.33.29-.33.59s.17.65.51.65a.52.52 0 0 0 .51-.52v-1.73a.78.78 0 0 1 .32-.65.66.66 0 0 1 .51-.16c.09 0 .08.09 0 .11m-1.19 2.32a.21.21 0 1 1-.21-.21.21.21 0 0 1 .21.21" class="cls-1"/>
        <path id="Trazado_291" d="M5.33 10.21l2.21 1.64 2.11-1.61z" class="cls-1"/>
    </g>
</svg>
