<svg xmlns="http://www.w3.org/2000/svg" id="Capa_2" width="85" height="16.68" viewBox="0 0 85 16.68">
    <defs>
        <style>
            .cls-1{fill:#004f8b}
        </style>
    </defs>
    <g id="Capa_1">
        <path id="Trazado_146" d="M9.95 11.32C9.78 13 8.7 13.23 7 13.2s-2.65-.13-2.78-1.65c0-1.18.79-1.75 2.32-1.75h3.41zM7.26 0C2.93 0 .77 1.83.75 5.46h3.93c0-1.49 1-1.93 2.58-1.93 1.8 0 2.68.64 2.68 1.94v1.21h-3.3C2.22 6.68 0 8.33 0 11.64s2.16 5 7.1 5 7.1-1.69 7.1-5.12V5.47C14.2 1.81 11.88 0 7.26 0" class="cls-1"/>
        <path id="Trazado_147" d="M25.2 7.09l-3.4-1.3c-1.28-.48-1.67-.73-1.67-1.24 0-.67.62-1 2.62-1s2.51.53 2.52 1.87h3.86C29.11 1.83 27 0 22.81 0 18 0 15.94 1.53 15.94 4.67c0 2.42 1.21 3.47 3.73 4.52l3 1.24a10.45 10.45 0 0 1 2 .92.88.88 0 0 1 .39.73c0 .73-.69 1-2.65 1-2.3 0-2.95-.4-3-1.87h-3.79c0 3.78 2 5.47 6.84 5.47s6.84-1.49 6.84-4.8c0-2.51-1.24-3.72-4.09-4.77" class="cls-1"/>
        <path id="Rectángulo_120" d="M0 0H4.25V15.9H0z" class="cls-1" transform="translate(30.71 .38)"/>
        <path id="Trazado_148" d="M46 7.09l-3.4-1.3c-1.28-.48-1.67-.73-1.67-1.24 0-.67.62-1 2.62-1S46 4.13 46 5.47h3.86C49.88 1.83 47.79 0 43.58 0c-4.84 0-6.87 1.53-6.87 4.67 0 2.42 1.21 3.47 3.73 4.52l3 1.24a10.41 10.41 0 0 1 2 .92.88.88 0 0 1 .39.73c0 .73-.69 1-2.65 1-2.3 0-2.95-.4-3-1.87h-3.8c0 3.78 2 5.46 6.83 5.46s6.84-1.49 6.84-4.8c0-2.51-1.24-3.72-4.09-4.77" class="cls-1"/>
        <path id="Trazado_149" d="M61.42 11.32c-.16 1.72-1.24 1.91-2.91 1.88s-2.65-.13-2.78-1.65c0-1.18.79-1.75 2.32-1.75h3.37zM58.74 0c-4.34 0-6.5 1.83-6.51 5.47h3.93c0-1.5 1-1.94 2.58-1.94 1.8 0 2.68.64 2.68 1.94v1.21h-3.3c-4.42 0-6.64 1.65-6.64 5s2.16 5 7.1 5 7.1-1.69 7.1-5.12V5.47c0-3.66-2.33-5.47-6.94-5.47" class="cls-1"/>
        <path id="Trazado_150" d="M80.48 5.46c-.51-3-1.79-5.1-3.28-5.1h-5.35c1.72 1.06 2.37 3.83 2.37 3.83q.167.628.27 1.27h-4.56v5.74h4.56c-.06.39-.14.76-.23 1.11v.16s-.16.56-.42 1.25a5.53 5.53 0 0 1-1.94 2.57h5.35a2.07 2.07 0 0 0 1.48-.75 8.65 8.65 0 0 0 1.79-4.35H85V5.46z" class="cls-1"/>
    </g>
</svg>
