<svg xmlns="http://www.w3.org/2000/svg" id="Capa_2" width="84.99" height="36.591" viewBox="0 0 84.99 36.591">
    <defs>
        <style>
            .cls-2{fill:#ee751b}
        </style>
    </defs>
    <g id="Capa_1">
        <path id="Trazado_151" fill="#007368" d="M43.66 5.84C43.66 2 41.31.45 37.53.45a18.69 18.69 0 0 0-5.43.81v3.6a12 12 0 0 1 5.12-1.12c1.65 0 2.56.81 2.56 2.14v.63c-6.17.18-8.83 2.84-8.83 6.1s2 5.08 6.1 5.08c2.38 0 3.89-.46 6.69-.46a36 36 0 0 1-.18-3.75c0-2.59.1-4.94.1-7.64zm-4 7.74c-.14.49-.81.88-2.21.88a2.21 2.21 0 0 1-2.49-2.14c0-1.86 1.65-2.84 4.83-2.94a34.43 34.43 0 0 1-.16 4.2zm10.3-8.45c0-.84.84-1.4 2.17-1.4a9.86 9.86 0 0 1 3.87.85V.94a13.22 13.22 0 0 0-3.76-.49c-3.93 0-6.31 2-6.31 5.11 0 4.8 6.9 4.38 6.9 7.15 0 1.09-.95 1.79-2.8 1.79a13.43 13.43 0 0 1-4-.67v3.43a14.59 14.59 0 0 0 4.27.56c4.55 0 6.52-2.63 6.52-5.36-.03-5.04-6.89-4.8-6.89-7.32zM66.29.45C61.7.45 58.38 3.7 58.38 9c0 6.13 3.54 8.83 8.48 8.83a15.06 15.06 0 0 0 4.28-.6v-3.44a10.19 10.19 0 0 1-4.1.74 4.2 4.2 0 0 1-4.52-4.41v-.53h9.84a16.131 16.131 0 0 0 .17-2.31c0-3.89-1.89-6.83-6.24-6.83zm1.47 6.1h-4.9a3.16 3.16 0 0 1 3.22-2.91c1.72 0 2.45.91 2.45 2.17a.68.68 0 0 1-.76.73zM17.38 9.13c0 5.78 3.36 8.72 8.41 8.72a14.46 14.46 0 0 0 2.91-.32v-3.35a15.23 15.23 0 0 1-2.73.25c-2.66 0-4.34-1.51-4.34-5.29s1.67-5.19 4.27-5.19a8.61 8.61 0 0 1 2.8.39V.76a12.67 12.67 0 0 0-2.91-.28c-5.39 0-8.41 3.36-8.41 8.65zM82.44.38c-3.63 0-4.06.82-7.54.82v16.3h3.91V5.33c0-.89 1-1.46 2.7-1.46h.48a15.31 15.31 0 0 1 3 .52V.79a7.92 7.92 0 0 0-2.55-.41z" transform="translate(0 -.01)"/>
        <path id="Trazado_152" d="M10 16.48a20.6 20.6 0 0 1 6.08.92c-4.31-4.78-3.25-13 0-17.39C6.77 2.82 0 9.91 0 20.12v.67c2-3.49 5.7-4.31 10-4.31z" class="cls-2" transform="translate(0 -.01)"/>
        <path id="Trazado_153" d="M23.71 25.79a5.5 5.5 0 0 1 1.58.21v1.52a4.12 4.12 0 0 0-1.64-.35c-.55 0-.91.23-.91.59 0 1.05 2.86.95 2.86 3.05 0 1.14-.82 2.24-2.72 2.24a6.12 6.12 0 0 1-1.78-.23v-1.45a5.62 5.62 0 0 0 1.68.28c.77 0 1.17-.29 1.17-.75 0-1.15-2.88-1-2.88-3 .01-1.29 1.01-2.11 2.64-2.11z" class="cls-2" transform="translate(0 -.01)"/>
        <path id="Trazado_154" d="M28.29 29.6v.22a1.75 1.75 0 0 0 1.88 1.84 4.25 4.25 0 0 0 1.71-.31v1.43a6.31 6.31 0 0 1-1.78.22c-2.06 0-3.54-1.13-3.54-3.68a3.25 3.25 0 0 1 3.3-3.56c1.81 0 2.6 1.23 2.6 2.85a6.639 6.639 0 0 1-.07 1zm2.19-1.27a.28.28 0 0 0 .32-.33c0-.53-.31-.91-1-.91a1.32 1.32 0 0 0-1.34 1.21z" class="cls-2" transform="translate(0 -.01)"/>
        <path id="Trazado_155" d="M37.62 32.68a2 2 0 0 1-1.21.31 3.23 3.23 0 0 1-3-3.54c0-2.38 1.48-3.67 3.26-3.67 1 0 1.62.23 2.62.23v7.84c0 2-1.62 2.75-3.27 2.75a6 6 0 0 1-1.8-.25v-1.47a5.9 5.9 0 0 0 1.78.29c.82 0 1.69-.31 1.69-1.26zm-.88-1.08c.5 0 .88-.22.88-.47v-3.5c0-.23-.34-.47-.88-.47-1 0-1.61.72-1.61 2.26s.59 2.18 1.61 2.18z" class="cls-2" transform="translate(0 -.01)"/>
        <path id="Trazado_156" d="M45.05 31v-5h1.61v6.72c-1.36 0-1.62.29-3 .29A2.3 2.3 0 0 1 41 30.55V26h1.62v4.35c0 .89.48 1.23 1.3 1.23s1.13-.17 1.13-.58z" class="cls-2" transform="translate(0 -.01)"/>
        <path id="Trazado_157" d="M48.51 32.83V26H50v.64a2 2 0 0 1 1.77-.86 5.29 5.29 0 0 1 .74.06v1.69a2.88 2.88 0 0 0-1.12-.19c-.66 0-1.24.26-1.27.83v4.66z" class="cls-2" transform="translate(0 -.01)"/>
        <path id="Trazado_158" d="M59.37 29.4c0 2.15-1.24 3.64-3.16 3.64s-3.14-1.49-3.14-3.64 1.26-3.61 3.14-3.61 3.16 1.43 3.16 3.61zm-4.56 0c0 1.48.64 2.21 1.45 2.21s1.39-.67 1.39-2.21-.64-2.19-1.46-2.19-1.38.65-1.38 2.19z" class="cls-2" transform="translate(0 -.01)"/>
        <path id="Trazado_159" d="M63 25.79a5.49 5.49 0 0 1 1.58.21v1.52a4.1 4.1 0 0 0-1.63-.35c-.55 0-.91.23-.91.59 0 1.05 2.86.95 2.86 3.05 0 1.14-.82 2.24-2.72 2.24a6.12 6.12 0 0 1-1.78-.23v-1.45a5.63 5.63 0 0 0 1.68.28c.78 0 1.17-.29 1.17-.75 0-1.15-2.88-1-2.88-3 0-1.29.99-2.11 2.63-2.11z" class="cls-2" transform="translate(0 -.01)"/>
    </g>
</svg>
