<svg xmlns="http://www.w3.org/2000/svg" id="Capa_2" width="85.04" height="21.032" viewBox="0 0 85.04 21.032">
    <defs>
        <style>
            .cls-1{fill:#274a97}
        </style>
    </defs>
    <g id="Capa_1">
        <path id="Trazado_248" d="M0 14.48v6.26h17a36.76 36.76 0 0 0-17-6.26" class="cls-1" transform="translate(0 .002)"/>
        <path id="Trazado_249" d="M16.08 0a7.51 7.51 0 0 1 1.25 4.19 6.76 6.76 0 0 1-6.59 6.4 40.49 40.49 0 0 1 10 5.24V0z" class="cls-1" transform="translate(0 .002)"/>
        <path id="Trazado_250" d="M15 4a5.26 5.26 0 0 0-1.94-4H0v8.16C7.62 8.84 15 9.48 15 4" class="cls-1" transform="translate(0 .002)"/>
        <path id="Trazado_251" d="M0 12.24a38.62 38.62 0 0 1 20.75 8.5v-2.12A39.62 39.62 0 0 0 0 10.45z" class="cls-1" transform="translate(0 .002)"/>
        <path id="Trazado_252" fill="#f0b60f" d="M17.33 4.19A7.52 7.52 0 0 0 16.08 0h-3A5.26 5.26 0 0 1 15 4c0 5.48-7.38 4.84-15 4.16v2.29a39.62 39.62 0 0 1 20.75 8.16v-2.78a40.49 40.49 0 0 0-10-5.24 6.75 6.75 0 0 0 6.59-6.4" transform="translate(0 .002)"/>
        <path id="Trazado_253" d="M58.53 6.34H54.6l2-4.39zm-8.07 4.36h2.2l1-2.3h5.76l1 2.3h2.2L57.93 0h-3.58v.25c.3.1.45.28.45.51a1.5 1.5 0 0 1-.17.59z" class="cls-1" transform="translate(0 .002)"/>
        <path id="Trazado_254" d="M74.53.82v9.87h10.08V8.64h-7.9V6.29H82V4.24h-5.29V2.05h7.56V0H74v.25a.82.82 0 0 1 .39.2.55.55 0 0 1 .11.37" class="cls-1" transform="translate(0 .002)"/>
        <path id="Trazado_255" d="M41.69 6.29h5.25V4.24h-5.25V2.05h7.55V0H39v.25a.78.78 0 0 1 .39.2.55.55 0 0 1 .11.37v9.87h10.09V8.64h-7.9z" class="cls-1" transform="translate(0 .002)"/>
        <path id="Rectángulo_129" fill="none" d="M0 0H85.04V21.03H0z" transform="translate(0 .002)"/>
        <path id="Trazado_256" d="M63.93.82v9.87H73V8.64h-6.89V0h-2.68v.25a.8.8 0 0 1 .39.2.55.55 0 0 1 .11.37" class="cls-1" transform="translate(0 .002)"/>
        <path id="Trazado_257" d="M34.75 4.48a1.46 1.46 0 0 1-1.08.38h-4.94V2.05h4.92a1.49 1.49 0 0 1 1.08.38 1.31 1.31 0 0 1 .4 1 1.42 1.42 0 0 1-.39 1m2.54-1A3.5 3.5 0 0 0 36.36 1a3.26 3.26 0 0 0-2.46-1H26v.25a.79.79 0 0 1 .39.2.55.55 0 0 1 .11.37v9.87h2.18V6.91h4.13l2.2 3.78h2.46l-2.28-4a3 3 0 0 0 2-3.22" class="cls-1" transform="translate(0 .002)"/>
        <path id="Trazado_258" d="M33.36 18.56a2.06 2.06 0 0 1-.89 1.79 4.36 4.36 0 0 1-2.57.65 5.85 5.85 0 0 1-3.9-1.33l.79-1.15A5.19 5.19 0 0 0 30 19.61a2.94 2.94 0 0 0 1.38-.27.81.81 0 0 0 .48-.71c0-.28-.17-.47-.53-.56a11.12 11.12 0 0 0-1.49-.14 6 6 0 0 1-2.59-.56 1.63 1.63 0 0 1-.86-1.52 1.93 1.93 0 0 1 .86-1.66 4.27 4.27 0 0 1 2.46-.6 5.46 5.46 0 0 1 3.48 1l-1 1.35-.19-.07v-.08a.786.786 0 0 0-.3-.35 4.7 4.7 0 0 0-2-.47c-1.25 0-1.87.24-1.87.74 0 .24.17.41.52.51a4.18 4.18 0 0 0 1 .13l1.26.09a4.39 4.39 0 0 1 2.07.62 1.72 1.72 0 0 1 .68 1.5" class="cls-1" transform="translate(0 .002)"/>
        <path id="Trazado_259" d="M41.54 20.83h-6.66v-6.51a.36.36 0 0 0-.07-.24.55.55 0 0 0-.26-.14v-.17h6.75v1.36h-5v1.44h3.46v1.35h-3.43v1.55h5.21z" class="cls-1" transform="translate(0 .002)"/>
        <path id="Trazado_260" d="M50.19 17.23a3.47 3.47 0 0 1-1.06 2.64A4.3 4.3 0 0 1 46 21a4.07 4.07 0 0 1-3-1.17 3.46 3.46 0 0 1-1-2.57 3.45 3.45 0 0 1 1-2.55 4.14 4.14 0 0 1 3-1.18 3.88 3.88 0 0 1 3.45 1.67l-1.85.8-.06-.12a.36.36 0 0 0 .07-.1.25.25 0 0 0 0-.21.79.79 0 0 0-.39-.37 2.57 2.57 0 0 0-1.24-.3 2.66 2.66 0 0 0-1.88.67 2.23 2.23 0 0 0-.72 1.69 2.14 2.14 0 0 0 .87 1.79 2.74 2.74 0 0 0 1.74.58 3 3 0 0 0 1.58-.42 2.27 2.27 0 0 0 1-1.06h-2.84v-1.33h4.46z" class="cls-1" transform="translate(0 .002)"/>
        <path id="Trazado_261" d="M58.64 18.45a2.22 2.22 0 0 1-1 1.85 5.1 5.1 0 0 1-5.26 0 2.22 2.22 0 0 1-1-1.85v-4.14a.37.37 0 0 0-.08-.24.48.48 0 0 0-.25-.13v-.17h1.77v4.45a1.22 1.22 0 0 0 .57 1.05 3.3 3.3 0 0 0 3.17 0 1.22 1.22 0 0 0 .56-1v-4.5h1.44z" class="cls-1" transform="translate(0 .002)"/>
        <path id="Trazado_262" d="M66.2 16a.85.85 0 0 0-.26-.65 1 1 0 0 0-.71-.26H62V17h3.25a1 1 0 0 0 .72-.25.94.94 0 0 0 .23-.75m-.05 4.79l-1.45-2.5H62v2.5h-1.47v-6.47a.34.34 0 0 0-.07-.24.54.54 0 0 0-.26-.14v-.17h5.19a2.15 2.15 0 0 1 1.63.64 2.27 2.27 0 0 1 .61 1.66 2 2 0 0 1-1.35 2.13l1.51 2.62z" class="cls-1" transform="translate(0 .002)"/>
        <path id="Trazado_263" d="M75.29 17.29a2.27 2.27 0 0 0-.69-1.72 2.91 2.91 0 0 0-3.7 0 2.28 2.28 0 0 0-.69 1.72 2.29 2.29 0 0 0 .67 1.71 3 3 0 0 0 3.71 0 2.29 2.29 0 0 0 .69-1.74m1.48 0a3.47 3.47 0 0 1-1 2.58 4.48 4.48 0 0 1-6 0 3.5 3.5 0 0 1-1-2.58 3.45 3.45 0 0 1 1-2.56 4.44 4.44 0 0 1 6 0 3.46 3.46 0 0 1 1 2.56" class="cls-1" transform="translate(0 .002)"/>
        <path id="Trazado_264" d="M85 18.56a2.07 2.07 0 0 1-.89 1.79 4.36 4.36 0 0 1-2.57.64 5.85 5.85 0 0 1-3.85-1.32l.79-1.15a5.19 5.19 0 0 0 3.13 1.09 3 3 0 0 0 1.39-.27.81.81 0 0 0 .48-.71c0-.28-.18-.47-.54-.56a11.07 11.07 0 0 0-1.49-.14 6 6 0 0 1-2.59-.56 1.63 1.63 0 0 1-.86-1.51 1.93 1.93 0 0 1 .86-1.66 4.26 4.26 0 0 1 2.46-.6 5.46 5.46 0 0 1 3.48 1l-1 1.35-.13-.11v-.08a.786.786 0 0 0-.3-.35 4.7 4.7 0 0 0-2-.47c-1.25 0-1.87.24-1.87.74 0 .24.17.41.52.51a4.17 4.17 0 0 0 1 .13l1.26.09a4.38 4.38 0 0 1 2.07.62 1.71 1.71 0 0 1 .68 1.5" class="cls-1" transform="translate(0 .002)"/>
    </g>
</svg>
