<?xml version="1.0" encoding="utf-8"?>
<!-- Generator: Adobe Illustrator 24.0.2, SVG Export Plug-In . SVG Version: 6.00 Build 0)  -->
<svg version="1.1" id="Capa_2_1_" xmlns="http://www.w3.org/2000/svg" xmlns:xlink="http://www.w3.org/1999/xlink" x="0px" y="0px"
	 viewBox="0 0 67.2 67.2" style="enable-background:new 0 0 67.2 67.2;" xml:space="preserve">
<style type="text/css">
	.st0{fill-rule:evenodd;clip-rule:evenodd;fill:#0056A4;}
	.st1{fill-rule:evenodd;clip-rule:evenodd;fill:#FFFFFF;}
</style>
<g id="Capa_1">
	<path id="Trazado_467" class="st0" d="M54.8,22.6c3.6,6.5,3.1,16.3-0.3,22.7C49.7,54,40.1,58.8,30.3,57.5
		c-7.9-1-14.7-5.9-18.2-13.1c-3.6-6.7-3.3-16.7,0.9-23c5.2-8.1,13.6-12.7,23.2-11.7C44.1,10.7,51.1,15.5,54.8,22.6z"/>
	<path id="Trazado_468" class="st0" d="M5.5,30.7c-0.2,0.2-0.2,0.5-0.5,0.5c-0.7,0-1-0.5-1.2-1.2c0.1-1.3,0.3-2.6,0.5-4
		C5.6,27.3,6,29,5.5,30.7z"/>
	<path id="Trazado_469" class="st0" d="M5.7,37.4c0.2,1.5-0.2,3-1.2,4.1c-0.2-1.7-1.5-4,0.3-5.2C5.4,36.2,5.7,36.9,5.7,37.4
		L5.7,37.4z"/>
	<path id="Trazado_470" class="st0" d="M55.2,14.9c-0.8-0.3-1.5-0.8-1.9-1.5c-0.2-1-0.9-1.9-0.5-3.1C53.6,11.8,56.5,13,55.2,14.9
		L55.2,14.9z"/>
	<path id="Trazado_471" class="st0" d="M12.4,14.9c-0.5,0.2-0.7-0.2-0.9-0.7c0.3-1.7,1.9-2.6,2.9-4C14.6,12,14.1,14,12.4,14.9
		L12.4,14.9z"/>
	<path id="Trazado_472" class="st0" d="M57.8,18.3c-0.9,0.2-1.4-1-1.7-1.5c-0.3-1.1-0.3-2.3,0-3.4C56.7,14.9,59,16.4,57.8,18.3z"/>
	<path id="Trazado_473" class="st0" d="M11.2,16.4c-0.5,0.9-0.9,2.2-1.9,1.9c-1-1.9,1-3.3,1.7-4.8C11.3,14.5,11.4,15.5,11.2,16.4
		L11.2,16.4z"/>
	<path id="Trazado_474" class="st0" d="M54,15.2c0.2,0.3-0.3,0.7-0.5,0.7c-1.7,0.2-2.6-1.7-4-2.1c0.3-0.5,1.5-0.3,2.2-0.2
		C52.7,13.8,53.5,14.4,54,15.2L54,15.2z"/>
	<path id="Trazado_475" class="st0" d="M17.6,13.9c-1.2,0.9-2.4,2.7-4.3,2.1c-0.3-1,0.7-1.4,1.2-1.9C15.4,13.6,16.5,13.6,17.6,13.9
		L17.6,13.9z"/>
	<path id="Trazado_476" class="st0" d="M56.4,18.3c0.2,0.5-0.2,0.9-0.7,1c-1.7,0-2.1-2.1-3.3-2.9C54,16.2,55.6,16.9,56.4,18.3
		L56.4,18.3z"/>
	<path id="Trazado_477" class="st0" d="M14.8,16.4c-0.2,0.5-0.7,0.5-0.9,1c-0.9,0.9-1.5,2.1-2.9,1.9c-0.7-0.2-0.2-1,0-1.4
		C11.9,16.8,13.4,16.2,14.8,16.4L14.8,16.4z"/>
	<path id="Trazado_478" class="st0" d="M8.6,20.7c-0.3,0.7-0.7,1.7-1.4,1.9c-0.3-0.1-0.6-0.2-0.9-0.5c0.5,1.4,0.7,3.4-0.5,4.6
		c-0.5,0.2-0.9-0.3-1-0.7c-0.2-1.7,0.9-2.9,1-4.5L6.3,22c0-1.9,1.4-3.3,1.9-5C8.8,18.2,9,19.5,8.6,20.7L8.6,20.7z"/>
	<path id="Trazado_479" class="st0" d="M60.8,22.1c0-0.2,0-0.5,0.3-0.5c0.2,1.5,1.9,3.4,0.3,5.2c-0.7-0.2-0.9-1-1-1.5
		C60.3,24.2,60.4,23.1,60.8,22.1c-0.5,0.7-1.7,0-2.1-0.5c-0.7-1.4-0.7-3.1,0-4.5C59.6,18.7,60.7,20.2,60.8,22.1z"/>
	<path id="Trazado_480" class="st1" d="M37.7,17.6L37.5,19l4.6,30.1c0.3,0.5,0.3,1.2,1,1.5c-1.5,0.8-3.3,1.1-5,1
		c0-2.3-0.2-4.5-0.7-6.7l-0.2-0.2h-5.5c-0.8,1.8-1.2,3.7-1.2,5.7l0.2,1.2c-1.6,0-3.3-0.2-4.8-0.7l0.9-1.9L32,18.5l-0.2-0.7
		C33.4,17.1,35.8,17.3,37.7,17.6L37.7,17.6z"/>
	<path id="Trazado_481" class="st0" d="M57.6,20.6c0.6,0.6,1,1.4,0.9,2.2c-2.1,0.7-2.2-2.2-3.8-3.3C55.7,19.5,56.8,19.8,57.6,20.6
		L57.6,20.6z"/>
	<path id="Trazado_482" class="st0" d="M12.4,19.7c-1.4,1-1.5,3.8-3.6,3.3c-0.5-0.9,0.3-1.7,0.7-2.4C10.3,19.9,11.4,19.6,12.4,19.7
		L12.4,19.7z"/>
	<path id="Trazado_483" class="st1" d="M26.5,23.5c2.6,5.8,1.9,14.3-1.5,19.4c-2.2,3.6-6.4,3.1-10,3.1c0,0.3-0.2,0.2-0.3,0.2L15,45
		l0.7-22.8c-0.2-0.3-0.2-0.7-0.3-1c3.1,0.3,6.9-1.4,9.6,0.7L26.5,23.5L26.5,23.5z"/>
	<path id="Trazado_484" class="st1" d="M51.6,21.3l0.5-0.2v6.4c-0.5-0.2-0.7-0.9-1-1.4c-0.8-0.9-1.8-1.5-2.9-1.7
		c-1,0-2.2,0.2-2.6,1.4c-0.7,1.9,0.9,3.3,1.9,4.5c2.4,3.4,7,6.2,6.2,11c-0.3,1.8-1.3,3.4-2.9,4.3c-2.2,1.2-5.3-0.5-7.4,1
		c-0.5-2.2-0.9-4.8-1.2-7.2c1.4,1.9,3.4,3.3,5.9,2.9c0.7,0,1.4-0.9,1.5-1.5c0.2-1.2-0.2-2.4-1-3.3c-2.9-4.5-9.3-7.7-6.5-13.7
		c0.7-1.7,2.4-2.4,4-2.7C48,20.6,49.5,21.4,51.6,21.3L51.6,21.3z"/>
	<path id="Trazado_485" class="st0" d="M59.8,25c0,0.5,0.3,1.2,0,1.7c-1,0.5-1.5-0.7-2.1-1c-0.3-0.9-0.6-1.9-1-2.7
		C58,23.1,59.1,23.9,59.8,25L59.8,25z"/>
	<path id="Trazado_486" class="st0" d="M10.3,23.1c-0.7,1.2-0.7,4-2.9,3.8c-0.3-0.9,0-1.9,0.7-2.6C8.7,23.7,9.5,23.2,10.3,23.1
		L10.3,23.1z"/>
	<path id="Trazado_487" class="st0" d="M22.9,25.2c1.9,2.9,1.4,6.2,1.2,9.8c-0.7,2.9-1.2,6.9-4.8,7.6c0-0.2-0.2-0.2-0.3-0.2
		l0.5-17.7C20.6,24.1,22,24.3,22.9,25.2L22.9,25.2z"/>
	<path id="Trazado_488" class="st0" d="M63.2,29.7c-0.1,0.6-0.5,1.1-1,1.4c-0.5,0.2-0.5-0.3-0.7-0.7c-0.4-1.6,0-3.2,1-4.5
		C63,27.1,63.2,28.4,63.2,29.7L63.2,29.7z"/>
	<path id="Trazado_489" class="st0" d="M36.8,40.7h-4.5c0.7-5,1.4-9.8,2.4-14.6C35.4,30.9,36.3,35.9,36.8,40.7z"/>
	<path id="Trazado_490" class="st0" d="M60.5,28.6c0.2,0.7,0.3,1.4,0.2,2.1c-0.3,0.4-0.9,0.4-1.3,0.1l-0.1-0.1c-0.9-1-0.5-2.9-1.4-4
		C59,27,59.9,27.7,60.5,28.6L60.5,28.6z"/>
	<path id="Trazado_491" class="st0" d="M9.1,26.9c-1.2,1.2-0.2,3.6-2.1,4.3c-0.3,0-0.5-0.3-0.7-0.5C6,28.6,7.6,27.4,9.1,26.9
		L9.1,26.9z"/>
	<path id="Trazado_492" class="st0" d="M63.8,31.7c0.2,2.6-2.9,1.2-4.5,1.5c-0.2-0.5-0.5-0.9-0.5-1.4l2.6,0.9
		C62.1,32.4,62.9,32,63.8,31.7L63.8,31.7z"/>
	<path id="Trazado_493" class="st0" d="M8.5,32.1c-0.2,0.6-0.6,1-1,1.4c-1.4-0.3-4.1,1.2-4-1.4L6,32.8L8.5,32.1L8.5,32.1z"/>
	<path id="Trazado_494" class="st0" d="M63.6,35.2c-0.8-0.1-1.5-0.3-2.2-0.7c-0.9,0.3-1.8,0.5-2.7,0.7c0.2-2.4,2.9-0.9,4.3-1.4
		L63.6,35.2L63.6,35.2z"/>
	<path id="Trazado_495" class="st0" d="M8.5,35.2v0.3l-2.6-0.9c-0.9,0-1.5,0.7-2.4,0.9c-0.2-2.6,2.7-1.2,4.1-1.5L8.5,35.2L8.5,35.2z
		"/>
	<path id="Trazado_496" class="st0" d="M60.8,36.7c0,1.5-0.9,2.9-2.2,3.6c0.3,0.2,0.7-0.2,1.2,0.2c0.3,1-0.1,2.1-1,2.6
		c-0.5,0.7-1.2,1.2-2.1,1.2c0.9-1.2,0.5-2.9,1.9-3.8l-0.7-0.2c1.2-1.2,0.2-4.3,2.6-4.1L60.8,36.7L60.8,36.7z"/>
	<path id="Trazado_497" class="st0" d="M63.1,36.9c0.1,1.4-0.1,2.9-0.3,4.3c-1.2-1.2-1.7-3-1.2-4.6C61.9,35.7,63.1,36.2,63.1,36.9
		L63.1,36.9z"/>
	<path id="Trazado_498" class="st0" d="M9.1,40.8l-0.5-0.2c1,1,1,2.6,1.7,3.8c-1.3-0.1-2.4-0.9-2.9-2.1v-1.7c0.3-0.3,0.7,0,1,0.2
		c-0.2-0.5-1-1-1.4-1.4c-0.7-0.7-0.9-1.8-0.7-2.7c0.2-0.4,0.7-0.5,1.1-0.3c0.1,0.1,0.2,0.2,0.3,0.3c1,1,0.5,2.6,1.4,3.8L9.1,40.8
		L9.1,40.8z"/>
	<path id="Trazado_499" class="st0" d="M62.2,41.3c-0.2,1.5-0.5,2.9-1,4.3c-0.9-1.2-1.4-3.4-0.3-4.8C61.3,40.1,62.2,40.8,62.2,41.3
		L62.2,41.3z"/>
	<path id="Trazado_500" class="st0" d="M6.7,42c0.1,1.2,0,2.3-0.3,3.4c0.2-0.3,1.2-0.9,1.5,0c1,1.4,1.1,3.1,0.3,4.6
		c-0.7-1.4-2.1-2.7-1.9-4.6C6.2,45.6,6,45.8,6,46H5.9c0-1.7-1.9-3.6-0.3-5.2C6.4,40.7,6.4,41.5,6.7,42L6.7,42z"/>
	<path id="Trazado_501" class="st0" d="M58.3,44.4c0.5,1-0.3,1.5-0.7,2.4c-0.8,0.7-1.9,0.9-2.9,0.7C56.2,46.5,56,43.9,58.3,44.4
		L58.3,44.4z"/>
	<path id="Trazado_502" class="st0" d="M12.4,47.9c-0.9,0.3-1.7-0.2-2.6-0.5c-0.8-0.6-1.2-1.6-1.2-2.6c0.3-0.5,1-0.2,1.4,0
		C11,45.8,11.4,47,12.4,47.9L12.4,47.9z"/>
	<path id="Trazado_503" class="st0" d="M60.7,45.8c-0.2,1.7-1.4,2.9-1.9,4.1c-0.5-1.2-0.9-3.3,0.2-4.5
		C59.5,44.4,60.8,44.6,60.7,45.8L60.7,45.8z"/>
	<path id="Trazado_504" class="st0" d="M56.2,49.1c-0.8,1.3-2.3,1.9-3.8,1.7c0-0.3,0.7-0.5,0.9-0.9c0.7-0.9,1-1.7,1.9-2.1
		C56,47.9,56.7,48.4,56.2,49.1L56.2,49.1z"/>
	<path id="Trazado_505" class="st0" d="M14.8,51c-1.2,0.2-2.4-0.1-3.4-0.9c-0.3-0.5-1-1-0.5-1.7c0.4-0.2,0.8-0.3,1.2-0.2
		C13.4,48.9,13.6,50.3,14.8,51L14.8,51z"/>
	<path id="Trazado_506" class="st0" d="M58.2,49.6c-0.2,1.5-1.5,2.7-2.2,4.1c-0.6-1.5-0.3-3.1,0.7-4.3
		C57.1,48.7,58.3,48.6,58.2,49.6L58.2,49.6z"/>
	<path id="Trazado_507" class="st0" d="M11,50.8c0.3,1.1,0.3,2.2,0,3.3c-0.5-1.5-3.1-3.3-1.5-5C10.3,49.1,10.7,50.1,11,50.8z"/>
	<path id="Trazado_508" class="st0" d="M54,51.7c-0.2,1-1.2,1.5-1.9,1.9c-0.8,0.3-1.8,0.3-2.6,0C50.9,52.8,52.3,50.1,54,51.7
		L54,51.7z"/>
	<path id="Trazado_509" class="st0" d="M17.6,53.7L17,54.1c1.5-0.2,2.4,1.5,3.8,1.7V56c-0.2,0-0.2,0.2-0.3,0.3
		c1.1,0.2,2.2,0.6,3.3,1.2c0.2,0,0.5-0.2,0.7,0c-1,1.2-2.9,0.9-4.3,0.5c-0.3-0.1-0.6-0.4-0.7-0.7l0.2-0.9c-1.2-0.2-2.9-0.2-3.6-1.5
		c0-0.5,0.5-0.7,0.9-0.9c-1.4-0.2-3.1-0.5-3.8-1.9c-0.2-0.3,0.3-0.5,0.5-0.7C15.3,51.1,16.2,53,17.6,53.7L17.6,53.7z"/>
	<path id="Trazado_510" class="st0" d="M55.5,52.7c0.2,1.9-2.1,3.1-2.9,4.3c-0.2-1.8,0.6-3.6,2.1-4.6C55,52.3,55.3,52.5,55.5,52.7
		L55.5,52.7z"/>
	<path id="Trazado_511" class="st0" d="M14,54.4c0.4,0.9,0.6,1.9,0.5,2.9c-0.9-1.6-3.8-2.8-2.6-4.7C12.9,52.8,13.7,53.5,14,54.4z"/>
	<path id="Trazado_512" class="st0" d="M51.1,54.4c-0.5,1.5-2.2,1.7-3.6,1.9c0.5,0.5-0.2,1.5-0.9,1.7c-1.2,0.2-2.9,0.5-4-0.5
		c1.2-0.2,2.4-1.4,3.8-1.2l-0.2-0.7C48,55.4,49.3,52.7,51.1,54.4L51.1,54.4z"/>
	<path id="Trazado_513" class="st0" d="M52.4,56.1c-0.3,1.7-2.2,2.4-3.4,3.4c0-1.8,1-3.4,2.6-4.1C52.1,55.4,52.4,55.6,52.4,56.1
		L52.4,56.1z"/>
	<path id="Trazado_514" class="st0" d="M18.1,59c0.1-0.6,0.7-1,1.3-0.9c0.1,0,0.3,0.1,0.4,0.2c1.3,0.8,2.3,2.1,2.6,3.6
		c-1.4-1-3.6-1.2-4.1-3.1l-0.2,1c-1.2-1.2-3.4-1.9-3.3-4c0.2-0.5,0.9-0.3,1.2-0.2C17,56.7,17.7,57.8,18.1,59L18.1,59z"/>
	<path id="Trazado_515" class="st0" d="M43.7,58.9c0,0.7-0.7,0.7-1.2,1c-1.2,0.2-2.4,0-3.4-0.7c0,0.3,0.7,0.9,0.5,1.2
		c-0.8,0.6-2,0.8-2.9,0.3C36,60.4,35.2,60,35,59.2c1.4,0.3,2.7-0.7,4.1,0.2l-0.2-0.7C40.2,58.7,42.5,57,43.7,58.9L43.7,58.9z"/>
	<path id="Trazado_516" class="st0" d="M48.7,58.5c-0.3,2.1-2.6,2.2-3.8,3.3c0.3-1.7,1.5-3.1,3.1-3.8C48.5,57.8,48.7,58.2,48.7,58.5
		L48.7,58.5z"/>
	<path id="Trazado_517" class="st0" d="M28.2,58.7c-0.6,0.8-1.6,1.3-2.6,1.4c-0.9,0.1-1.8-0.3-2.4-1c0.2-0.7,0.9-0.7,1.2-1
		C26,57.8,26.8,58.8,28.2,58.7L28.2,58.7z"/>
	<path id="Trazado_518" class="st0" d="M32.2,59.2c-0.5,0.9-1.4,1.5-2.4,1.7c-0.7,0-1.7,0.3-2.2-0.2c-0.2-0.2,0-0.5,0-0.9
		C28.7,58.4,30.6,59.6,32.2,59.2L32.2,59.2z"/>
	<path id="Trazado_519" class="st0" d="M44.5,61.1c-1,1.4-2.7,1.4-4.1,2.1c0.6-1.6,1.9-2.9,3.6-3.3C44.9,59.7,44.5,60.8,44.5,61.1z"
		/>
	<path id="Trazado_520" class="st0" d="M26.7,63.2c-1.4-0.5-3.3-0.5-4.1-2.1c-0.2-0.3-0.2-1,0.2-1.2C24.5,60.2,26,61.5,26.7,63.2z"
		/>
	<path id="Trazado_521" class="st0" d="M34.6,60.4c0.2,0.2,0,0.2-0.2,0.3c-0.2,0-0.5,0-0.5-0.2C33.7,59.9,34.6,59.7,34.6,60.4
		L34.6,60.4z"/>
	<path id="Trazado_522" class="st0" d="M33.2,60.2c0,0.3-0.2,0.7-0.3,0.7c-0.2,0-0.3-0.2-0.3-0.3C32.1,60.1,33,59.9,33.2,60.2z"/>
	<path id="Trazado_523" class="st0" d="M34.1,61.4c-0.2,0.2-0.2,0.5-0.3,0.5c-0.1,0.1-0.3,0.1-0.5-0.1c0,0,0-0.1-0.1-0.1
		c0-0.3,0-0.7,0.3-0.7C33.7,61.3,34.1,61.3,34.1,61.4L34.1,61.4z"/>
	<path id="Trazado_524" class="st0" d="M32.5,61.4c0.2,0.3-0.3,0.3-0.5,0.5c-0.3-0.2-0.7-0.2-0.7-0.5C31.3,60.9,32.1,61.1,32.5,61.4
		L32.5,61.4z"/>
	<path id="Trazado_525" class="st0" d="M35.9,61.4c-0.3,0.4-0.9,0.6-1.4,0.3l-0.2-0.2C34.6,60.9,35.4,61.1,35.9,61.4L35.9,61.4z"/>
	<path id="Trazado_526" class="st0" d="M40.4,61.4c-0.5,2.2-2.9,1.9-4.8,2.4c0.7-1.5,2.2-2.4,3.8-2.6C39.7,61.1,40.1,61.2,40.4,61.4
		L40.4,61.4z"/>
	<path id="Trazado_527" class="st0" d="M31.5,63.8c-1.7-0.3-4.3-0.2-5-2.2c1.2-0.7,2.7,0,3.8,0.7C30.7,62.7,31.2,63.3,31.5,63.8z"/>
	<path id="Trazado_528" class="st0" d="M34.7,62.5c0,0.3,0,0.5-0.2,0.5c-0.3,0.2-0.7,0-0.7-0.2C33.7,62.1,34.7,62,34.7,62.5
		L34.7,62.5z"/>
	<path id="Trazado_529" class="st0" d="M33.2,62.5c0,0.3-0.5,0.7-0.7,0.5s-0.3-0.7,0-0.7C32.8,62.1,33.2,62.3,33.2,62.5L33.2,62.5z"
		/>
	<path id="Trazado_530" class="st0" d="M40.4,5.3c0.2,0.5-0.2,0.7-0.7,0.9C38,5.9,36.1,5,35.6,3.5C37.3,3.7,39.5,3.6,40.4,5.3
		L40.4,5.3z"/>
	<path id="Trazado_531" class="st0" d="M31.5,3.4c-0.5,1.7-2.2,2.4-3.8,2.7c-0.3,0-0.9,0-1-0.5C27.3,3.6,29.7,3.9,31.5,3.4L31.5,3.4
		z"/>
	<path id="Trazado_532" class="st0" d="M22.7,7.3c-0.3-0.2-0.2-0.7-0.2-1c1-1.7,2.9-1.4,4.3-2.4C26.4,5.8,24.7,7.2,22.7,7.3z"/>
	<path id="Trazado_533" class="st0" d="M44.5,7.2c-1,0.5-2.1-0.5-2.9-1c-0.6-0.6-1-1.4-1.2-2.2C41.8,4.7,44.7,4.7,44.5,7.2L44.5,7.2
		z"/>
	<path id="Trazado_534" class="st0" d="M33.4,4.6c0,0.3-0.1,0.5-0.3,0.7c-0.3,0-0.7-0.2-0.7-0.5c-0.2-0.3,0.2-0.5,0.5-0.5
		C33,4.3,33.2,4.4,33.4,4.6L33.4,4.6z"/>
	<path id="Trazado_535" class="st0" d="M34.9,4.6c0,0.3-0.1,0.5-0.3,0.7c-0.3,0-0.7-0.2-0.7-0.5C33.9,4.3,34.6,4.1,34.9,4.6
		L34.9,4.6z"/>
	<path id="Trazado_536" class="st0" d="M33.9,6.1c-0.3,0.3-0.7,0-0.9-0.3C33,4.9,34.4,5.4,33.9,6.1z"/>
	<path id="Trazado_537" class="st0" d="M20,9.1c-0.5,0-0.9,0.7-1.4,0.2c-0.3-0.2-0.2-0.9,0-1.2c0.9-1.5,2.6-1.4,3.8-2.6
		C22.1,7,21.3,8.3,20,9.1L20,9.1z"/>
	<path id="Trazado_538" class="st0" d="M32.7,6c-0.3,0.2-0.9,0.5-1.2,0.2c-0.2,0-0.2-0.2-0.2-0.3C31.6,5.3,32.7,5.4,32.7,6L32.7,6z"
		/>
	<path id="Trazado_539" class="st0" d="M35.9,5.8c0,0.3-0.3,0.3-0.5,0.5c-0.3-0.2-0.9,0-0.9-0.5C34.9,5.4,35.5,5.4,35.9,5.8z"/>
	<path id="Trazado_540" class="st0" d="M48.7,9.1c-0.7,0.5-1.4-0.2-2.1-0.3c-0.9-0.9-1.5-2-1.7-3.3C46.2,6.3,48.8,6.8,48.7,9.1z"/>
	<path id="Trazado_541" class="st0" d="M32.3,8.2c-1.7-0.5-3.6,0.9-4.8-0.9c-0.2-0.5,0.3-0.9,0.7-1C29.9,6.1,31.7,6.6,32.3,8.2
		L32.3,8.2z"/>
	<path id="Trazado_542" class="st0" d="M39.5,6.7C39.9,7.5,39,8,38.3,8.2c-1,0.3-2.2-0.5-3.4,0c0.4-1.1,1.4-1.8,2.6-1.9
		C38.2,6.2,38.9,6.3,39.5,6.7L39.5,6.7z"/>
	<path id="Trazado_543" class="st0" d="M34.7,6.8c0.2,0.3-0.2,0.3-0.3,0.5S34,7.2,33.9,7.2C33.7,6.5,34.7,6.3,34.7,6.8L34.7,6.8z"/>
	<path id="Trazado_544" class="st0" d="M33.4,6.7c-0.2,0.3,0,0.7-0.3,0.7c-0.3,0.2-0.9-0.2-0.5-0.7C32.8,6.5,33.1,6.5,33.4,6.7
		L33.4,6.7z"/>
	<path id="Trazado_545" class="st0" d="M28.4,8.7c-1.7-0.2-4,1.7-5-0.3c0.3-0.7,1.2-0.9,2.1-1C26.6,7.2,27.8,7.7,28.4,8.7z"/>
	<path id="Trazado_546" class="st0" d="M43.8,8.4c-0.2,0.5-0.9,0.7-1.2,0.9c-1.5,0.2-2.4-0.7-3.8-0.5C39.2,8,40,7.5,40.9,7.4
		C42,7.2,43.3,7.3,43.8,8.4L43.8,8.4z"/>
	<path id="Trazado_547" class="st0" d="M52.4,11.5c-0.7,0.9-1.4,0-1.9-0.2c-0.9-1.1-1.4-2.4-1.5-3.8C50.2,8.7,52.6,9.4,52.4,11.5
		L52.4,11.5z"/>
	<path id="Trazado_548" class="st0" d="M18.4,7.7c-0.5,1.5-1,3.6-2.9,4.3c-0.3-0.2-0.7-0.2-0.7-0.5C15,9.4,16.9,8.7,18.4,7.7z"/>
	<path id="Trazado_549" class="st0" d="M47.6,10.3c-0.2,0.2,0,0.5-0.2,0.5c1.4,0.3,3.3,0.5,3.6,2.1c-1.9,1.5-3.1-1-4.8-1.2
		c-0.2-0.3,0.3-0.3,0.5-0.5c-1.5,0-2.6-1-4.1-1.2c0.5-0.7,1.4-1.1,2.2-1C45.9,8.9,47.3,9.2,47.6,10.3L47.6,10.3z"/>
	<path id="Trazado_550" class="st0" d="M24.4,9.9c-1.4,0-2.2,1.2-3.8,1.2l0.3,0.5c-1.7,0.5-3.1,2.6-4.8,1.4
		c-0.2-0.9,0.7-1.2,1.2-1.5l2.4-0.5c-0.2-0.3-0.5-0.7-0.2-1c1.1-0.9,2.5-1.1,3.8-0.7C23.7,9.4,24.2,9.5,24.4,9.9L24.4,9.9z"/>
</g>
</svg>
