<svg xmlns="http://www.w3.org/2000/svg" id="Capa_2" width="85.04" height="23.73" viewBox="0 0 85.04 23.73">
    <defs>
        <style>
            .cls-1{fill:#2264ae}.cls-2{fill:#3eb0e5}
        </style>
    </defs>
    <g id="Capa_1">
        <path id="Trazado_265" d="M2.13 12.09v.15q0 2.1 1.87 2.1a1.75 1.75 0 0 0 1.19-.4 1.32 1.32 0 0 0 .46-1 1.15 1.15 0 0 0-.38-.94A3.14 3.14 0 0 0 4 11.4l-1.1-.29a4.86 4.86 0 0 1-2.11-1A2.29 2.29 0 0 1 .2 8.36a2.69 2.69 0 0 1 1-2.13 3.4 3.4 0 0 1 1.15-.6 4.93 4.93 0 0 1 1.48-.21 4 4 0 0 1 2.54.71 2.81 2.81 0 0 1 1 2.07H5.36A2.72 2.72 0 0 0 5 6.63a1.42 1.42 0 0 0-1.2-.47 1.62 1.62 0 0 0-1.12.38 1.25 1.25 0 0 0-.43 1 1.11 1.11 0 0 0 .37.86 2.93 2.93 0 0 0 1.16.57l1.32.38a4.1 4.1 0 0 1 2 1 2.4 2.4 0 0 1 .62 1.71 2.68 2.68 0 0 1-1 2.21 4.31 4.31 0 0 1-2.77.81 4.57 4.57 0 0 1-2.83-.77A2.71 2.71 0 0 1 0 12.09z" class="cls-1"/>
        <path id="Trazado_266" d="M14.84 12.89a3.25 3.25 0 0 1-1.12 1.66 3.28 3.28 0 0 1-2 .52 3.34 3.34 0 0 1-2.28-.71 2.51 2.51 0 0 1-.81-2 2.48 2.48 0 0 1 1.58-2.43 4 4 0 0 1 .7-.25 8 8 0 0 1 .93-.18c.36 0 .77-.09 1.23-.12l1.59-.08v-1a3.19 3.19 0 0 0-.34-1.71 1.33 1.33 0 0 0-1.19-.49 1.4 1.4 0 0 0-1.13.51 2.52 2.52 0 0 0-.4 1.52v.1H9.14a2.62 2.62 0 0 1 .94-2 4.76 4.76 0 0 1 3.13-.84 4.3 4.3 0 0 1 3.39 1.17 2.5 2.5 0 0 1 .49 1 6.41 6.41 0 0 1 .14 1.52v5.76h-2.4zM14.71 10a9 9 0 0 0-1.64.13 3.14 3.14 0 0 0-1.09.39 1.49 1.49 0 0 0-.6.7 2.79 2.79 0 0 0-.18 1.07q0 1.87 1.43 1.87a1.7 1.7 0 0 0 1.11-.4 2.44 2.44 0 0 0 .72-1.13 9.33 9.33 0 0 0 .25-2.63z" class="cls-1"/>
        <path id="Trazado_267" d="M21.76 8.15A3.11 3.11 0 0 1 25 5.47a2.81 2.81 0 0 1 2.7 1.36 3.16 3.16 0 0 1 .32.88 6.93 6.93 0 0 1 .1 1.29v5.85H25.6V9a9.71 9.71 0 0 0-.05-1.17 1.71 1.71 0 0 0-.21-.67 1.18 1.18 0 0 0-.48-.49 1.36 1.36 0 0 0-.68-.18 1.81 1.81 0 0 0-1 .28 1.9 1.9 0 0 0-.7.77 4.4 4.4 0 0 0-.44 1.31 11.07 11.07 0 0 0-.13 1.88v4.13h-2.48V5.68h2.34z" class="cls-1"/>
        <path id="Trazado_268" d="M30.4 5.68V3.16l2.52-.61v3.13h2.52v.8h-2.52v5.66a3.33 3.33 0 0 0 .24 1.51.89.89 0 0 0 .85.44 5 5 0 0 0 1.4-.27v.86a10.35 10.35 0 0 1-1.26.27A7.83 7.83 0 0 1 33 15a2.41 2.41 0 0 1-2.28-1.18 2.37 2.37 0 0 1-.28-.79 7.41 7.41 0 0 1-.07-1.15v-5.4H29v-.8z" class="cls-1"/>
        <path id="Trazado_269" d="M42.13 12.89A3.25 3.25 0 0 1 41 14.55a3.28 3.28 0 0 1-2 .52 3.33 3.33 0 0 1-2.28-.71 2.51 2.51 0 0 1-.81-2 2.48 2.48 0 0 1 1.58-2.43 4 4 0 0 1 .7-.25 7.92 7.92 0 0 1 .93-.18q.54-.07 1.23-.12L42 9.31v-1a3.2 3.2 0 0 0-.34-1.71 1.34 1.34 0 0 0-1.19-.49 1.4 1.4 0 0 0-1.17.47 2.51 2.51 0 0 0-.4 1.52v.1h-2.47a2.62 2.62 0 0 1 .94-2 4.76 4.76 0 0 1 3.13-.84 4.3 4.3 0 0 1 3.39 1.13 2.48 2.48 0 0 1 .49 1 6.4 6.4 0 0 1 .14 1.52v5.76h-2.4zM42 10a9 9 0 0 0-1.64.13 3.14 3.14 0 0 0-1.09.39 1.48 1.48 0 0 0-.6.7 2.77 2.77 0 0 0-.18 1.07q0 1.87 1.43 1.87a1.69 1.69 0 0 0 1.11-.4 2.44 2.44 0 0 0 .72-1.13A9.28 9.28 0 0 0 42 10z" class="cls-1"/>
        <path id="Trazado_270" d="M49.24 14.82h-2.52V0h2.52z" class="cls-1"/>
        <path id="Trazado_271" d="M60.11 14.82h-2.34v-2.48A3.1 3.1 0 0 1 54.52 15a2.81 2.81 0 0 1-2.7-1.36 3.14 3.14 0 0 1-.32-.88 6.7 6.7 0 0 1-.09-1.26V5.68h2.52v5.85A10 10 0 0 0 54 12.7a1.72 1.72 0 0 0 .21.67 1.19 1.19 0 0 0 .48.49 1.36 1.36 0 0 0 .68.18 1.79 1.79 0 0 0 1-.28A1.86 1.86 0 0 0 57 13a4.37 4.37 0 0 0 .44-1.32 11.36 11.36 0 0 0 .13-1.89V5.68h2.52z" class="cls-1"/>
        <path id="Trazado_272" d="M70.25 11.92a3.26 3.26 0 0 1-1.14 2.32 4.2 4.2 0 0 1-2.7.79A4.5 4.5 0 0 1 63 13.77a4.87 4.87 0 0 1-1.21-3.52 5.83 5.83 0 0 1 .32-2A4.2 4.2 0 0 1 63 6.74a4 4 0 0 1 1.45-1 5.3 5.3 0 0 1 1.94-.34 4.16 4.16 0 0 1 2.86.94 3.32 3.32 0 0 1 1.11 2.52h-2.43a4.08 4.08 0 0 0-.36-2 1.28 1.28 0 0 0-1.18-.66q-1.93 0-1.93 4t2.38 4a2.22 2.22 0 0 0 1.6-.63 2.59 2.59 0 0 0 .75-1.68z" class="cls-1"/>
        <path id="Trazado_273" d="M74.31 14.82h-2.52V5.68h2.52zM72.68 4.15h-.77L74.17.44h2.66z" class="cls-1"/>
        <path id="Trazado_274" d="M82.17 12.89a3.25 3.25 0 0 1-1.12 1.66 3.28 3.28 0 0 1-2 .52 3.34 3.34 0 0 1-2.28-.71 2.51 2.51 0 0 1-.81-2 2.48 2.48 0 0 1 1.64-2.43 4 4 0 0 1 .7-.25 7.9 7.9 0 0 1 .93-.18q.54-.07 1.23-.12l1.59-.08v-1a3.2 3.2 0 0 0-.34-1.71 1.33 1.33 0 0 0-1.19-.49 1.4 1.4 0 0 0-1.17.47A2.53 2.53 0 0 0 79 8.13v.1h-2.52a2.62 2.62 0 0 1 .94-2 4.76 4.76 0 0 1 3.13-.84 4.3 4.3 0 0 1 3.39 1.13 2.47 2.47 0 0 1 .49 1 6.4 6.4 0 0 1 .14 1.52v5.76h-2.4zM82.05 10a9 9 0 0 0-1.64.13 3.13 3.13 0 0 0-1.09.39 1.49 1.49 0 0 0-.6.7 2.79 2.79 0 0 0-.18 1.07q0 1.87 1.43 1.87a1.69 1.69 0 0 0 1.12-.4 2.44 2.44 0 0 0 .72-1.13 9.28 9.28 0 0 0 .24-2.63z" class="cls-1"/>
        <path id="Trazado_275" d="M30.21 21.65v.26a1.9 1.9 0 0 0 0 .2.93.93 0 0 0 0 .16l.07.15a.56.56 0 0 0 .26.24.85.85 0 0 0 .4.09.78.78 0 0 0 .56-.2.69.69 0 0 0 .21-.53.74.74 0 0 0-.22-.55l-.1-.08-.12-.08-.16-.08-.24-.1-.4-.16-.26-.11-.2-.1-.16-.1-.13-.12a1.07 1.07 0 0 1-.32-.79 1.18 1.18 0 0 1 .11-.51 1.1 1.1 0 0 1 .31-.39 1.4 1.4 0 0 1 .48-.25 2.15 2.15 0 0 1 .7-.1 1.58 1.58 0 0 1 1.07.34 1.16 1.16 0 0 1 .39.93h-.8a2.791 2.791 0 0 0 0-.43 1.06 1.06 0 0 0-.1-.28.5.5 0 0 0-.24-.23.74.74 0 0 0-.36-.09.66.66 0 0 0-.49.19.68.68 0 0 0-.19.5.76.76 0 0 0 0 .25.57.57 0 0 0 .13.2 1.13 1.13 0 0 0 .23.18 2.5 2.5 0 0 0 .36.17l.41.17.29.13.22.11.16.11.14.12a1.12 1.12 0 0 1 .33.84 1.34 1.34 0 0 1-.11.54 1.14 1.14 0 0 1-.3.42 1.21 1.21 0 0 1-.49.25A2.47 2.47 0 0 1 31 23a1.57 1.57 0 0 1-1.29-.48 1.32 1.32 0 0 1-.29-.86z" class="cls-1"/>
        <path id="Trazado_276" d="M35.6 18.86h-1.82v1.7h1.62v.26h-1.62v1.81h1.91v.27h-2.76v-4.3h2.67z" class="cls-1"/>
        <path id="Trazado_277" d="M38.69 19.95a1.5 1.5 0 0 0-.28-.87.8.8 0 0 0-.66-.31.85.85 0 0 0-.78.5 3.07 3.07 0 0 0-.27 1.44 3.2 3.2 0 0 0 .3 1.51.92.92 0 0 0 .86.5h.38l.48-.1v-1.51h.83v1.52l-.42.14-.47.11-.47.07h-.44a2 2 0 0 1-.83-.17 1.71 1.71 0 0 1-.64-.48 2 2 0 0 1-.34-.69 3.13 3.13 0 0 1-.13-.9 3.09 3.09 0 0 1 .13-.94 1.92 1.92 0 0 1 .39-.7 1.67 1.67 0 0 1 .63-.44 2.16 2.16 0 0 1 .84-.15 2.08 2.08 0 0 1 .88.18 1.48 1.48 0 0 1 .61.5 1.29 1.29 0 0 1 .17.34 1.94 1.94 0 0 1 .08.42z" class="cls-1"/>
        <path id="Trazado_278" d="M40.85 18.6v2.7a3 3 0 0 0 0 .57 1.26 1.26 0 0 0 .14.39.77.77 0 0 0 .34.32 1.08 1.08 0 0 0 .51.12 1.14 1.14 0 0 0 .57-.14 1 1 0 0 0 .39-.39 1.23 1.23 0 0 0 .13-.38 3 3 0 0 0 0-.54V18.6h.34v2.64a3.11 3.11 0 0 1 0 .6 1.54 1.54 0 0 1-.16.45 1.49 1.49 0 0 1-1.44.7 2.07 2.07 0 0 1-.92-.18 1.27 1.27 0 0 1-.57-.54 1.49 1.49 0 0 1-.18-.47 3.52 3.52 0 0 1 0-.65V18.6z" class="cls-1"/>
        <path id="Trazado_279" d="M45.34 18.6h.69l.25.07a1.16 1.16 0 0 1 .22.11.92.92 0 0 1 .36.37 1.09 1.09 0 0 1 .13.52 1 1 0 0 1-.29.73 1.55 1.55 0 0 1-.87.34 2.14 2.14 0 0 1 .43.06.71.71 0 0 1 .3.15.81.81 0 0 1 .19.28 2.19 2.19 0 0 1 .13.43l.31 1.17h-.88l-.25-1.08a1.113 1.113 0 0 0-.12-.45.68.68 0 0 0-.11-.21.52.52 0 0 0-.25-.16 1.52 1.52 0 0 0-.44-.05h-.32v2H44V18.6zm-.09 2.09q.85 0 .85-.94a1 1 0 0 0-.21-.69.88.88 0 0 0-.66-.22h-.41v1.85z" class="cls-1"/>
        <path id="Trazado_280" d="M49.49 18.49a2.34 2.34 0 0 1 .88.16 1.79 1.79 0 0 1 .66.46 2 2 0 0 1 .41.72 3 3 0 0 1 .14 1 2.7 2.7 0 0 1-.15.92 1.94 1.94 0 0 1-.42.7 1.8 1.8 0 0 1-.66.45 2.53 2.53 0 0 1-1.74 0 1.73 1.73 0 0 1-.65-.45 2 2 0 0 1-.41-.71 2.92 2.92 0 0 1-.14-.95 3.21 3.21 0 0 1 .07-.7 2 2 0 0 1 .21-.58 1.83 1.83 0 0 1 .73-.72 2.2 2.2 0 0 1 1.07-.3zm0 .26a1 1 0 0 0-.54.15 1.07 1.07 0 0 0-.38.41 2.29 2.29 0 0 0-.21.61 4.64 4.64 0 0 0-.06.83 4.8 4.8 0 0 0 .06.84 2.18 2.18 0 0 0 .21.61 1.043 1.043 0 0 0 1.81.05 2.88 2.88 0 0 0 .3-1.47 4.65 4.65 0 0 0-.08-.91 2.07 2.07 0 0 0-.24-.65 1.053 1.053 0 0 0-.87-.47z" class="cls-1"/>
        <path id="Trazado_281" d="M52.48 21.65v.26a1.93 1.93 0 0 0 0 .2 1 1 0 0 0 0 .16l.07.15a.56.56 0 0 0 .26.24.85.85 0 0 0 .4.09.78.78 0 0 0 .56-.2A.69.69 0 0 0 54 22a.74.74 0 0 0-.22-.55l-.1-.08-.12-.08-.16-.08-.23-.1-.4-.16-.26-.11-.2-.1-.16-.1-.13-.12a1.07 1.07 0 0 1-.32-.79 1.2 1.2 0 0 1 .11-.51 1.11 1.11 0 0 1 .31-.39 1.41 1.41 0 0 1 .48-.25 2.15 2.15 0 0 1 .63-.09 1.58 1.58 0 0 1 1.07.34 1.16 1.16 0 0 1 .39.93h-.8a2.8 2.8 0 0 0 0-.43 1.1 1.1 0 0 0-.1-.28.5.5 0 0 0-.24-.23.74.74 0 0 0-.36-.09.66.66 0 0 0-.49.19.68.68 0 0 0-.19.5.76.76 0 0 0 0 .25.56.56 0 0 0 .13.2 1.15 1.15 0 0 0 .23.18 2.6 2.6 0 0 0 .36.17l.41.17.29.13.22.11.16.11.14.12a1.12 1.12 0 0 1 .33.84 1.34 1.34 0 0 1-.11.54 1.14 1.14 0 0 1-.3.42 1.21 1.21 0 0 1-.49.25 2.47 2.47 0 0 1-.68.09 1.57 1.57 0 0 1-1.2-.49 1.32 1.32 0 0 1-.29-.86z" class="cls-1"/>
        <path id="Rectángulo_130" d="M0 0H5.83V6.01H0z" class="cls-2" transform="translate(21.78 17.72)"/>
        <path id="Rectángulo_131" d="M0 0H4.71V4.86H0z" class="cls-2" transform="translate(13.71 17.72)"/>
        <path id="Rectángulo_132" d="M0 0H3.82V3.93H0z" class="cls-2" transform="translate(6.41 17.72)"/>
        <path id="Rectángulo_133" d="M0 0H3.14V3.24H0z" class="cls-2" transform="translate(.02 17.72)"/>
        <path id="Rectángulo_134" d="M0 0H5.83V6.01H0z" class="cls-2" transform="translate(57.45 17.72)"/>
        <path id="Rectángulo_135" d="M0 0H4.71V4.86H0z" class="cls-2" transform="translate(66.65 17.72)"/>
        <path id="Rectángulo_136" d="M0 0H3.81V3.93H0z" class="cls-2" transform="translate(74.83 17.72)"/>
        <path id="Rectángulo_137" d="M0 0H3.14V3.24H0z" class="cls-2" transform="translate(81.9 17.72)"/>
    </g>
</svg>
