<svg xmlns="http://www.w3.org/2000/svg" id="Capa_2" width="60.013" height="48.631" viewBox="0 0 60.013 48.631">
    <defs>
        <style>
            .cls-1{fill:#92373b}
        </style>
    </defs>
    <g id="Capa_1">
        <path id="Trazado_122" d="M10.373 38.273v-4.131c2.586 0 3.536-.137 3.994 3.044h.275V33.65h-7.1v.481H8.77v9.075H7.42v.481h7.267V40h-.366c-.366 2.8-1.076 3.239-3.067 3.239h-.881v-4.428h.538c.893 0 1.408.549 1.591 2.083h.332v-4.555h-.32s-.069 1.968-1.625 1.934h-.515" class="cls-1" transform="translate(1.072 4.842)"/>
        <path id="Trazado_123" d="M8.514 38.475H4.578v.446h1.327v3.273c-.229.824-1.453 1.144-1.82 1.144-2.541 0-2.357-3.719-2.357-4.715s-.092-4.715 2.357-4.715c1.728 0 2.632 1.717 3 3.262h.275v-3.65c0 .011-1.144.858-1.144.835a2.38 2.38 0 0 0-2.094-.813C1.144 33.577 0 36.576 0 38.647c0 1.911.893 5.161 4.086 5.161a2.438 2.438 0 0 0 2.094-1.144s1.27 1 1.27 1.007v-4.807h1.076v-.446" class="cls-1" transform="translate(0 4.823)"/>
        <path id="Trazado_124" d="M39.071 40.118l1.453-4.349 1.545 4.349h-3m-5.631-1.74h-1.623v-4.2H33.9c1.225.183 1.282 1.6 1.282 2.048 0 1.144-.458 2.163-1.728 2.163m17.292 1.648c-.366 2.8-1.076 3.227-3.067 3.227h-.126v-9.086h1.27v-.492H44.7v.492h1.27v9.064h-1.005L41.257 33.4h-.549l-3.09 8.961c-.012.035-.229.767-.744.87s-.435-.229-.435-.309V41.2a3.067 3.067 0 0 0-.5-1.946 2.666 2.666 0 0 0-1.408-.6 2.838 2.838 0 0 0 2.289-2.644c0-1.522-1.053-2.289-2.827-2.289H29v.492h1.259v9.018H29v.481h4.12v-.481H31.8v-4.338h1.72c2.975.24-.515 4.852 3.433 4.852H39.3v-.5c-.137 0-1.041 0-1.144-.6a9.647 9.647 0 0 1 .6-2.083h3.342s1.041 2.678 1.053 2.678H42v.481h9.1v-3.683z" class="cls-1" transform="translate(4.188 4.806)"/>
        <path id="Trazado_125" d="M26.15 34.142c2.586 0 3.548-.126 3.994 3.044h.275V33.65h-10.3v.481h.263c.366 0 1.225 0 1.27.778v5.8l-4.806-7.059H14.26v.481h.435c.515 0 1.236 0 1.27.778v7.427c0 .721-1.087 1-1.534 1v.364h3.536v-.366c-.458 0-1.545-.275-1.545-1v-6.521c1.9 2.724 5.493 7.9 5.528 7.9h.183V34.92c0-.755.916-.778 1.27-.778h1.144v9.064h-1.292v.481h7.267V40h-.366c-.366 2.8-1.076 3.239-3.067 3.239h-.927v-4.428h.538c.893 0 1.408.549 1.591 2.083h.332v-4.555H28.3s-.069 1.968-1.625 1.934h-.492v-4.131" class="cls-1" transform="translate(2.059 4.842)"/>
        <path id="Trazado_126" d="M52.878 34.142v-.492H48.77v.492h1.293l.011 9.075h-1.3v.492h4.108v-.492h-1.297v-9.075h1.293" class="cls-1" transform="translate(7.043 4.842)"/>
        <path id="Trazado_127" d="M45.307 30.153a.881.881 0 0 1 .687-.572l3.319-.744-.3-2.964V25.8a1.934 1.934 0 0 0-1.865-1.694c-5.928-.481-7.3-1.362-8.743-2.289l-.126-.08a6.2 6.2 0 0 0-3.216-1 15.736 15.736 0 0 0-3.983.721l-1.453.446a16.09 16.09 0 0 1-6.157 1.03h-.49l-.126.481c-.1.366-.858 3.342-.126 5.253a1.522 1.522 0 0 0-.652 1.144c0 .652-.126.813-.183.87a4.074 4.074 0 0 1-2.209.366h-.332l-.183.252a2.449 2.449 0 0 1-2.438.721 2.586 2.586 0 0 1 0-2.209 1.843 1.843 0 0 1 1.476-.6h.183a1.431 1.431 0 0 0 1.431-1.412v-5.269a6.008 6.008 0 0 0 .6-1.282 2.7 2.7 0 0 0 2.289-2.644 2.632 2.632 0 0 0-.423-1.442 3.742 3.742 0 0 0 2.232-3.307 2.941 2.941 0 0 0-1.522-2.724 24.971 24.971 0 0 0 .79-2.7L24.822 4.7a3.273 3.273 0 0 1 3.1-2.415h18.312A3.857 3.857 0 0 1 42.8 3.9H31.7l-.584 1.247h9.945a3.845 3.845 0 0 1-3.548 1.831H30.3l-.549 1.259h6.432A3.845 3.845 0 0 1 32.684 10h-3.9l-.584 1.236h4.12a1.282 1.282 0 0 1 .149.744 1.476 1.476 0 0 1-1.5 1.442 2.38 2.38 0 0 1-.95-.24l-.549-.229-.961.858.538.229a4.578 4.578 0 0 0 1.911.549 2.678 2.678 0 0 0 1.945-.858l2.941.229c1.316.1 2.563.206 3.2.24h.916l1.545.092c2.506 4.063 3.788 4.578 8.629 5.184.355.629.664 1.293.961 1.957v8.56a4.269 4.269 0 0 1-1.144.641l-4.177 1.579a2.289 2.289 0 0 1-.515-2.06M44.38 32.3h-8.033l3.433-3.651a2.289 2.289 0 0 0 .629-2.449 18.545 18.545 0 0 0-1.144-2.4c1.373.641 3.433 1.213 7.7 1.556.5 0 .641.217.744.687l.183 1.831-2.117.492a2.129 2.129 0 0 0-1.625 1.385 3.136 3.136 0 0 0 .275 2.6m-14.568 0a2.2 2.2 0 0 1 .263-2.037 1.6 1.6 0 0 1 1.385-.561l2.357.435h.389l1.671-1.8a1.991 1.991 0 0 0 .263-2.621L33.9 22.1a8.011 8.011 0 0 1 1.087-.08 4.967 4.967 0 0 1 2.289.687c.16.343.389.8.641 1.316.469.95 1.053 2.129 1.213 2.609a1.064 1.064 0 0 1-.343 1.144L34.5 32.282zm-.675-2.861a3.193 3.193 0 0 0-.607 2.861h-7.6a2.781 2.781 0 0 0 1.82-.7 2.289 2.289 0 0 0 .526-1.728.919.919 0 0 1 .469-.378l.652-.3-.412-.641c-.652-1-.366-3.181-.114-4.372h.114a17.647 17.647 0 0 0 6.008-1.144l1.431-.446s.526-.172 1.225-.332l2.485 4.09c.24.355.275.584-.172 1.144l-1.247 1.362-2.037-.378a2.838 2.838 0 0 0-2.529.916m-13.5-.263A3.548 3.548 0 0 0 15.5 32.3h-1.286V22.268a5.424 5.424 0 0 0 1.419-.412 10.013 10.013 0 0 1-.172 1.247l-.057.343-.126.721h.744a5.5 5.5 0 0 0 2.552-.492v4.189a.2.2 0 0 1-.183.195H18.2a2.953 2.953 0 0 0-2.51 1.141m-2.724 2.04L7.107 29.7l-5.848 1.517V20.746l5.848-1.522 5.859 1.522zM2 32.385l5.1-1.328 5.1 1.328zm2.048-15.5a1.488 1.488 0 0 1 1.5-.572l.526.092.172-.515a.732.732 0 0 1 .183-.32.881.881 0 0 1 .652-.195 3.891 3.891 0 0 1 2.449 1.362 6.592 6.592 0 0 1 .744 1l.137.217.126.195a4.383 4.383 0 0 1 .378.652l.767-1.087v-.092a5.4 5.4 0 0 0-.3-.458l-.057-.092-.092-.137c-.092-.137-.206-.332-.263-.435l1.614-2.609a4.578 4.578 0 0 0 .916.1c2.289 0 4.646-1.316 4.646-3.525a11.112 11.112 0 0 0-.229-1.637 5.413 5.413 0 0 1-.114-.732c0-.24.343-.515.824-.515h.824l-.332-1.911a3.983 3.983 0 0 0 1.648-3.2 5.722 5.722 0 0 1 2.06 3.937 6.386 6.386 0 0 1-.195 1.785l-.08.286a24.663 24.663 0 0 1-.858 2.781l-.195.5.469.263c.835.469 1.35.813 1.35 1.911a2.666 2.666 0 0 1-2.232 2.426l-1.5.286 1.27.847a1.431 1.431 0 0 1 .652 1.144 1.465 1.465 0 0 1-1.5 1.431h-.561l-.137.435c-.469 1.511-.973 2.289-2.6 2.415a8.949 8.949 0 0 0 .126-1.534V20.7l-.069-1.408-1 1.007a3.193 3.193 0 0 1-1.591.744v-1.258L7.1 17.942l-2.518.652a1.911 1.911 0 0 1-.538-1.717m7.663-4.577a.183.183 0 0 1 .16-.149h1.064c1.3 0 2.632-.584 2.781-1.945A1.728 1.728 0 0 0 14.133 8.4a3.433 3.433 0 0 0-1.648.755 2.289 2.289 0 0 1-.973.481c-.16 0-.3-.114-.3-.195l.687-.916-.6-.4c-.126-.08-.32-.24-.343-.355s.069-.149.092-.183a11.044 11.044 0 0 0 .813-1.064c.172-.24.275-.378.572-.378a.526.526 0 0 1 .526.515c0 .183.206.332.469.332s.366-.183.526-.332.607-.561.286-.824-1.843.309-1.431-1.041l.1-.217a3.044 3.044 0 0 1 2.289-.732 6.867 6.867 0 0 1 .87.057h.232l3.159-1.843a.71.71 0 0 1 0 .114 2.689 2.689 0 0 1-1.373 2.6l-.378.217.24 1.4a1.774 1.774 0 0 0-1.339 1.625 5.539 5.539 0 0 0 .137.973 9.8 9.8 0 0 1 .206 1.442c0 1.453-2 2.415-3.7 2.357a4.28 4.28 0 0 1-1.419-.3.217.217 0 0 1-.08-.195m2.529-9.663a3.925 3.925 0 0 1 .893-.778 4.1 4.1 0 0 1 1.064-.481 4.326 4.326 0 0 1 2 0l-2.22 1.316a7.908 7.908 0 0 0-.8 0 6.42 6.42 0 0 0-1.03.08l.069-.092m33.463-.389H56A3.857 3.857 0 0 1 52.563 3.9h-6.088a5.5 5.5 0 0 0 1.247-1.614m-.412 4.681H41.2a5.722 5.722 0 0 0 1.35-1.831h8.308a3.845 3.845 0 0 1-3.548 1.831M42.446 10h-6.111a5.653 5.653 0 0 0 1.316-1.762h8.3A3.845 3.845 0 0 1 42.446 10m1.408 4.658a7.61 7.61 0 0 1 4.7 2.586c.252.3.5.618.744.961-3.25-.423-4.383-.9-6.214-3.662l.755.114m12.989 13.4c.114.195.217.378.32.549s.24.423.378.641a2.975 2.975 0 0 1-2.289-1.568 1.408 1.408 0 0 1 1.614.378M49.1 32.3l1.259-.481c1.8-.744 2.06-1.213 1.968-2.415v-4.836C53.7 28 54.989 30.5 57.644 30.5a5.276 5.276 0 0 0 1.144-.137l1.041-.24-.71-.79a6.477 6.477 0 0 1-.927-1.339c-.1-.183-.217-.378-.343-.6a2.655 2.655 0 0 0-3.3-.813A34.257 34.257 0 0 1 52.8 22.36l-.137-.332-.343-.778a24.273 24.273 0 0 0-1.362-2.7 15.622 15.622 0 0 0-1.458-2.073 8.846 8.846 0 0 0-5.459-3.01 31.826 31.826 0 0 0-3.983-.412h-.9c-.629 0-1.923-.137-3.17-.24l-2.426-.229a2.5 2.5 0 0 0 .069-.6 3.273 3.273 0 0 0-.069-.744h8.881a5.127 5.127 0 0 0 4.944-3.01 5.116 5.116 0 0 0 4.9-3.067h.32a5.15 5.15 0 0 0 5.035-3.216l.389-.881h-30.1a4.5 4.5 0 0 0-4.292 3.284v.069a6.374 6.374 0 0 0-2.666-3.353 6.672 6.672 0 0 0-5.089-.887 5.253 5.253 0 0 0-1.408.641 5.115 5.115 0 0 0-1.144 1.053A9.739 9.739 0 0 0 12.3 3.523a2.014 2.014 0 0 0-.4.435l-.4.618a8.56 8.56 0 0 1-1.373 2.209 1.419 1.419 0 0 0-.377 1.224 1.568 1.568 0 0 0 .412.778 1.373 1.373 0 0 0-.183.687 1.453 1.453 0 0 0 1.545 1.4 2.987 2.987 0 0 0 1.648-.572 4.486 4.486 0 0 1 .984-.549.469.469 0 0 1 .458.458c0 .652-.835 1-1.442 1.041l-1.225.126c-.881.08-1.293.549-1.293.961a1.064 1.064 0 0 0 .343.79l.092.092.309.275-1.3 2.048a4.829 4.829 0 0 0-2.968-1.413 2.106 2.106 0 0 0-1.545.538 1.831 1.831 0 0 0-.3.366A2.724 2.724 0 0 0 3 16.18a2.758 2.758 0 0 0 .273 2.72L0 19.785v15.69h60.013V32.3z" class="cls-1" transform="translate(0 -.016)"/>
        <path id="Trazado_128" d="M10.694 19.657L6.78 18.65v1.282l3.914 1.007v-1.282" class="cls-1" transform="translate(.979 2.676)"/>
        <path id="Trazado_129" d="M2.23 20.939l3.914-1.007V18.65L2.23 19.657v1.282" class="cls-1" transform="translate(.322 2.676)"/>
        <path id="Trazado_130" d="M2.23 23.2l3.914-1.019V20.9L2.23 21.919V23.2" class="cls-1" transform="translate(.322 3)"/>
        <path id="Trazado_131" d="M10.694 21.919L6.78 20.9v1.282l3.914 1.018v-1.281" class="cls-1" transform="translate(.979 3)"/>
        <path id="Trazado_132" d="M10.694 24.169L6.78 23.15v1.282l3.914 1.019v-1.282" class="cls-1" transform="translate(.979 3.325)"/>
        <path id="Trazado_133" d="M2.23 25.45l3.914-1.019V23.15L2.23 24.169v1.281" class="cls-1" transform="translate(.322 3.325)"/>
    </g>
</svg>
