<svg xmlns="http://www.w3.org/2000/svg" id="Capa_2" width="72.814" height="42.52" viewBox="0 0 72.814 42.52">
    <defs>
        <style>
            .cls-1{fill:#501b4a}
        </style>
    </defs>
    <g id="Capa_1">
        <path id="Trazado_195" d="M1 42.36a.92.92 0 0 1-1-1v-7.88h1.61V41h4.15v1.32" class="cls-1" transform="translate(.004)"/>
        <path id="Trazado_196" d="M10.93 35L9.4 39.4h3m1 3l-.62-1.75H9.06l-.62 1.75H6.83l3-8.2a1.08 1.08 0 0 1 1.17-.82 1.1 1.1 0 0 1 1.13.77L15 42.36z" class="cls-1" transform="translate(.004)"/>
        <path id="Trazado_197" d="M15.76 37.95c0-3 1.8-4.52 4.25-4.52a9 9 0 0 1 2.53.44l.69.2-.23 1.34-.75-.21a7.81 7.81 0 0 0-2.13-.4c-1.71 0-2.76 1-2.76 3.16s1.11 3.25 2.81 3.25a9 9 0 0 0 1.63-.17V39h-1.94v-1.14h2.4a1 1 0 0 1 1 1v2c0 .74-.2 1.07-.89 1.27a9.45 9.45 0 0 1-2.36.34c-2.48 0-4.29-1.43-4.29-4.5" class="cls-1" transform="translate(.004)"/>
        <path id="Trazado_198" d="M28.76 42.52c-2.33 0-3.59-1.26-3.59-3.37v-5.67h1.6v5.72a1.77 1.77 0 0 0 2 2 1.77 1.77 0 0 0 2-2v-5.72h1.6v5.67c0 2.11-1.27 3.37-3.6 3.37" class="cls-1" transform="translate(.004)"/>
        <path id="Trazado_199" d="M35.76 42.36h-1.41v-7.94c0-.68.42-1 1.11-1a1.28 1.28 0 0 1 1.15.67l3.65 6.12v-6.73h1.42v7.94c0 .67-.42 1-1.12 1a1.23 1.23 0 0 1-1.12-.67l-3.68-6.12" class="cls-1" transform="translate(.004)"/>
        <path id="Trazado_200" d="M50.71 35l-1.52 4.4h3m1 3l-.62-1.75h-3.73l-.62 1.75h-1.61l3-8.2a1.08 1.08 0 0 1 1.16-.78 1.1 1.1 0 0 1 1.13.77l2.89 8.21z" class="cls-1" transform="translate(.004)"/>
        <path id="Trazado_201" d="M60 34.68h-2.26v3.12h2.63l.41-.56a2.09 2.09 0 0 0 .5-1.21A1.19 1.19 0 0 0 60 34.68m1.59 7.69L60.05 39h-2.31v3.39h-1.59v-7.95a.92.92 0 0 1 1-1h3A2.34 2.34 0 0 1 62.8 36a2.83 2.83 0 0 1-.7 1.79l-.6.76 1.75 3.83z" class="cls-1" transform="translate(.004)"/>
        <path id="Trazado_202" d="M68.56 34.65c-1.64 0-2.59 1.18-2.59 3.3s1 3.31 2.65 3.31 2.58-1.18 2.58-3.31-1-3.3-2.64-3.3m0 7.81c-2.52 0-4.21-1.64-4.21-4.51s1.75-4.53 4.26-4.53 4.2 1.63 4.2 4.53-1.72 4.51-4.25 4.51" class="cls-1" transform="translate(.004)"/>
        <path id="Rectángulo_126" fill="#b60057" d="M0 0H26.2V9.46H0z" transform="translate(46.594 13.41)"/>
        <path id="Trazado_203" fill="#8abd24" d="M72.79 11.57l-26.2 18.34V18.33L72.79 0" transform="translate(.004)"/>
        <path id="Trazado_204" d="M70.16 13.41H53.63l-7.04 4.92v4.53h10.07" class="cls-1" transform="translate(.004)"/>
        <path id="Trazado_205" fill="#fff" d="M55.2 18.61c-.08.4 0 1.66.49 1.75s.57-.18.86-.32c0 .57.05 1.1.07 1.67H54c.17-1.38.22-2.3.27-3.12a3.26 3.26 0 0 1-1.61-.67 1.77 1.77 0 0 1-.71-1.3c-.06-.92 1.15-2.07 2.72-2.07a4.41 4.41 0 0 1 1 .07 2.28 2.28 0 0 0-.28 1 1.73 1.73 0 0 0-.5-.07c-1.14 0-1.44.77-1.44 1.05 0 .75.73 1 1.28 1.06a1.7 1.7 0 0 0 1.12-.28 1 1 0 0 0 .44-.5 2.18 2.18 0 0 0 1.43 0c-.11 1-1.4 1.68-2.47 1.72" transform="translate(.004)"/>
    </g>
</svg>
