<svg xmlns="http://www.w3.org/2000/svg" id="Capa_2" width="85" height="21.1" viewBox="0 0 85 21.1">
    <defs>
        <style>
            .cls-1,.cls-2{fill:#004b93}.cls-1{fill-rule:evenodd}
        </style>
    </defs>
    <g id="Capa_1">
        <path id="Trazado_134" d="M3.34 16.73l1-3.32h3.9l.93 3.32h3.63L9.18 4.08A1.33 1.33 0 0 0 7.75 3H2.61v1.18H3c.54 0 .82.21.82.62a3.47 3.47 0 0 1-.22 1.11L0 16.73h3.34m4.41-5.56H4.84l1.55-5z" class="cls-1"/>
        <path id="Trazado_135" d="M17 16.73V4a1 1 0 0 0-1-1h-3.23v1.18H13c.54 0 .76.23.76.76v11.79H17" class="cls-2"/>
        <path id="Trazado_136" d="M22.46 16.73V4a1 1 0 0 0-1-1h-3.2v1.18h.21c.54 0 .76.23.76.76v11.79h3.23" class="cls-2"/>
        <path id="Trazado_137" d="M28 16.73V7.48a1 1 0 0 0-1-1.05h-3.12V7.6h.19c.54 0 .76.24.76.78v8.34H28m.1-12.48c0-.93-.68-1.49-1.85-1.49s-1.86.56-1.86 1.49.7 1.48 1.86 1.48 1.85-.55 1.85-1.48z" class="cls-1"/>
        <path id="Trazado_138" d="M30.77 9.37a7.82 7.82 0 0 1 3.17-.8c.87 0 1.18.31 1.18 1.22V10c-1.32.21-1.73.29-2.47.46a6.93 6.93 0 0 0-1.21.39 3 3 0 0 0-1.92 3.07c0 2 .85 2.91 2.6 2.91a4.62 4.62 0 0 0 1.73-.33 5.85 5.85 0 0 0 1.38-.88v.15a.86.86 0 0 0 1 1h2.94v-1.16H39c-.56 0-.76-.25-.76-.91V9.8c0-2.62-.91-3.52-3.52-3.52a11.08 11.08 0 0 0-2.47.29 8.56 8.56 0 0 0-2.18.83l.72 2m4.35 2.41v2a2.63 2.63 0 0 1-1.75.88c-.58 0-.79-.29-.79-1.05s.17-1.11.74-1.34a8.1 8.1 0 0 1 1.78-.52z" class="cls-1"/>
        <path id="Trazado_139" d="M43.83 16.73v-7a2.25 2.25 0 0 1 1.73-.87c.68 0 .84.27.84 1.3v6.53h3.22v-7c0-1.63-.13-2.14-.64-2.7A2.51 2.51 0 0 0 47 6.31a4.46 4.46 0 0 0-3.34 1.5V7.4a.87.87 0 0 0-1-1h-2.99v1.2h.19c.54 0 .77.24.77.78v8.34h3.21" class="cls-1"/>
        <path id="Trazado_140" d="M59.15 14.56h-4.49l4.29-6V6.42h-6.72a1 1 0 0 0-1.11 1.11v1.88h1.19v-.18c0-.47.25-.7.76-.7h2.31l-4.32 6.08v2.12h8.09v-2.17" class="cls-2"/>
        <path id="Trazado_141" d="M85 10.55A10.55 10.55 0 1 0 74.45 21.1 10.55 10.55 0 0 0 85 10.55m-1.79 0a8.755 8.755 0 1 1-8.755-8.755 8.755 8.755 0 0 1 8.755 8.755zm-11.58 5.91V6.16h-1.8c-.88 0-1.24.33-1.24 1.24v9.06zm5.72 0h3V7.4c0-.9-.35-1.24-1.23-1.24h-1.8zm-1.34 0V4.82c0-.93-.33-1.24-1.24-1.24h-2.71v1.3h.17c.61 0 .74.14.74.89v10.69z" class="cls-1"/>
    </g>
</svg>
