<svg xmlns="http://www.w3.org/2000/svg" id="Capa_2" width="99.95" height="50.671" viewBox="0 0 99.95 50.671">
    <defs>
        <style>
            .cls-1{fill:#003671}.cls-2{fill:#fff}
        </style>
    </defs>
    <g id="Capa_1">
        <path id="Trazado_78" d="M36.38 21.559c0 .952.4 1.191 1.845 1.191s2.1-.452 3.024-2.381h.345l-.345 3.024H32.32v-.321c1.345-.345 1.476-.655 1.476-1.9V13.8c0-1.024-.25-1.322-1.476-1.631v-.349h5.572v.345c-1.191.3-1.5.524-1.5 1.548z" class="cls-1" transform="translate(6.184 2.253)"/>
        <path id="Trazado_79" d="M43.847 21.271a1.164 1.164 0 0 0 1.191 1.274v.321h-4.763v-.321c1.024-.2 1.274-.476 1.274-1.453V17.1c0-.929-.274-1.191-1.369-1.4v-.345l3.357-.274h.345z" class="cls-1" transform="translate(7.682 2.874)"/>
        <path id="Trazado_80" d="M42.532 11.15a1.286 1.286 0 0 1 1.3 1.274 1.31 1.31 0 0 1-1.3 1.322 1.333 1.333 0 0 1-1.322-1.322 1.31 1.31 0 0 1 1.322-1.274" class="cls-1" transform="translate(7.879 2.125)"/>
        <path id="Trazado_81" d="M49.06 16.112c1.191.131 2 1.381 2 3.1 0 2.024-.774 3.072-2 3.346v.619c3.25-.2 4.5-2.024 4.5-4.227a3.715 3.715 0 0 0-3.572-3.905 3.786 3.786 0 0 0-.9.131z" class="cls-1" transform="translate(9.375 2.866)"/>
        <path id="Trazado_82" d="M47.919 17.722c.774-.7 1.191-.9 1.774-.9a.7.7 0 0 1 .226 0v-.929a4.381 4.381 0 0 0-2 1.191V11.15H47.6l-3.048.2v.35c.7.131 1.119.476 1.119 1.131v10.8a18.5 18.5 0 0 0 3.679.3h.571v-.619a2.7 2.7 0 0 1-.8.1c-.9 0-1.191-.4-1.191-1.274z" class="cls-1" transform="translate(8.515 2.125)"/>
        <path id="Trazado_83" d="M57 15.612c.9 0 1.524 1.024 1.6 2.381H57v.452h4.048a3.8 3.8 0 0 0-3.948-3.404H57z" class="cls-1" transform="translate(10.888 2.866)"/>
        <path id="Trazado_84" d="M57 22.3v-1.2a2.143 2.143 0 0 0 1.024.25 3.119 3.119 0 0 0 2.667-1.65h.345A4.31 4.31 0 0 1 57 22.3z" class="cls-1" transform="translate(10.888 3.754)"/>
        <path id="Trazado_85" d="M56.006 18c.071-1.453.679-2.381 1.6-2.381v-.549a4.084 4.084 0 0 0-4.072 4.119 3.953 3.953 0 0 0 4.131 3.988v-1.19a3.465 3.465 0 0 1-1.643-3.5h1.643v-.452z" class="cls-1" transform="translate(10.227 2.872)"/>
        <path id="Trazado_86" d="M42.23 31.909c.881 0 1.524 1 1.6 2.381h-1.6v.452h3.977a3.679 3.679 0 0 0-3.869-3.322h-.1z" class="cls-1" transform="translate(8.073 5.987)"/>
        <path id="Trazado_87" d="M42.23 38.476v-1.191a1.988 1.988 0 0 0 1 .25 3.072 3.072 0 0 0 2.655-1.6h.321a4.167 4.167 0 0 1-3.953 2.548z" class="cls-1" transform="translate(8.073 6.849)"/>
        <path id="Trazado_88" d="M41.259 34.275c.071-1.4.679-2.381 1.572-2.381v-.524a3.988 3.988 0 0 0-4 4.024 3.881 3.881 0 0 0 4 3.929v-1.191a3.393 3.393 0 0 1-1.62-3.432h1.619v-.452z" class="cls-1" transform="translate(7.425 5.979)"/>
        <path id="Trazado_89" d="M67.606 17.977a2.691 2.691 0 0 0-1.75-.977c-.679 0-1.1.274-1.679 1.072v3.072c0 .893.179 1.191 1.274 1.4v.321h-4.762v-.321c1-.25 1.191-.548 1.191-1.4v-3.965a1.274 1.274 0 0 0-1.37-1.479v-.345l3.3-.3h.345v2.381c.75-1.631 1.572-2.381 2.5-2.381a1.8 1.8 0 0 1 1.345.66z" class="cls-1" transform="translate(11.557 2.87)"/>
        <path id="Trazado_90" d="M69.438 34.223a2.81 2.81 0 0 0-1.7-.976c-.679 0-1.1.274-1.679 1.072v3.048c0 .9.179 1.191 1.274 1.369v.357h-4.764v-.357c1-.226 1.191-.524 1.191-1.369v-3.942c0-.952-.4-1.381-1.369-1.453v-.345l3.3-.3h.345v2.381c.75-1.631 1.572-2.381 2.5-2.381a1.786 1.786 0 0 1 1.345.643z" class="cls-1" transform="translate(11.915 5.971)"/>
        <path id="Trazado_91" d="M79.061 15.775v.345c.952.2 1.191.8.5 2.381l-1.048 2.381-1.572-3.274c-.476-.976-.476-1.4.369-1.524v-.345h-6.643V12.87h-.381A14.168 14.168 0 0 1 67 16v.381h1.345v4.846a2.262 2.262 0 0 0 2.572 2.381 2.524 2.524 0 0 0 2.383-1.321l-.226-.226a1.417 1.417 0 0 1-1.1.6c-1.048 0-1.369-.726-1.369-1.929V16.37h2c1.1 0 1.429.393 1.9 1.429l2.75 5.8c-.893 2.476-1.7 3.476-3.1 3.476a2.964 2.964 0 0 1-1.024-.179l-.452 2.274a2.917 2.917 0 0 0 .631 0c1.572 0 2.381-.679 3.226-2.5l3.81-8.67c.6-1.4.845-1.679 1.8-1.929v-.345z" class="cls-1" transform="translate(12.794 2.453)"/>
        <path id="Trazado_92" d="M34.638 19.5c-.1-.155-.369 0-.369 0l-4.5 1.6a17.1 17.1 0 0 0-1.191-2.381l1.453-3.929s.179-.4 0-.5-.429.179-.429.179l-2.584 2.2a11.358 11.358 0 0 0-3.572-2.6 13.418 13.418 0 0 0-1.6-.571l-.8-3.1s-.071-.3-.274-.3-.274.274-.274.274l-.564 2.728a13.168 13.168 0 0 0-1.75-.1 12.3 12.3 0 0 0-5.2 1.048 10.108 10.108 0 0 0-1.822 1.024 2.584 2.584 0 0 0-.274.226c-.548-1.4-.976-2.524-1.048-2.869a5 5 0 0 0 1.07-1.929 3.3 3.3 0 0 0-.071-2.167 7.929 7.929 0 0 1-.476-1.322.893.893 0 0 1 .274-.524.607.607 0 0 0-.548-.536 5.012 5.012 0 0 0-.655 0c-.071 0-.167 0-.1-.357s1.191-.774 2-1.1a2.441 2.441 0 0 0 1.7-2.381A1.941 1.941 0 0 0 11.91.226a2.679 2.679 0 0 1-1 1.048 1.7 1.7 0 0 1-1.191.179A1.429 1.429 0 0 0 9.017 0a1.75 1.75 0 0 1-1.608.655A20.9 20.9 0 0 0 5.266.429a3.143 3.143 0 0 0-3.357 2.6A3.572 3.572 0 0 0 2.457 5.3a5 5 0 0 0-.821.8.631.631 0 0 0-.869-.071 1.1 1.1 0 0 1 0 .75A9.632 9.632 0 0 0 0 9.251a3.1 3.1 0 0 0 1.679 3.155.786.786 0 0 0-.1.8.643.643 0 0 0 .6.3.845.845 0 0 0-.155.869c.155.381.571.9.929.9a8.048 8.048 0 0 0 .2 1.322 1.25 1.25 0 0 0-.226.822.9.9 0 0 0 .679.9 2.25 2.25 0 0 0 .274.6 2.048 2.048 0 0 0 .524.5 1.572 1.572 0 0 0 .929.345 3.572 3.572 0 0 0 .845 0c0 .1 0 1.072.1 2.131a25.443 25.443 0 0 0-1.369 8.644c0 5.655 1.6 10.715 4.7 13.93a2.988 2.988 0 0 0 .679.548 32.991 32.991 0 0 1 2.381-3.572 16.287 16.287 0 0 1 1.191-1.369c.726-.631 1.429-1.191 2.1-1.679a17.716 17.716 0 0 1 6.227-2.679 24.657 24.657 0 0 0-5.822 3.727 21.347 21.347 0 0 0-5.1 6.155 2.512 2.512 0 0 0 1.25.548 32.5 32.5 0 0 1 4.453-5.8 21.216 21.216 0 0 1 14.216-5.822 30.216 30.216 0 0 0 .274-4.024 27.645 27.645 0 0 0-.7-6.417l3.774-4.191s.274-.274.155-.4" class="cls-1" transform="translate(.021)"/>
        <path id="Trazado_93" d="M6.14 15.451a2.857 2.857 0 0 0-1.3-.4 2.453 2.453 0 0 0-1.274.369.464.464 0 0 1-.119-.6.386.386 0 0 1 .274-.274l-.155-2.381a6.584 6.584 0 0 1 .845-.524.357.357 0 0 0 .25-.381 4.5 4.5 0 0 1 .976.976 1.893 1.893 0 0 1 .381 1.024 7.941 7.941 0 0 1-.083 1.262.738.738 0 0 1 .321.452.774.774 0 0 1-.131.429" class="cls-2" transform="translate(.671 2.146)"/>
        <path id="Trazado_94" d="M24.025 21.717a4.6 4.6 0 0 0-.9-1.976l5.655-2.5z" class="cls-2" transform="translate(4.431 3.286)"/>
        <path id="Trazado_95" d="M10.89 13.14l4.762 4.346a3.369 3.369 0 0 0-1.345 1.524z" class="cls-2" transform="translate(2.1 2.504)"/>
        <path id="Trazado_96" d="M13.534 20.48a1.631 1.631 0 0 0-.286.774 1.786 1.786 0 0 0 0 .726l-1.453-1a9.073 9.073 0 0 0-.1-1.191 1.047 1.047 0 0 1 0-.119z" class="cls-2" transform="translate(2.254 3.749)"/>
        <path id="Trazado_97" d="M6.865 22.958c-.107-.143-.548-8.965-.548-9.275l.476-.345v-.071a1.191 1.191 0 0 1-.869-.345l-.119-2.7a2.381 2.381 0 0 1-1.19-.372.75.75 0 0 1-.155-1 3.226 3.226 0 0 0 1.524.369c.131 0 .4.274.548.345s.476.226.6.274.2.345.25.452 4.405 11.453 4.477 11.572a21.319 21.319 0 0 1 .321 2.179 14.215 14.215 0 0 0 .8 1.822 3.405 3.405 0 0 0-2.3 1.072 7.465 7.465 0 0 0-1.6 3.131c0-.4-2.179-6.929-2.274-7.143" class="cls-2" transform="translate(.851 1.687)"/>
        <path id="Trazado_98" d="M11.627 30.953a11.37 11.37 0 0 1-1.191 4.322c-.429.7-1.572 2.1-1.976 2.643a12.251 12.251 0 0 0 .643-4.6 24.752 24.752 0 0 1 0-4.953 5.691 5.691 0 0 1 1.869-3.565 3.572 3.572 0 0 1 3.405-.774l1.323 2.521a3.191 3.191 0 0 0-2.3.476 5.215 5.215 0 0 0-1.774 3.953" class="cls-2" transform="translate(1.637 4.55)"/>
        <path id="Trazado_99" d="M11.222 33.825a23.2 23.2 0 0 0 .869-3.572 4.667 4.667 0 0 1 1.369-3.107 2.25 2.25 0 0 1 1.726-.369l1.524 3.072a.869.869 0 0 0 .869.429 23.062 23.062 0 0 0-6.37 3.5" class="cls-2" transform="translate(2.161 5.095)"/>
        <path id="Trazado_100" d="M22.1 24.581a.952.952 0 0 0 0 1.024l.952 1.75a7.857 7.857 0 0 0 .7 1.453h1.4c-.56-1.131-1.786-3.512-1.786-3.512l-.071-1.845a4.536 4.536 0 0 0-1.191 1.1" class="cls-2" transform="translate(4.209 4.469)"/>
        <path id="Trazado_101" d="M16.64 17.364a5.262 5.262 0 0 1 2.381.226L17.64 9.78z" class="cls-2" transform="translate(3.196 1.864)"/>
        <path id="Trazado_102" d="M14.259 19.32a2.6 2.6 0 0 0 0 1.4 1.441 1.441 0 0 0-.6.952 1.036 1.036 0 0 0 .226.881 1.774 1.774 0 0 1 .429-1.024 2.8 2.8 0 0 1 .9-.6v.655c-.3.179-.679.548-.7.75v1.072l.8-.476.179.321-.238 1.881.452-.071.845.321-.821.7v.274a.464.464 0 0 1 .429-.143 4.512 4.512 0 0 1 1.024.321v.179h-1.449a.582.582 0 0 0 .226.429 4.309 4.309 0 0 1 .5-.143 1.969 1.969 0 0 1 .571.071l-.25.345a.56.56 0 0 1-.4 0c-.119 0-.25.179-.25.321a3.571 3.571 0 0 0 .1.571.631.631 0 0 0 .822.476 11.548 11.548 0 0 0 1.7-.5l-1.191 1.75.548 1.881a28.693 28.693 0 0 1 5.953-1.655 14.369 14.369 0 0 1-.75-1.333l-1.388-3.106.2-.452a1.31 1.31 0 0 0 1.05-.368 3.107 3.107 0 0 0 .8-.952.5.5 0 0 0-.524 0c-.155.131-.274.321-.5.226s-.119-.381-.1-.631-.3-.25-.5 0a.81.81 0 0 1-.976-.2 17.609 17.609 0 0 0-2.276-1.778 3.786 3.786 0 0 0-2.476-.429c-.429.071-.726.274-.9.2l-.464-.893h.071c.2.1.369.25.619.155a7.143 7.143 0 0 1 1.691-.31 8.334 8.334 0 0 1 3 .631c0 .7 1.453 1.6 2.1 1.679a1.631 1.631 0 0 0 1.191-.274l-1.4-1.191.75-.929s1.191 1.131 1.322 1.345a1.191 1.191 0 0 0 0-.5 7.941 7.941 0 0 0-2.453-2.548 8.025 8.025 0 0 0-4.322-1.774 3.465 3.465 0 0 0-3.572 2.524" class="cls-2" transform="translate(2.625 3.206)"/>
        <path id="Trazado_103" d="M7.427 10.291a.723.723 0 0 0-.25-.452c-.119-.048-.429-.226-.6-.274s-.429-.345-.548-.345a3.226 3.226 0 0 1-1.519-.37.75.75 0 0 0 .155 1 2.381 2.381 0 0 0 1.191.369l.119 2.7a1.191 1.191 0 0 0 .881.345v.071l-.476.345c0 .3.429 9.12.524 9.275s2.226 6.7 2.274 7.143a7.322 7.322 0 0 1 1.548-3.215 3.405 3.405 0 0 1 2.3-1.072 14.287 14.287 0 0 1-.762-1.774c0-.155-.274-2.048-.321-2.179S7.5 10.41 7.427 10.291" class="cls-2" transform="translate(.86 1.687)"/>
        <path id="Trazado_104" d="M4.9 8.375a2.869 2.869 0 0 1 2.1.774 1.191 1.191 0 0 0-.417-1.072A2.893 2.893 0 0 0 4.807 7.6a2.524 2.524 0 0 0-1.507.477A1.024 1.024 0 0 0 3 9.149c.1-.345.881-.75 1.9-.75" class="cls-2" transform="translate(.587 1.448)"/>
        <path id="Trazado_105" d="M2.74 3.119a2.119 2.119 0 0 0 .3 1.191c.119.179.429.5.655.476s.6-.6 1.322-.571c.452 0 .774.679 1.191.7s.476-.274.774-.321.345.1.524.274a1.75 1.75 0 0 1 .679-.726c.476-.381 2.155-.7 2.845-1.345a1.274 1.274 0 0 0 .357-1.25 2.512 2.512 0 0 1-1.726.822 5.346 5.346 0 0 1-1.548-.3.976.976 0 0 0 .071-.881 4.131 4.131 0 0 1-1.655.3c-.4 0-1.191-.179-1.774-.155A1.964 1.964 0 0 0 2.74 3.119" class="cls-2" transform="translate(.547 .227)"/>
        <path id="Trazado_106" d="M5.348 6.575c2.869 0 4.155 1.381 4.2 2.453a1.845 1.845 0 0 0 .1-.976c0-.3-.452-1.119-.476-1.4a3.464 3.464 0 0 1 .167-.7c-.2 0-.822.3-1.1.071s-.1-.8-.524-.964-.976.3-1.345.25-.7-.571-1.1-.571-.6.476-1.1.6-.8-.131-1.06-.107a.6.6 0 0 0-.5.429.631.631 0 0 1-.5.429c-.226 0-.548-.155-.726-.119a1.191 1.191 0 0 1 .071.952A3.929 3.929 0 0 0 .991 8.1a1.75 1.75 0 0 0 .2.929C1.121 7.48 2.848 6.48 5.348 6.528" class="cls-2" transform="translate(.213 .901)"/>
        <path id="Trazado_107" d="M3.309 11.193a1.8 1.8 0 0 0-.822.726 1.8 1.8 0 0 0 .524.845 1.619 1.619 0 0 1 .452-.7 2.215 2.215 0 0 1 .5-.3.286.286 0 0 0 .2-.3.738.738 0 0 0-.1-.4c.155 0 .429 0 .5-.119a.762.762 0 0 0 .155-.476c0-.155-.071-.179-.25-.2s-.619 0-.869 0l.476-.226a.345.345 0 0 0 .179-.25 1.6 1.6 0 0 0 0-.548 4.167 4.167 0 0 0-1.75.726l.2.476h-.418a1.4 1.4 0 0 0 .071.845 4.393 4.393 0 0 1 .952-.071" class="cls-2" transform="translate(.454 1.761)"/>
        <path id="Trazado_108" d="M14.621 20.131a5.739 5.739 0 0 1 1.191-.869l-.452-1.072a2.238 2.238 0 0 0-.726 1.953" class="cls-1" transform="translate(2.81 3.467)"/>
        <path id="Trazado_109" d="M16.229 19.205a4.762 4.762 0 0 1 2.476.119l.25-1.429a3.691 3.691 0 0 0-1.631-.345 2.75 2.75 0 0 0-1.524.4z" class="cls-1" transform="translate(3.036 3.344)"/>
        <path id="Trazado_110" d="M20.945 20.5l.7-.952a19.455 19.455 0 0 0-2.3-1.453l-.5 1.322a16.918 16.918 0 0 1 2.1 1.072" class="cls-1" transform="translate(3.617 3.45)"/>
        <path id="Trazado_111" d="M15.824 22.152a1.643 1.643 0 0 1 .75.631l.452-.1-.2-.3a1.941 1.941 0 0 1 .6-.155 1.333 1.333 0 0 1 .9.226l.929-.226.119-.2a3.191 3.191 0 0 0-2.381-.822 5.381 5.381 0 0 0-1.191.452z" class="cls-1" transform="translate(3.036 4.041)"/>
        <path id="Trazado_112" d="M20.46 17.894a11.465 11.465 0 0 1 1.953 1.381l2.881-6.155z" class="cls-2" transform="translate(3.924 2.5)"/>
        <path id="Trazado_113" fill="none" stroke="#003671" stroke-miterlimit="3.86" stroke-width="0.42px" d="M84.216 25h9.525M32.45 25h45.671" transform="translate(6.209 4.765)"/>
        <path id="Trazado_114" d="M35.415 39.832a10.6 10.6 0 0 1-2.381-.4.786.786 0 0 0-.3.345h-.474v-3.291h.452c.345 1.191 1.322 2.679 2.845 2.679s2.1-.5 2.1-1.4c0-1.453-1.524-2.226-2.619-2.75a4.2 4.2 0 0 1-2.7-3.572 3.346 3.346 0 0 1 4.062-3.35 14.953 14.953 0 0 0 1.75.25.329.329 0 0 0 .3-.226h.429v3a3.785 3.785 0 0 1-.429 0c-.3-.929-1.119-2.3-2.381-2.3s-2 .6-2 1.5 1.191 1.75 2.155 2.226l1.191.7c1.1.822 2.048 1.322 2.072 3.476s-1.381 3.048-4.072 3.048" class="cls-1" transform="translate(6.173 5.339)"/>
        <path id="Trazado_115" d="M79.551 39.248c-1.072 0-.952-.274-1.75-.226a.5.5 0 0 0-.429.2h-.429v-2.891h.429c.274.845.9 2.048 2.048 2.226s1.643-.226 1.643-.9c0-.929-1.191-1.345-2-1.7-1-.452-2.143-.845-2.143-2.381s1.191-2.276 3.131-2.076a10.144 10.144 0 0 0 1.345.1.2.2 0 0 0 .226-.143h.478v2.3h-.4a2.381 2.381 0 0 0-1.9-1.75c-.9 0-1.345.274-1.322.9s.631.821 1.726 1.191c1.381.452 2.619 1.191 2.3 3.048-.226 1.25-.952 2.1-2.929 2.048" class="cls-1" transform="translate(14.684 5.994)"/>
        <path id="Trazado_116" d="M62.486 37.045c0 1.643 1.191 1.476 1.191 1.476v.5a31.818 31.818 0 0 0-3.429.2V37.95c0-.143 0-.179-.155-.179a2.822 2.822 0 0 1-2.786 1.488c-1.548 0-2.226-.8-2.226-2.381v-3.2c0-1.857-1.191-1.476-1.191-1.476v-.5l2.1-.131a5.618 5.618 0 0 0 1.274-.179v4.941c0 .9.2 1.679 1.4 1.679a1.631 1.631 0 0 0 1-.429 2.131 2.131 0 0 0 .524-.857v-3.574A1.012 1.012 0 0 0 59.14 32.1v-.452a21.525 21.525 0 0 0 3.226-.25v5.62" class="cls-1" transform="translate(10.295 5.982)"/>
        <path id="Trazado_117" d="M72.729 32.126c1.4.1 1.953 1.822 1.845 3.727s-.679 3-2.024 2.929v.488c2.381 0 4.524-1.3 4.524-3.977s-2.107-3.953-4.453-3.953h-.071v.786z" class="cls-1" transform="translate(13.851 5.973)"/>
        <path id="Trazado_118" d="M73.277 38.7c-1.453-.131-2.155-1.7-1.976-3.774s.941-2.822 1.976-2.822v-.674c-2.3 0-4.5 1.5-4.477 4.1s2.072 3.727 4.417 3.727z" class="cls-1" transform="translate(13.137 5.99)"/>
        <path id="Trazado_119" d="M51.012 37.6a10.045 10.045 0 0 1-1.572-.1v1.929h.655c1.631.226 2.845 1.024 2.75 1.8s-1.5 1.191-3.119.976h-.274v1.274a5.881 5.881 0 0 0 3.643-1.1 3.1 3.1 0 0 0 1-1.75v-.655a3.286 3.286 0 0 0-3.119-2.374" class="cls-1" transform="translate(9.447 7.147)"/>
        <path id="Trazado_120" d="M49.44 37.267c2.75 0 3.846-1.476 3.774-2.869a2.083 2.083 0 0 0-.726-1.524h1.679V31.6h-3.1a5.358 5.358 0 0 0-1.572-.25v.774c.869 0 1.6.8 1.6 2.381s-.679 2.1-1.453 2.1a.31.31 0 0 1-.155 0z" class="cls-1" transform="translate(9.447 5.975)"/>
        <path id="Trazado_121" d="M50.134 38.661c-.929 0-1.869-.226-1.929-.75s1.191-.7 1.476-.679h.452v-.7c-.929-.071-1.6-1.024-1.6-2.5s.762-1.917 1.548-1.917v-.7h-.119c-2.453 0-3.679 1.476-3.679 3.024s1.191 2.1 2.131 2.5c.1.155-.1.179-.345.25s-1.75.119-1.75 1.5 1.191 1.345 1.9 1.572c.179 0 .155.179-.131.2a5.6 5.6 0 0 0-1.345.5 1.75 1.75 0 0 0-.943 1.569c0 1.191 1.631 2.155 4.3 2.155v-1.322c-1.476-.274-2.548-1.024-2.453-1.75s1.131-1.048 2.453-1.024z" class="cls-1" transform="translate(8.753 5.986)"/>
    </g>
</svg>
