<svg xmlns="http://www.w3.org/2000/svg" id="Capa_2" width="61.236" height="37.739" viewBox="0 0 61.236 37.739">
    <defs>
        <style>
            .cls-3{fill:#1d1d1b}.cls-4{fill:#5c98c0}.cls-5{fill:#152864}
        </style>
    </defs>
    <g id="Capa_1">
        <path id="Línea_7" fill="none" stroke="#fff" stroke-width="0.13px" d="M0 0L0 0" transform="translate(56.382 1.168)"/>
        <path id="Trazado_224" d="M10.115 31.875h1.215l-.186.719a2.573 2.573 0 0 1 1.774-.834 1.331 1.331 0 0 1 .781.2 1.074 1.074 0 0 1 .408.63 3.38 3.38 0 0 1 .887-.63 1.987 1.987 0 0 1 .887-.2 1.428 1.428 0 0 1 .887.24 1 1 0 0 1 .39.692 3.15 3.15 0 0 1-.2 1.056l-.887 3.363h-1.325l.79-3.008a2.316 2.316 0 0 0 .124-1.011.452.452 0 0 0-.479-.231 1.082 1.082 0 0 0-.568.177 1.428 1.428 0 0 0-.488.523 4.667 4.667 0 0 0-.4 1.074l-.657 2.529h-1.32l.772-2.9a4.338 4.338 0 0 0 .186-.994.461.461 0 0 0-.133-.328.541.541 0 0 0-.373-.106 1.144 1.144 0 0 0-.594.177 1.375 1.375 0 0 0-.479.5 4.693 4.693 0 0 0-.381 1.074l-.665 2.555H8.74z" class="cls-3" transform="translate(-.986 -3.567)"/>
        <path id="Trazado_225" d="M20.305 33.5l-1.136-.222a2.883 2.883 0 0 1 .994-1.144 2.919 2.919 0 0 1 1.561-.373 2.662 2.662 0 0 1 1.26.222.887.887 0 0 1 .461.559 2.937 2.937 0 0 1-.142 1.207l-.444 1.624a6.282 6.282 0 0 0-.2 1.038 2.662 2.662 0 0 0 .053.71H21.4v-.571a3.407 3.407 0 0 1-.887.523 2.3 2.3 0 0 1-.887.177 1.278 1.278 0 0 1-1.1-.444 1.251 1.251 0 0 1-.151-1.118 2.005 2.005 0 0 1 .408-.8 1.952 1.952 0 0 1 .71-.532 5.226 5.226 0 0 1 1.136-.328 8.419 8.419 0 0 0 1.393-.284V33.6a.657.657 0 0 0 0-.577q-.142-.169-.665-.169a1.091 1.091 0 0 0-.594.151 1.49 1.49 0 0 0-.452.523m1.482 1.1a9.109 9.109 0 0 1-.887.213 2.928 2.928 0 0 0-.781.24.816.816 0 0 0-.382.488.577.577 0 0 0 .071.506.532.532 0 0 0 .47.213 1.393 1.393 0 0 0 .745-.248 1.269 1.269 0 0 0 .435-.461 3.469 3.469 0 0 0 .231-.683z" class="cls-3" transform="translate(-2.064 -3.567)"/>
        <path id="Trazado_226" d="M24.31 36.905l1.907-7.275h1.322l-1.907 7.275z" class="cls-3" transform="translate(-2.742 -3.327)"/>
        <path id="Trazado_227" d="M27.21 36.905l1.907-7.275h1.322l-1.907 7.275z" class="cls-3" transform="translate(-3.069 -3.327)"/>
        <path id="Trazado_228" d="M30.542 34.438a3.842 3.842 0 0 1 .674-1.349A3.38 3.38 0 0 1 32.4 32.1a3.123 3.123 0 0 1 1.42-.346 1.845 1.845 0 0 1 1.65.781 2.342 2.342 0 0 1 .213 1.97 3.8 3.8 0 0 1-1.251 1.987 3.105 3.105 0 0 1-2.049.79 2.3 2.3 0 0 1-1.224-.328 1.508 1.508 0 0 1-.692-.958 3.15 3.15 0 0 1 .08-1.544m1.34.071a1.606 1.606 0 0 0 0 1.207.816.816 0 0 0 .763.417 1.428 1.428 0 0 0 .976-.417 2.413 2.413 0 0 0 .665-1.215 1.6 1.6 0 0 0 0-1.189.807.807 0 0 0-.754-.417 1.437 1.437 0 0 0-.976.417 2.387 2.387 0 0 0-.665 1.2" class="cls-3" transform="translate(-3.429 -3.566)"/>
        <path id="Trazado_229" d="M37.892 37.145H36.57l1.384-5.27h1.224l-.2.745a3.2 3.2 0 0 1 .754-.692 1.242 1.242 0 0 1 .612-.169 1.3 1.3 0 0 1 .807.257l-.728 1.215a.843.843 0 0 0-1.074-.071 1.588 1.588 0 0 0-.452.586 10.008 10.008 0 0 0-.577 1.774z" class="cls-3" transform="translate(-4.125 -3.567)"/>
        <path id="Trazado_230" d="M43.526 39.138l.683-2.662a2.724 2.724 0 0 1-.79.559 2.067 2.067 0 0 1-.887.2 1.3 1.3 0 0 1-1.224-.674 2.866 2.866 0 0 1-.089-2.138 3.913 3.913 0 0 1 1.127-1.987 2.52 2.52 0 0 1 1.7-.71 1.366 1.366 0 0 1 .807.222 1.384 1.384 0 0 1 .47.674l.2-.781h1.215l-1.9 7.275zm1.269-4.693a1.775 1.775 0 0 0 0-1.207.71.71 0 0 0-.674-.4 1.3 1.3 0 0 0-.887.408 2.662 2.662 0 0 0-.657 1.278 1.837 1.837 0 0 0 0 1.26.7.7 0 0 0 .665.39 1.34 1.34 0 0 0 .887-.435 2.662 2.662 0 0 0 .683-1.3" class="cls-3" transform="translate(-4.631 -3.564)"/>
        <path id="Trazado_231" d="M50.619 37.16l.2-.79a2.972 2.972 0 0 1-.887.674 2.28 2.28 0 0 1-1 .248 1.455 1.455 0 0 1-.887-.231.949.949 0 0 1-.408-.657 3 3 0 0 1 .124-1.171l.887-3.345H50l-.639 2.422a7.479 7.479 0 0 0-.284 1.366.55.55 0 0 0 .16.4.63.63 0 0 0 .452.151 1.242 1.242 0 0 0 .657-.2 1.437 1.437 0 0 0 .5-.488 6.982 6.982 0 0 0 .47-1.428l.584-2.221h1.322l-1.375 5.27z" class="cls-3" transform="translate(-5.372 -3.582)"/>
        <path id="Trazado_232" d="M55.361 30.926l.339-1.286h1.322l-.337 1.286zm-1.561 5.98l1.375-5.27H56.5l-1.375 5.27z" class="cls-3" transform="translate(-6.068 -3.328)"/>
        <path id="Trazado_233" d="M61.24 37.148h-1.313l.7-2.662a4.436 4.436 0 0 0 .2-1.1.55.55 0 0 0-.177-.39.621.621 0 0 0-.426-.142 1.278 1.278 0 0 0-.674.2 1.446 1.446 0 0 0-.515.523 5.509 5.509 0 0 0-.417 1.207L58 37.165h-1.32l1.384-5.27h1.224l-.2.772a2.662 2.662 0 0 1 1.881-.887 1.641 1.641 0 0 1 .763.169.887.887 0 0 1 .435.426 1.251 1.251 0 0 1 .106.586 4.72 4.72 0 0 1-.169.94z" class="cls-3" transform="translate(-6.393 -3.57)"/>
        <path id="Trazado_234" d="M65.154 33.5l-1.136-.222a2.874 2.874 0 0 1 .994-1.145 2.919 2.919 0 0 1 1.553-.373 2.662 2.662 0 0 1 1.26.222.887.887 0 0 1 .461.559 2.937 2.937 0 0 1-.133 1.207l-.444 1.624a6.21 6.21 0 0 0-.213 1.038 2.724 2.724 0 0 0 .053.71h-1.312v-.57a3.407 3.407 0 0 1-.887.523 2.3 2.3 0 0 1-.887.177 1.278 1.278 0 0 1-1.1-.444 1.26 1.26 0 0 1-.151-1.118 2.005 2.005 0 0 1 .408-.8 1.952 1.952 0 0 1 .71-.532 5.226 5.226 0 0 1 1.136-.328 8.366 8.366 0 0 0 1.4-.284V33.6a.648.648 0 0 0 0-.577c-.1-.169-.3-.169-.665-.169a1.091 1.091 0 0 0-.594.151 1.508 1.508 0 0 0-.452.523m1.473 1.1a7.325 7.325 0 0 1-.887.213 2.892 2.892 0 0 0-.781.24.816.816 0 0 0-.39.488.586.586 0 0 0 .071.506.541.541 0 0 0 .47.213 1.393 1.393 0 0 0 .745-.248 1.26 1.26 0 0 0 .435-.461 3.433 3.433 0 0 0 .275-.683z" class="cls-3" transform="translate(-7.122 -3.567)"/>
        <path id="Trazado_235" d="M48.579 40.208a.577.577 0 0 0 .089.284.532.532 0 0 0 .461.177.639.639 0 0 0 .337-.089.3.3 0 0 0 .151-.275.24.24 0 0 0-.115-.213 1.384 1.384 0 0 0-.3-.106l-.284-.08a1.322 1.322 0 0 1-.39-.16.479.479 0 0 1-.222-.417.665.665 0 0 1 .213-.515.8.8 0 0 1 .568-.2.763.763 0 0 1 .719.337.683.683 0 0 1 .124.408h-.33a.444.444 0 0 0-.08-.231.506.506 0 0 0-.417-.151.479.479 0 0 0-.3.08.275.275 0 0 0 0 .444.745.745 0 0 0 .231.089l.231.062a1.686 1.686 0 0 1 .506.186.515.515 0 0 1 .2.452.719.719 0 0 1-.213.515.887.887 0 0 1-.639.213.816.816 0 0 1-.657-.231.887.887 0 0 1-.2-.559z" class="cls-4" transform="translate(-5.443 -4.341)"/>
        <path id="Trazado_236" d="M52.732 38.737a.807.807 0 0 1 .311.293 1.065 1.065 0 0 1 .142.4 2.857 2.857 0 0 1 0 .5h-1.464a1.029 1.029 0 0 0 .142.55.47.47 0 0 0 .426.2.523.523 0 0 0 .426-.2.665.665 0 0 0 .124-.257h.337a.8.8 0 0 1-.089.275.949.949 0 0 1-.169.248.763.763 0 0 1-.382.222 1.065 1.065 0 0 1-.284 0 .825.825 0 0 1-.648-.3 1.242 1.242 0 0 1-.266-.887 1.366 1.366 0 0 1 .266-.887.878.878 0 0 1 1.127-.222m.124.887a1.118 1.118 0 0 0-.1-.4.488.488 0 0 0-.47-.275.5.5 0 0 0-.4.186.763.763 0 0 0-.169.479z" class="cls-4" transform="translate(-5.79 -4.334)"/>
        <path id="Trazado_237" d="M55.954 38.773a.976.976 0 0 1 .2.213V38.7h.311v2.032a1.606 1.606 0 0 1-.115.674.807.807 0 0 1-.807.452.932.932 0 0 1-.559-.16.648.648 0 0 1-.248-.506h.355a.444.444 0 0 0 .1.231.47.47 0 0 0 .364.124.5.5 0 0 0 .515-.311 1.89 1.89 0 0 0 .062-.648.692.692 0 0 1-.248.257.772.772 0 0 1-.381.08.79.79 0 0 1-.586-.257 1.2 1.2 0 0 1-.248-.887 1.375 1.375 0 0 1 .3-.825.754.754 0 0 1 .612-.319.7.7 0 0 1 .426.133m0 .4a.488.488 0 0 0-.4-.2.5.5 0 0 0-.5.373 1.535 1.535 0 0 0-.071.515.985.985 0 0 0 .142.577.435.435 0 0 0 .373.2.532.532 0 0 0 .523-.364 1.287 1.287 0 0 0 .08-.479.994.994 0 0 0-.16-.612" class="cls-4" transform="translate(-6.164 -4.343)"/>
        <path id="Trazado_238" d="M58.506 38.68v1.491a.683.683 0 0 0 .053.284.337.337 0 0 0 .337.2.479.479 0 0 0 .479-.355 1.553 1.553 0 0 0 .071-.515V38.68h.346v2.245h-.328V40.6a.728.728 0 0 1-.16.213.674.674 0 0 1-.47.177.586.586 0 0 1-.586-.319 1.038 1.038 0 0 1-.089-.461v-1.53z" class="cls-4" transform="translate(-6.56 -4.348)"/>
        <path id="Trazado_239" d="M61.52 38.674h.328v.39a.825.825 0 0 1 .2-.275.488.488 0 0 1 .364-.16h.115v.39h-.115a.47.47 0 0 0-.4.186.692.692 0 0 0-.142.426v1.286h-.35z" class="cls-4" transform="translate(-6.939 -4.342)"/>
        <path id="Trazado_240" d="M65.333 38.9a1.189 1.189 0 0 1 .275.887 1.57 1.57 0 0 1-.24.887.887.887 0 0 1-.745.355.807.807 0 0 1-.665-.311 1.313 1.313 0 0 1-.248-.834 1.428 1.428 0 0 1 .257-.932.909.909 0 0 1 1.366-.053m-.213 1.491a1.544 1.544 0 0 0 .124-.63 1.224 1.224 0 0 0-.089-.515.506.506 0 0 0-.5-.311.479.479 0 0 0-.452.266 1.339 1.339 0 0 0-.142.639 1.153 1.153 0 0 0 .142.594.479.479 0 0 0 .452.24.461.461 0 0 0 .461-.284" class="cls-4" transform="translate(-7.186 -4.341)"/>
        <path id="Trazado_241" d="M67.407 40.209a.55.55 0 0 0 .089.284.523.523 0 0 0 .452.177.639.639 0 0 0 .337-.089.3.3 0 0 0 .151-.275.24.24 0 0 0-.115-.213 1.42 1.42 0 0 0-.3-.106l-.275-.071a1.313 1.313 0 0 1-.39-.16.479.479 0 0 1-.222-.417.665.665 0 0 1 .213-.515.8.8 0 0 1 .568-.2.763.763 0 0 1 .674.3.683.683 0 0 1 .124.408h-.328a.461.461 0 0 0-.08-.231.506.506 0 0 0-.408-.151.479.479 0 0 0-.3.08.257.257 0 0 0-.1.213.266.266 0 0 0 .133.231.754.754 0 0 0 .231.089l.231.062a1.7 1.7 0 0 1 .506.186.523.523 0 0 1 .2.452.719.719 0 0 1-.213.515.887.887 0 0 1-.639.213.825.825 0 0 1-.674-.266.887.887 0 0 1-.2-.559z" class="cls-4" transform="translate(-7.565 -4.342)"/>
        <path id="Trazado_242" d="M3.829 31.457V30.1a.657.657 0 0 0-.479.213.692.692 0 0 0-.16.47.63.63 0 0 0 .177.47.825.825 0 0 0 .47.213" class="cls-5" transform="translate(-.36 -3.38)"/>
        <path id="Trazado_243" d="M4.127 36.33a1.18 1.18 0 0 0-.621.16.568.568 0 0 0-.266.523.594.594 0 0 0 .408.594 1.535 1.535 0 0 0 .55.08.887.887 0 0 0 .745-.284.648.648 0 0 0 .124-.4.577.577 0 0 0-.266-.5 1.189 1.189 0 0 0-.683-.177" class="cls-5" transform="translate(-.365 -4.083)"/>
        <path id="Trazado_244" d="M3.424 16.931a1.136 1.136 0 0 0 .7.186 1.144 1.144 0 0 0 .665-.186.7.7 0 0 0 0-1.065 1.153 1.153 0 0 0-.7-.186 1.145 1.145 0 0 0-.7.186.7.7 0 0 0 0 1.065" class="cls-5" transform="translate(-.355 -1.753)"/>
        <path id="Trazado_245" d="M2.254 33.7h.408a1.3 1.3 0 0 1-.311-.275 1.011 1.011 0 0 1-.2-.63 1.2 1.2 0 0 1 .39-.887 1.615 1.615 0 0 1 1.153-.373 1.774 1.774 0 0 1 1.224.364 1.18 1.18 0 0 1 .408.914.985.985 0 0 1-.177.6 1.153 1.153 0 0 1-.293.257H6.37V.88H0v36.943h6.37v-3.362H2.254zm.177-23.529a1 1 0 0 1 .807-.311h2.085v.807h-1.89a.887.887 0 0 0-.364.062.444.444 0 0 0-.231.444.55.55 0 0 0 .346.55 1.189 1.189 0 0 0 .461.08h1.678v.79H2.254v-.763h.408a1.331 1.331 0 0 1-.337-.284.994.994 0 0 1-.186-.621 1.162 1.162 0 0 1 .248-.763M1.011 13.78l.834.887v.515l-.834-.532zM1.9 22.4h-.738v-.8h.728zm0-4.747h-.738v-.8h.728zm.763-4.1a1.774 1.774 0 0 1 1.137-.376 1.774 1.774 0 0 1 1.136.381A1.411 1.411 0 0 1 5.4 14.72a1.411 1.411 0 0 1-.47 1.162 1.774 1.774 0 0 1-1.136.381 1.774 1.774 0 0 1-1.136-.373 1.4 1.4 0 0 1-.479-1.162 1.4 1.4 0 0 1 .479-1.171m2.662 4.1H2.254v-.8h3.07zM2.4 18.731a.967.967 0 0 1 .781-.408v.79a.47.47 0 0 0-.24.089.541.541 0 0 0-.16.444.639.639 0 0 0 .08.373.231.231 0 0 0 .186.106.2.2 0 0 0 .2-.115 5.048 5.048 0 0 0 .222-.825 1.526 1.526 0 0 1 .337-.71.763.763 0 0 1 .568-.231.887.887 0 0 1 .736.337 1.57 1.57 0 0 1 .284 1.038 1.561 1.561 0 0 1-.3 1.056.976.976 0 0 1-.772.337v-.8a.532.532 0 0 0 .3-.106.745.745 0 0 0 .16-.55.834.834 0 0 0-.071-.373.227.227 0 0 0-.408-.027 4.587 4.587 0 0 0-.24.825 1.721 1.721 0 0 1-.319.728.692.692 0 0 1-.541.213.94.94 0 0 1-.719-.328 1.331 1.331 0 0 1-.3-.887 1.712 1.712 0 0 1 .231-.887m-.142 4.968V22.9l3.061 1.056v.834l-3.07 1.082v-.887l2.236-.63zm0-2.112h3.05v.8H2.254zm.062 5.172a1.233 1.233 0 0 1 .452-.523 1.482 1.482 0 0 1 .63-.24 3.824 3.824 0 0 1 .6 0v2.209a.728.728 0 0 0 .639-.319.807.807 0 0 0 .115-.435.612.612 0 0 0-.328-.71v-.807a.985.985 0 0 1 .55.293 1.473 1.473 0 0 1 .444 1.136 1.65 1.65 0 0 1-.417 1.038 1.473 1.473 0 0 1-1.215.461 1.641 1.641 0 0 1-1.207-.417 1.455 1.455 0 0 1-.417-1.082 1.774 1.774 0 0 1 .142-.71m-.133 2.5v-.071h.8v.229a.657.657 0 0 0 .311.639 1.207 1.207 0 0 0 .541.089h1.481v.8H2.254v-.754h.532a1.686 1.686 0 0 1-.417-.319.887.887 0 0 1-.186-.577" class="cls-5" transform="translate(0 -.084)"/>
        <path id="Trazado_246" d="M59.812.646a7.24 7.24 0 0 1 2.866 2.2 7.151 7.151 0 0 1 1.411 3.194 22.057 22.057 0 0 1 .266 3.717l-.045 15.678h-6.663V9.572a5.172 5.172 0 0 0-.461-2.324 3.256 3.256 0 0 0-3.2-1.774 3.753 3.753 0 0 0-3.726 2.271 6.973 6.973 0 0 0-.523 2.848v14.8h-6.525V10.645a8.269 8.269 0 0 0-.461-3.212 3.2 3.2 0 0 0-3.229-1.774q-2.795 0-3.753 1.774a6.9 6.9 0 0 0-.523 3.052v14.906H28.68V.558h6.273V4.2a10.363 10.363 0 0 1 2.28-2.733A7.87 7.87 0 0 1 42.148 0a7.825 7.825 0 0 1 4.613 1.242A7.24 7.24 0 0 1 48.908 4.2a8.233 8.233 0 0 1 3.177-3.19 9.759 9.759 0 0 1 4.436-1.02 8.8 8.8 0 0 1 3.247.63" class="cls-5" transform="translate(-3.235 .016)"/>
        <path id="Trazado_247" d="M7 3.9A8.366 8.366 0 0 1 14.586 0a8.375 8.375 0 0 1 7.568 3.9 16.8 16.8 0 0 1 2.5 9.236 16.679 16.679 0 0 1-2.493 9.271 8.4 8.4 0 0 1-7.568 3.85A8.465 8.465 0 0 1 7 22.409m10.292-2.662a9.688 9.688 0 0 0 1.491-5.785 9.635 9.635 0 0 0-1.491-5.776 4.968 4.968 0 0 0-4.259-2.023 5 5 0 0 0-4.259 2.015 9.582 9.582 0 0 0-1.5 5.776 9.635 9.635 0 0 0 1.5 5.793 4.986 4.986 0 0 0 4.276 2.032 4.959 4.959 0 0 0 4.267-2.032" class="cls-5" transform="translate(-.79 .017)"/>
    </g>
</svg>
