<svg xmlns="http://www.w3.org/2000/svg" width="103.175" height="43.305" viewBox="0 0 103.175 43.305">
    <defs>
        <style>
            .cls-2{fill:#fff}
        </style>
    </defs>
    <g id="Capa_2" transform="translate(.003)">
        <g id="Capa_1" transform="translate(-.003)">
            <path id="Trazado_551" fill="#109cd9" d="M99.8 0H3.411A65.843 65.843 0 0 0 0 21.652a65.843 65.843 0 0 0 3.411 21.653H99.8a65.868 65.868 0 0 0 3.362-21.652A65.868 65.868 0 0 0 99.8 0z" transform="translate(.003)"/>
            <path id="Trazado_552" d="M16.995 27.969v-.583c-.631 0-.947-.5-.947-1.129a5.146 5.146 0 0 1 .182-1.311l.728-2.306h6.178l.922 2.427a4.478 4.478 0 0 1 .316 1.335c0 .607-.316.971-.862.971v.583c.91 0 1.76-.109 2.67-.109s1.76.109 2.646.109v-.583c-.947-.109-1.214-.971-2.1-3.3L20.952 9.29h-.316L15.029 23.5c-.5 1.214-1.493 3.726-2.549 3.932v.583c.765 0 1.493-.109 2.257-.109s1.493.063 2.258.063zM20 14.448l2.646 6.918h-5.19z" class="cls-2" transform="translate(2.671 1.985)"/>
            <path id="Trazado_553" d="M30.936 28.23a3.18 3.18 0 0 0 1.833-.4l1.517-1.335a3.75 3.75 0 0 0 1.99 1.736 11 11 0 0 1 2.424-1.943l-.376-.364a1.214 1.214 0 0 1-.74.206c-.607 0-.813-.522-.813-1.469v-6.554c0-3.8.109-6.736.109-8.787h-.522a8.132 8.132 0 0 1-3.532 1.808v.522c.68.109 1.335.473 1.335 1.942v3.835a6.19 6.19 0 0 0-2.694-.655 5.437 5.437 0 0 0-5.838 5.765 5.328 5.328 0 0 0 5.3 5.692zm.449-10.377c2.075 0 2.8 1.044 2.8 3.544v4.321a2.925 2.925 0 0 1-2.039.935c-2.282 0-3.641-2.573-3.641-4.77 0-1.784.85-4.03 2.925-4.03z" class="cls-2" transform="translate(5.479 1.992)"/>
            <path id="Trazado_554" d="M42.5 26.916a7.052 7.052 0 0 0 2.427-.4l1.42-2.075-.267-.316a4.612 4.612 0 0 1-2.755.837 4.491 4.491 0 0 1-4.381-4.976h7.646a4.491 4.491 0 0 0-4.855-4.5 5.547 5.547 0 0 0-5.352 5.692 5.717 5.717 0 0 0 6.117 5.738zm-1.131-10.535A2.233 2.233 0 0 1 43.8 18.93h-4.713a2.33 2.33 0 0 1 2.282-2.549z" class="cls-2" transform="translate(7.778 3.306)"/>
            <path id="Trazado_555" d="M51.159 24.234a1.687 1.687 0 0 1-1.833 1.6 2.585 2.585 0 0 1-2.426-2.147h-.971l.158 2.427a6.506 6.506 0 0 0 3.046.765c2.257 0 4.187-1.02 4.187-3.52 0-3.641-5.219-2.67-5.219-5.183a1.614 1.614 0 0 1 1.808-1.651 2.221 2.221 0 0 1 2.427 1.99h.837l.109-2.427a11.591 11.591 0 0 0-3.35-.68c-2.148 0-4.163 1.056-4.163 3.483-.035 3.838 5.39 3.425 5.39 5.343z" class="cls-2" transform="translate(9.785 3.293)"/>
            <path id="Trazado_556" d="M53.93 13.206c.073 1 .206 2.961.206 4.5v8.5a1.044 1.044 0 0 1-1.044 1.214v.522c.765 0 1.493-.073 2.257-.073s1.578.073 2.427.073v-.522c-.813-.134-1.02-.607-1.02-1.493v-10.2c0-2.427.073-5 .109-6.42h-.546a8.314 8.314 0 0 1-3.641 1.6v.607c.754-.007 1.216.624 1.252 1.692z" class="cls-2" transform="translate(11.262 1.99)"/>
            <path id="Trazado_557" d="M60.8 26.909a4.855 4.855 0 0 0 2.889-1.287 2.67 2.67 0 0 0 2.1 1.287l1.966-1.578-.388-.388a2.864 2.864 0 0 1-.546.109c-.583 0-.789-.34-.789-1.554v-.922c0-1.493.109-2.864.109-3.823.024-2.646-1.93-3.253-4.357-3.253a11.809 11.809 0 0 0-3.386.473v2.561h.631a2.731 2.731 0 0 1 2.634-1.456c1.784 0 1.906 1.578 1.906 3.01-.364 0-.813-.073-1.214-.073-2.427 0-5.037 1.08-5.037 3.872a3.228 3.228 0 0 0 3.482 3.022zm1.469-6.069a6.238 6.238 0 0 1 1.214.134l.085 3.872a3.107 3.107 0 0 1-1.76.449 2.1 2.1 0 0 1-2.063-2.124 2.245 2.245 0 0 1 2.525-2.294z" class="cls-2" transform="translate(12.254 3.312)"/>
            <path id="Trazado_558" d="M71.8 24.234a1.687 1.687 0 0 1-1.833 1.6 2.585 2.585 0 0 1-2.427-2.148h-.971l.158 2.427a6.506 6.506 0 0 0 3.046.765c2.257 0 4.187-1.02 4.187-3.52 0-3.641-5.219-2.67-5.219-5.183a1.614 1.614 0 0 1 1.808-1.651 2.221 2.221 0 0 1 2.427 1.99h.837l.109-2.427a11.567 11.567 0 0 0-3.35-.68c-2.148 0-4.163 1.056-4.163 3.483-.009 3.839 5.391 3.426 5.391 5.344z" class="cls-2" transform="translate(14.196 3.293)"/>
        </g>
    </g>
</svg>
