<svg xmlns="http://www.w3.org/2000/svg" id="Capa_2" width="67.24" height="67.24" viewBox="0 0 67.24 67.24">
    <defs>
        <style>
            .cls-1,.cls-2{fill:#fff;fill-rule:evenodd}.cls-2{fill:#0056a4}
        </style>
    </defs>
    <g id="Capa_1">
        <path id="Trazado_466" d="M0 0h67.24v67.24H0V0z" class="cls-1"/>
        <path id="Trazado_467" d="M72.694 40.55c3.607 6.527 3.091 16.318-.349 22.674a24.125 24.125 0 0 1-24.219 12.209A23.636 23.636 0 0 1 29.917 62.38c-3.607-6.7-3.265-16.66.858-23.023 5.163-8.082 13.576-12.711 23.2-11.689A24.151 24.151 0 0 1 72.694 40.55z" class="cls-2" transform="translate(-17.862 -17.925)"/>
        <path id="Trazado_468" d="M12.66 79.339c-.171.171-.171.516-.516.516-.7 0-1.046-.516-1.2-1.2a31.927 31.927 0 0 1 .516-3.952 4.6 4.6 0 0 1 1.2 4.636z" class="cls-2" transform="translate(-7.124 -48.643)"/>
        <path id="Trazado_469" d="M12.916 105.239a5.15 5.15 0 0 1-1.2 4.123c-.171-1.716-1.545-3.952.349-5.152.516-.171.858.516.858 1.046z" class="cls-2" transform="translate(-7.209 -67.842)"/>
        <path id="Trazado_470" d="M153.511 34.056a3.34 3.34 0 0 1-1.891-1.545c-.171-1.046-.858-1.891-.516-3.091.858 1.545 3.778 2.749 2.4 4.639z" class="cls-2" transform="translate(-98.334 -19.157)"/>
        <path id="Trazado_471" d="M33.968 34.03c-.516.171-.7-.171-.858-.7.349-1.716 1.891-2.578 2.92-3.952.171 1.716-.349 3.778-2.062 4.639z" class="cls-2" transform="translate(-21.56 -19.131)"/>
        <path id="Trazado_472" d="M161.982 43.251c-.858.171-1.374-1.046-1.716-1.545a7.661 7.661 0 0 1 0-3.436c.698 1.545 2.92 3.091 1.716 4.981z" class="cls-2" transform="translate(-104.23 -24.92)"/>
        <path id="Trazado_473" d="M28.053 41.69c-.516.858-.858 2.232-1.891 1.891-1.046-1.891 1.046-3.265 1.716-4.81a5.637 5.637 0 0 1 .171 2.92z" class="cls-2" transform="translate(-16.849 -25.246)"/>
        <path id="Trazado_474" d="M146.388 40.5c.171.349-.349.7-.516.7-1.716.171-2.578-1.716-3.952-2.062.349-.516 1.545-.349 2.233-.171a3.049 3.049 0 0 1 2.232 1.545z" class="cls-2" transform="translate(-92.414 -25.258)"/>
        <path id="Trazado_475" d="M42.194 39.4c-1.2.858-2.4 2.749-4.294 2.062-.349-1.046.7-1.374 1.2-1.891a4.793 4.793 0 0 1 3.091-.171z" class="cls-2" transform="translate(-24.634 -25.53)"/>
        <path id="Trazado_476" d="M154.223 48.909c.171.516-.171.858-.7 1.046-1.716 0-2.062-2.062-3.265-2.92a3.8 3.8 0 0 1 3.952 1.891z" class="cls-2" transform="translate(-97.845 -30.578)"/>
        <path id="Trazado_477" d="M34.751 47.113c-.171.516-.7.516-.858 1.046-.858.858-1.545 2.062-2.92 1.891-.7-.171-.171-1.046 0-1.374a3.769 3.769 0 0 1 3.778-1.545z" class="cls-2" transform="translate(-19.94 -30.669)"/>
        <path id="Trazado_478" d="M17.61 52.7c-.349.7-.7 1.716-1.374 1.891a1.462 1.462 0 0 1-.858-.516c.516 1.374.7 3.436-.516 4.639-.516.171-.858-.349-1.046-.7-.171-1.716.858-2.92 1.046-4.465l.516.516c0-1.891 1.374-3.265 1.891-4.981a5.187 5.187 0 0 1 .349 3.607z" class="cls-2" transform="translate(-8.983 -31.966)"/>
        <path id="Trazado_479" d="M169.62 54.091c0-.171 0-.516.349-.516.171 1.545 1.891 3.436.349 5.152-.7-.171-.858-1.046-1.046-1.545a4.768 4.768 0 0 1 .349-3.091c-.516.7-1.716 0-2.062-.516a5.1 5.1 0 0 1 0-4.465c.858 1.545 1.89 3.09 2.061 4.981z" class="cls-2" transform="translate(-108.774 -31.979)"/>
        <path id="Trazado_480" d="M86.16 49.964l-.171 1.374L90.628 81.4c.349.516.349 1.2 1.046 1.545a9.655 9.655 0 0 1-4.981 1.046 30.349 30.349 0 0 0-.7-6.7l-.171-.171H80.3a14.907 14.907 0 0 0-1.2 5.668l.171 1.2a14.712 14.712 0 0 1-4.81-.7l.858-1.891 5.156-30.6-.171-.7c1.545-.7 3.952-.516 5.839-.171z" class="cls-1" transform="translate(-48.486 -32.32)"/>
        <path id="Trazado_481" d="M159.62 57.073a2.589 2.589 0 0 1 .858 2.232c-2.062.7-2.232-2.232-3.778-3.265a3.776 3.776 0 0 1 2.92 1.046z" class="cls-2" transform="translate(-102.039 -36.492)"/>
        <path id="Trazado_482" d="M28.538 56.431c-1.374 1.046-1.545 3.778-3.607 3.265-.516-.858.349-1.716.7-2.4a3.7 3.7 0 0 1 2.92-.858z" class="cls-2" transform="translate(-16.13 -36.726)"/>
        <path id="Trazado_483" d="M53.807 62.164C56.384 68 55.7 76.421 52.261 81.573c-2.232 3.607-6.356 3.091-9.963 3.091 0 .349-.171.171-.349.171l.349-1.2L43 60.786c-.171-.349-.171-.7-.349-1.046 3.091.349 6.872-1.374 9.621.7l1.545 1.716z" class="cls-1" transform="translate(-27.317 -38.678)"/>
        <path id="Trazado_484" d="M128.6 60.126l.516-.171v6.355c-.516-.171-.7-.858-1.046-1.374a5.627 5.627 0 0 0-2.92-1.716c-1.046 0-2.232.171-2.578 1.374-.7 1.891.858 3.265 1.891 4.465 2.4 3.436 7.043 6.185 6.185 10.992a5.853 5.853 0 0 1-2.92 4.294c-2.232 1.2-5.323-.516-7.385 1.046-.516-2.233-.858-4.81-1.2-7.214 1.385 1.859 3.446 3.255 5.853 2.906.7 0 1.374-.858 1.545-1.545a3.611 3.611 0 0 0-1.046-3.265c-2.92-4.465-9.275-7.73-6.527-13.74.7-1.716 2.4-2.4 3.952-2.749 2.062-.349 3.607.516 5.668.349z" class="cls-1" transform="translate(-77.025 -38.875)"/>
        <path id="Trazado_485" d="M165.668 67.879c0 .516.349 1.2 0 1.716-1.046.516-1.545-.7-2.062-1.046a23.634 23.634 0 0 0-1.046-2.749 4.238 4.238 0 0 1 3.091 2.062z" class="cls-2" transform="translate(-105.855 -42.847)"/>
        <path id="Trazado_486" d="M23.971 66.333c-.7 1.2-.7 3.952-2.92 3.778a2.389 2.389 0 0 1 .7-2.578 3.227 3.227 0 0 1 2.232-1.2z" class="cls-2" transform="translate(-13.625 -43.192)"/>
        <path id="Trazado_487" d="M58.216 70.66c1.884 2.92 1.374 6.192 1.2 9.792-.7 2.92-1.2 6.872-4.81 7.559 0-.171-.171-.171-.349-.171l.516-17.693a2.872 2.872 0 0 1 3.436.516z" class="cls-2" transform="translate(-35.333 -45.457)"/>
        <path id="Trazado_488" d="M177.732 77.978a1.747 1.747 0 0 1-1.047 1.374c-.53.171-.516-.349-.7-.7a5.158 5.158 0 0 1 1.046-4.465 13.4 13.4 0 0 1 .7 3.778z" class="cls-2" transform="translate(-114.483 -48.31)"/>
        <path id="Trazado_489" d="M97.155 89.312H92.69c.7-4.981 1.374-9.792 2.4-14.6.701 4.808 1.549 9.788 2.065 14.6z" class="cls-2" transform="translate(-60.357 -48.649)"/>
        <path id="Trazado_490" d="M168.628 78.571a4.178 4.178 0 0 1 .171 2.062.89.89 0 0 1-1.374 0c-.858-1.046-.516-2.92-1.374-3.952a3.916 3.916 0 0 1 2.577 1.89z" class="cls-2" transform="translate(-108.127 -49.932)"/>
        <path id="Trazado_491" d="M20.967 77.17c-1.2 1.2-.171 3.607-2.062 4.294-.349 0-.516-.349-.7-.516-.349-2.062 1.2-3.265 2.749-3.778z" class="cls-2" transform="translate(-11.824 -50.251)"/>
        <path id="Trazado_492" d="M173.5 90.967c.171 2.578-2.92 1.2-4.465 1.545-.171-.516-.516-.858-.516-1.374L171.1 92a15.593 15.593 0 0 1 2.4-1.046z" class="cls-2" transform="translate(-109.736 -59.224)"/>
        <path id="Trazado_493" d="M14.894 91.95a2.668 2.668 0 0 1-1.046 1.374c-1.374-.349-4.123 1.2-3.952-1.374l2.578.7 2.4-.7z" class="cls-2" transform="translate(-6.439 -59.875)"/>
        <path id="Trazado_494" d="M173.011 98.2a5.582 5.582 0 0 1-2.232-.7 16.21 16.21 0 0 1-2.749.7c.171-2.4 2.92-.858 4.294-1.374l.7 1.374z" class="cls-2" transform="translate(-109.417 -63.038)"/>
        <path id="Trazado_495" d="M14.928 98.451v.349l-2.578-.858c-.858 0-1.545.7-2.4.858-.171-2.578 2.749-1.2 4.123-1.545l.858 1.2z" class="cls-2" transform="translate(-6.472 -63.286)"/>
        <path id="Trazado_496" d="M166.707 104.27a4.037 4.037 0 0 1-2.232 3.607c.349.171.7-.171 1.2.171a2.268 2.268 0 0 1-1.047 2.578 2.6 2.6 0 0 1-2.062 1.2c.858-1.2.516-2.92 1.891-3.778l-.7-.171c1.2-1.2.171-4.294 2.578-4.123l.349.516z" class="cls-2" transform="translate(-105.861 -67.559)"/>
        <path id="Trazado_497" d="M177.564 104.244a17.17 17.17 0 0 1-.349 4.294 4.6 4.6 0 0 1-1.2-4.639c.349-.858 1.545-.349 1.545.349z" class="cls-2" transform="translate(-114.486 -67.362)"/>
        <path id="Trazado_498" d="M20.979 108.638l-.516-.171c1.046 1.046 1.046 2.578 1.716 3.778a3.537 3.537 0 0 1-2.92-2.062v-1.716c.349-.349.7 0 1.046.171-.171-.516-1.046-1.046-1.374-1.374a3.1 3.1 0 0 1-.7-2.749.8.8 0 0 1 1.374 0c1.046 1.046.516 2.578 1.374 3.778v.349z" class="cls-2" transform="translate(-11.836 -67.805)"/>
        <path id="Trazado_499" d="M174.706 117.028a17.231 17.231 0 0 1-1.046 4.294c-.858-1.2-1.374-3.436-.349-4.81.516-.7 1.374 0 1.374.516z" class="cls-2" transform="translate(-112.485 -75.678)"/>
        <path id="Trazado_500" d="M15.924 118.229a7.845 7.845 0 0 1-.349 3.436c.171-.349 1.2-.858 1.545 0a4.535 4.535 0 0 1 .349 4.639c-.7-1.374-2.062-2.749-1.891-4.639-.171.171-.349.349-.349.516h-.171c0-1.716-1.891-3.607-.349-5.152.858-.171.858.7 1.2 1.2z" class="cls-2" transform="translate(-9.185 -76.192)"/>
        <path id="Trazado_501" d="M160.247 127.293c.516 1.046-.349 1.545-.7 2.4a3.574 3.574 0 0 1-2.92.7c1.545-1.046 1.374-3.607 3.607-3.091z" class="cls-2" transform="translate(-101.993 -82.852)"/>
        <path id="Trazado_502" d="M28.506 130.966c-.858.349-1.716-.171-2.578-.516a3.091 3.091 0 0 1-1.2-2.578c.349-.516 1.046-.171 1.374 0 1.046 1.046 1.374 2.232 2.4 3.091z" class="cls-2" transform="translate(-16.099 -83.089)"/>
        <path id="Trazado_503" d="M169.475 129.428c-.171 1.716-1.374 2.92-1.891 4.123-.516-1.2-.858-3.265.171-4.465.516-1.046 1.891-.858 1.716.349z" class="cls-2" transform="translate(-108.804 -83.613)"/>
        <path id="Trazado_504" d="M154.078 138.443a3.836 3.836 0 0 1-3.778 1.716c0-.349.7-.516.858-.858.7-.858 1.046-1.716 1.891-2.062.858 0 1.545.516 1.046 1.2z" class="cls-2" transform="translate(-97.871 -89.367)"/>
        <path id="Trazado_505" d="M34.723 140.847a4.73 4.73 0 0 1-3.436-.858c-.349-.516-1.046-1.046-.516-1.716a1.491 1.491 0 0 1 1.2-.171c1.374.7 1.545 2.062 2.749 2.749z" class="cls-2" transform="translate(-19.912 -89.88)"/>
        <path id="Trazado_506" d="M162.3 140.8c-.171 1.545-1.545 2.749-2.232 4.123a4.311 4.311 0 0 1 .7-4.294c.349-.7 1.545-.858 1.545.171z" class="cls-2" transform="translate(-104.051 -91.209)"/>
        <path id="Trazado_507" d="M27.835 142.416a5.3 5.3 0 0 1 0 3.265c-.516-1.545-3.091-3.265-1.545-4.981.858 0 1.203 1.046 1.545 1.716z" class="cls-2" transform="translate(-16.801 -91.62)"/>
        <path id="Trazado_508" d="M146.388 147.211c-.171 1.046-1.2 1.545-1.891 1.891a3.342 3.342 0 0 1-2.578 0c1.374-.7 2.749-3.436 4.465-1.891z" class="cls-2" transform="translate(-92.414 -95.557)"/>
        <path id="Trazado_509" d="M41.928 149.734l-.516.349c1.545-.171 2.4 1.545 3.778 1.716v.171c-.171 0-.171.171-.349.349a10.88 10.88 0 0 1 3.265 1.2c.171 0 .516-.171.7 0-1.046 1.2-2.92.858-4.294.516a1.343 1.343 0 0 1-.7-.7l.171-.858c-1.2-.171-2.92-.171-3.607-1.545 0-.516.516-.7.858-.858-1.374-.171-3.091-.516-3.778-1.891-.171-.349.349-.516.516-.7 1.716-.349 2.578 1.545 3.952 2.233z" class="cls-2" transform="translate(-24.368 -96.014)"/>
        <path id="Trazado_510" d="M153.71 150.355c.171 1.891-2.062 3.091-2.92 4.294a5.208 5.208 0 0 1 2.062-4.639 1.311 1.311 0 0 1 .858.349z" class="cls-2" transform="translate(-98.19 -97.682)"/>
        <path id="Trazado_511" d="M35.616 152.744a5.241 5.241 0 0 1 .516 2.92c-.865-1.559-3.781-2.763-2.578-4.664a2.423 2.423 0 0 1 2.062 1.744z" class="cls-2" transform="translate(-21.663 -98.327)"/>
        <path id="Trazado_512" d="M130.647 154.926c-.516 1.545-2.232 1.716-3.607 1.891.516.516-.171 1.545-.858 1.716-1.2.171-2.92.516-3.952-.516 1.2-.171 2.4-1.374 3.778-1.2l-.171-.7c1.716-.171 3.091-2.92 4.81-1.2z" class="cls-2" transform="translate(-79.593 -100.508)"/>
        <path id="Trazado_513" d="M143.886 159.6c-.349 1.716-2.232 2.4-3.436 3.436a4.476 4.476 0 0 1 2.578-4.123c.516 0 .858.171.858.7z" class="cls-2" transform="translate(-91.457 -103.478)"/>
        <path id="Trazado_514" d="M45.708 162.842a1.121 1.121 0 0 1 1.716-.7A5.522 5.522 0 0 1 50 165.751c-1.374-1.046-3.607-1.2-4.123-3.091l-.171 1.046c-1.2-1.2-3.436-1.891-3.265-3.952.171-.516.858-.349 1.2-.171a7.974 7.974 0 0 1 2.062 3.265z" class="cls-2" transform="translate(-27.631 -103.803)"/>
        <path id="Trazado_515" d="M108.839 167.107c0 .7-.7.7-1.2 1.046a4.835 4.835 0 0 1-3.436-.7c0 .349.7.858.516 1.2a2.922 2.922 0 0 1-2.92.349c-.7-.349-1.545-.7-1.716-1.545 1.374.349 2.749-.7 4.123.171l-.171-.7c1.374 0 3.607-1.716 4.81.171z" class="cls-2" transform="translate(-65.169 -108.239)"/>
        <path id="Trazado_516" d="M132.418 166.738c-.349 2.062-2.578 2.232-3.778 3.265a4.959 4.959 0 0 1 3.091-3.778c.516-.171.7.171.7.516z" class="cls-2" transform="translate(-83.767 -108.212)"/>
        <path id="Trazado_517" d="M71.571 166.893a3.505 3.505 0 0 1-2.578 1.374 2.611 2.611 0 0 1-2.4-1.046c.171-.7.858-.7 1.2-1.046 1.545-.171 2.4.858 3.778.7z" class="cls-2" transform="translate(-43.362 -108.195)"/>
        <path id="Trazado_518" d="M83.394 169.514a3.906 3.906 0 0 1-2.4 1.716c-.7 0-1.716.349-2.232-.171-.171-.171 0-.516 0-.858 1.2-1.545 3.091-.349 4.639-.7z" class="cls-2" transform="translate(-51.236 -110.3)"/>
        <path id="Trazado_519" d="M119.953 172.878c-1.046 1.374-2.749 1.374-4.123 2.062a4.978 4.978 0 0 1 3.607-3.265c.863-.175.516.858.516 1.203z" class="cls-2" transform="translate(-75.425 -111.777)"/>
        <path id="Trazado_520" d="M68.534 174.975c-1.374-.516-3.265-.516-4.123-2.062-.171-.349-.171-1.046.171-1.2a5.152 5.152 0 0 1 3.952 3.262z" class="cls-2" transform="translate(-41.869 -111.813)"/>
        <path id="Trazado_521" d="M97.766 172.379c.171.171 0 .171-.171.349-.171 0-.516 0-.516-.171-.171-.7.7-.858.7-.171z" class="cls-2" transform="translate(-63.2 -111.966)"/>
        <path id="Trazado_522" d="M93.694 172.364c0 .349-.171.7-.349.7a.37.37 0 0 1-.349-.349c-.348-.515.517-.699.698-.351z" class="cls-2" transform="translate(-60.504 -112.122)"/>
        <path id="Trazado_523" d="M96 175.492c-.171.171-.171.516-.349.516a.328.328 0 0 1-.516-.171c0-.349 0-.7.349-.7.171.171.516.171.516.349z" class="cls-2" transform="translate(-61.946 -114.046)"/>
        <path id="Trazado_524" d="M90.914 175.539c.171.349-.349.349-.516.516-.349-.171-.7-.171-.7-.516 0-.516.858-.349 1.2 0z" class="cls-2" transform="translate(-58.41 -114.093)"/>
        <path id="Trazado_525" d="M100.115 175.592a1.123 1.123 0 0 1-1.374.349l-.171-.171c.171-.7 1.046-.516 1.545-.171z" class="cls-2" transform="translate(-64.186 -114.146)"/>
        <path id="Trazado_526" d="M106.85 175.667c-.516 2.233-2.92 1.891-4.81 2.4a4.632 4.632 0 0 1 3.778-2.578.963.963 0 0 1 1.046.171z" class="cls-2" transform="translate(-66.446 -114.221)"/>
        <path id="Trazado_527" d="M80.921 178.293c-1.716-.349-4.294-.171-4.981-2.232 1.2-.7 2.749 0 3.778.7a6.031 6.031 0 0 1 1.203 1.532z" class="cls-2" transform="translate(-49.45 -114.458)"/>
        <path id="Trazado_528" d="M97.923 178.537c0 .349 0 .516-.171.516-.349.171-.7 0-.7-.171-.171-.7.858-.858.858-.349z" class="cls-2" transform="translate(-63.187 -116.062)"/>
        <path id="Trazado_529" d="M93.468 178.629c0 .349-.516.7-.7.516s-.349-.7 0-.7c.349-.171.7 0 .7.171z" class="cls-2" transform="translate(-60.277 -116.154)"/>
        <path id="Trazado_530" d="M106.831 11.6c.171.516-.171.7-.7.858-1.716-.349-3.607-1.2-4.123-2.749 1.716.349 3.952.171 4.81 1.891z" class="cls-2" transform="translate(-66.426 -6.323)"/>
        <path id="Trazado_531" d="M81.214 9.71c-.516 1.716-2.232 2.4-3.778 2.749-.349 0-.858 0-1.046-.516.7-2.062 3.091-1.716 4.81-2.232z" class="cls-2" transform="translate(-49.743 -6.323)"/>
        <path id="Trazado_532" d="M64.706 14.56c-.349-.171-.171-.7-.171-1.046 1.046-1.716 2.92-1.374 4.294-2.4a4.533 4.533 0 0 1-4.123 3.446z" class="cls-2" transform="translate(-41.994 -7.235)"/>
        <path id="Trazado_533" d="M119.953 14.429c-1.046.516-2.062-.516-2.92-1.046a4.106 4.106 0 0 1-1.2-2.232c1.374.858 4.294.858 4.123 3.265z" class="cls-2" transform="translate(-75.425 -7.261)"/>
        <path id="Trazado_534" d="M93.6 12.535a.893.893 0 0 1-.349.7c-.349 0-.7-.171-.7-.516-.171-.349.171-.516.516-.516.171 0 .349.171.516.349z" class="cls-2" transform="translate(-60.24 -7.944)"/>
        <path id="Trazado_535" d="M98.116 12.589a.893.893 0 0 1-.349.7c-.349 0-.7-.171-.7-.516 0-.516.7-.7 1.046-.171z" class="cls-2" transform="translate(-63.209 -7.998)"/>
        <path id="Trazado_536" d="M95.518 16.1c-.349.349-.7 0-.858-.349 0-.86 1.374-.351.858.349z" class="cls-2" transform="translate(-61.64 -9.962)"/>
        <path id="Trazado_537" d="M54.29 19.26c-.516 0-.858.7-1.374.171-.349-.171-.171-.858 0-1.2.858-1.545 2.578-1.374 3.778-2.578a5.15 5.15 0 0 1-2.4 3.607z" class="cls-2" transform="translate(-34.327 -10.191)"/>
        <path id="Trazado_538" d="M91.1 16.183c-.349.171-.858.516-1.2.171-.171 0-.171-.171-.171-.349.349-.516 1.374-.349 1.374.171z" class="cls-2" transform="translate(-58.43 -10.218)"/>
        <path id="Trazado_539" d="M100.434 16.122c0 .349-.349.349-.516.516-.349-.171-.858 0-.858-.516a1.028 1.028 0 0 1 1.374 0z" class="cls-2" transform="translate(-64.505 -10.328)"/>
        <path id="Trazado_540" d="M132.418 19.254c-.7.516-1.374-.171-2.062-.349a6.775 6.775 0 0 1-1.716-3.265c1.371.851 3.96 1.367 3.778 3.614z" class="cls-2" transform="translate(-83.767 -10.184)"/>
        <path id="Trazado_541" d="M83.648 19.86c-1.72-.523-3.607.872-4.81-.872-.171-.516.349-.858.7-1.046 1.716-.171 3.436.349 4.123 1.891z" class="cls-2" transform="translate(-51.315 -11.663)"/>
        <path id="Trazado_542" d="M104.709 18.425c.349.858-.516 1.374-1.2 1.545-1.046.349-2.232-.516-3.436 0a2.991 2.991 0 0 1 2.578-1.891 3.675 3.675 0 0 1 2.062.349z" class="cls-2" transform="translate(-65.163 -11.773)"/>
        <path id="Trazado_543" d="M97.929 19c.171.349-.171.349-.349.516s-.349-.171-.516-.171c-.171-.7.858-.858.858-.349z" class="cls-2" transform="translate(-63.193 -12.174)"/>
        <path id="Trazado_544" d="M93.814 18.825c-.171.349 0 .7-.349.7-.349.171-.858-.171-.516-.7a.767.767 0 0 1 .858 0z" class="cls-2" transform="translate(-60.452 -12.173)"/>
        <path id="Trazado_545" d="M72.061 22.337c-1.716-.178-3.963 1.709-4.981-.349.349-.7 1.2-.858 2.062-1.046a2.9 2.9 0 0 1 2.919 1.395z" class="cls-2" transform="translate(-43.681 -13.617)"/>
        <path id="Trazado_546" d="M116.381 21.965c-.171.516-.858.7-1.2.858-1.545.171-2.4-.7-3.778-.516a2.555 2.555 0 0 1 2.062-1.374c1.046-.171 2.4 0 2.92 1.046z" class="cls-2" transform="translate(-72.541 -13.593)"/>
        <path id="Trazado_547" d="M143.886 25.489c-.7.858-1.374 0-1.891-.171a6.628 6.628 0 0 1-1.545-3.778c1.2 1.2 3.607 1.891 3.436 3.952z" class="cls-2" transform="translate(-91.457 -14.026)"/>
        <path id="Trazado_548" d="M46.047 22c-.516 1.545-1.046 3.607-2.92 4.294-.349-.171-.7-.171-.7-.516.202-2.051 2.073-2.732 3.62-3.778z" class="cls-2" transform="translate(-27.629 -14.326)"/>
        <path id="Trazado_549" d="M127.211 26.81c-.171.171 0 .516-.171.516 1.374.349 3.265.516 3.607 2.062-1.891 1.545-3.091-1.046-4.81-1.2-.171-.349.349-.349.516-.516-1.545 0-2.578-1.046-4.123-1.2a2.77 2.77 0 0 1 2.232-1.046c1.046 0 2.4.349 2.749 1.374z" class="cls-2" transform="translate(-79.593 -16.551)"/>
        <path id="Trazado_550" d="M54.578 26.792c-1.374 0-2.233 1.2-3.778 1.2l.349.516c-1.716.516-3.091 2.578-4.81 1.374-.171-.858.7-1.2 1.2-1.545l2.4-.516c-.171-.349-.516-.7-.171-1.046a4.071 4.071 0 0 1 3.778-.7c.349.171.858.349 1.046.7z" class="cls-2" transform="translate(-30.16 -16.875)"/>
    </g>
</svg>
