<svg xmlns="http://www.w3.org/2000/svg" id="Capa_2" width="69.17" height="42.591" viewBox="0 0 69.17 42.591">
    <defs>
        <style>
            .cls-2{fill-rule:evenodd}.cls-2,.cls-3{fill:#003a78}
        </style>
    </defs>
    <g id="Capa_1">
        <path id="Trazado_292" fill="#0d52a0" fill-rule="evenodd" d="M32.27 0a11.5 11.5 0 0 0-9.14 18.47l9.55-12.56h-2.05a15.82 15.82 0 0 0-2.85.22 3.06 3.06 0 0 0-1.17.48A4.59 4.59 0 0 0 25.44 8l-.16.3-.56-.12.94-3.61h12l-9.54 12.71a12.73 12.73 0 0 1 1.37-.07q.58 0 1.76.07l1.69.1c.61 0 1.12.06 1.51.06a6.51 6.51 0 0 0 2-.24 4.48 4.48 0 0 0 1.23-.6 5.72 5.72 0 0 0 1.71-1.95l.17-.34.51.13a7.24 7.24 0 0 1-.5 1.43 5.9 5.9 0 0 1-1.88 2.49 4.62 4.62 0 0 1-2.78.92h-.16a20.18 20.18 0 0 1-3.29-.36 24.86 24.86 0 0 0-3.87-.4 11.52 11.52 0 0 0-1.87.15 6 6 0 0 0-1.9.57A11.5 11.5 0 1 0 32.27 0z"/>
        <path id="Trazado_293" d="M10.58 31h-8.8L.7 33.35a6.661 6.661 0 0 1 .82-.35 8.1 8.1 0 0 1 1.58-.45 10.18 10.18 0 0 1 1.58-.14h2.17L0 42.15h9.68l1.12-2.55a8 8 0 0 1-.8.4 7.6 7.6 0 0 1-1.81.55 11.689 11.689 0 0 1-1.76.16H3.79z" class="cls-2"/>
        <path id="Trazado_294" d="M39.67 42.15a1.54 1.54 0 0 1-.35-.39 1.8 1.8 0 0 1-.17-.34 3 3 0 0 1-.16-1V33a3.78 3.78 0 0 1 .12-1.26 1.51 1.51 0 0 1 .16-.35 1.58 1.58 0 0 1 .43-.39h-3.59a1.88 1.88 0 0 1 .42.44 1.43 1.43 0 0 1 .17.36 4.07 4.07 0 0 1 .11 1.2v7.37a3.15 3.15 0 0 1-.18 1.08 1.7 1.7 0 0 1-.18.33 2.68 2.68 0 0 1-.34.39z" class="cls-2"/>
        <path id="Trazado_295" d="M50.91 31.06a5.65 5.65 0 0 0-.68-.18 9.18 9.18 0 0 0-2-.2 8.05 8.05 0 0 0-3.19.59 6.47 6.47 0 0 0-1.54.91 5.72 5.72 0 0 0-2.13 4.57 5.45 5.45 0 0 0 2 4.4 6.57 6.57 0 0 0 4.18 1.3 10.19 10.19 0 0 0 3.14-.5l.31-.05v-2l-.52.33a6.451 6.451 0 0 1-.69.34 4.86 4.86 0 0 1-2 .42 3.8 3.8 0 0 1-2.88-1.21 4.5 4.5 0 0 1-1.12-3.1 4.66 4.66 0 0 1 1-3 3.7 3.7 0 0 1 1-.83 4.39 4.39 0 0 1 2.21-.59 5.26 5.26 0 0 1 2 .4 3.61 3.61 0 0 1 .92.51v-2.11z" class="cls-2"/>
        <path id="Trazado_296" d="M60.72 37.08v2.72a8.049 8.049 0 0 1 0 1.14 2.05 2.05 0 0 1-.12.48 1.64 1.64 0 0 1-.4.58l-.16.14h3.58a2.19 2.19 0 0 1-.3-.35 1.83 1.83 0 0 1-.21-.37 2.44 2.44 0 0 1-.15-1V33a4.53 4.53 0 0 1 .04-1.15 1.59 1.59 0 0 1 .18-.41 1.52 1.52 0 0 1 .44-.47H60a1.56 1.56 0 0 1 .41.46 1.79 1.79 0 0 1 .19.39 3.8 3.8 0 0 1 .12 1.18v2.72h-5v-3.33a2.11 2.11 0 0 1 .09-.49 2.34 2.34 0 0 1 .47-.77l.12-.12h-3.57a2.78 2.78 0 0 1 .37.43 1.6 1.6 0 0 1 .19.38 3.17 3.17 0 0 1 .12 1.18v6.83a9.72 9.72 0 0 1 0 1.18 2 2 0 0 1-.11.44 1.6 1.6 0 0 1-.43.63l-.12.11h3.54a1.9 1.9 0 0 1-.3-.37 2 2 0 0 1-.18-.35 2.44 2.44 0 0 1-.16-1v-3.39z" class="cls-2"/>
        <path id="Trazado_297" d="M12.1 31a1.42 1.42 0 0 1 .41.45 1.48 1.48 0 0 1 .16.39 2.4 2.4 0 0 1 .07.51v6.55a3.64 3.64 0 0 0 .78 2.06 4.13 4.13 0 0 0 1.89 1.31 6.13 6.13 0 0 0 2 .32 6.81 6.81 0 0 0 2.27-.35 4.33 4.33 0 0 0 1.67-1.12 3.71 3.71 0 0 0 .9-2.17 17.39 17.39 0 0 0 .08-2v-4.01a4.37 4.37 0 0 1 .1-1.11 1.45 1.45 0 0 1 .5-.77l.13-.1h-3.22a1.62 1.62 0 0 1 .24.49 2.39 2.39 0 0 1 .09.42 15 15 0 0 1 .07 1.86v3.47a12.27 12.27 0 0 1-.09 1.9 2.26 2.26 0 0 1-.29.82 2.19 2.19 0 0 1-1.38 1 3.27 3.27 0 0 1-.79.09 3.08 3.08 0 0 1-1.52-.36 1.91 1.91 0 0 1-.66-.58 3.31 3.31 0 0 1-.41-2v-4.34a15 15 0 0 1 .07-1.86 2.13 2.13 0 0 1 .27-.81l.06-.1z" class="cls-2"/>
        <path id="Trazado_298" d="M27.87 39.85v.56a2.79 2.79 0 0 0 .15 1 1.6 1.6 0 0 0 .19.34 2.86 2.86 0 0 0 .31.36H25a2.43 2.43 0 0 0 .37-.39 1.4 1.4 0 0 0 .2-.35 3.09 3.09 0 0 0 .13-1.08V33a4.17 4.17 0 0 0-.11-1.19 1.61 1.61 0 0 0-.19-.41 1.87 1.87 0 0 0-.4-.4h3.93a9 9 0 0 1 1.91.2 3.68 3.68 0 0 1 1.82 1 2.6 2.6 0 0 1 .74 1.8 2.77 2.77 0 0 1-.14.86 2.68 2.68 0 0 1-.88 1.28A4.82 4.82 0 0 1 31 37l-.5.17 1.74 2c.21.25.48.55.82.91.52.57.87.93 1.27 1.3l.48.44.41.34h-2a2.29 2.29 0 0 1-1.11-.26A4.87 4.87 0 0 1 31 41l-.55-.6-.47-.54-2.07-2.49v2.52zm.18-3.46a4.21 4.21 0 0 0 .59-.05 3.61 3.61 0 0 0 1.36-.45 2.17 2.17 0 0 0 .52-.42 1.85 1.85 0 0 0 .48-1.26 1.72 1.72 0 0 0-.58-1.37 2.06 2.06 0 0 0-.76-.4 5.67 5.67 0 0 0-1.51-.19h-.29v4.14z" class="cls-2"/>
        <path id="Trazado_299" d="M66.58 28.53h.55l.5 1H68l-.52-1.08a.71.71 0 0 0 .4-.2.63.63 0 0 0 .14-.42.55.55 0 0 0-.24-.49 1.42 1.42 0 0 0-.69-.16h-.91v2.36h.36zm0-1.08h.55a.77.77 0 0 1 .4.1.35.35 0 0 1 .16.34.37.37 0 0 1-.15.32 1 1 0 0 1-.42.08h-.55z" class="cls-3"/>
        <path id="Trazado_300" d="M65.68 29.81a2 2 0 0 0 .67.46 1.84 1.84 0 0 0 .77.16h.11a1.92 1.92 0 0 0 .67-.15 2.12 2.12 0 0 0 .68-.46 1.73 1.73 0 0 0 .43-.66 1.83 1.83 0 0 0 .16-.78 1.94 1.94 0 0 0-.16-.79 1.74 1.74 0 0 0-.43-.66 1.91 1.91 0 0 0-.67-.45 2 2 0 0 0-.68-.16h-.11a2.08 2.08 0 0 0-.77.15 2 2 0 0 0-.66.44 2.41 2.41 0 0 0-.45.68 2.09 2.09 0 0 0-.15.78 1.94 1.94 0 0 0 .15.78 2.22 2.22 0 0 0 .44.66zm-.23-2.13a2.24 2.24 0 0 1 .4-.6 2 2 0 0 1 .59-.39 1.94 1.94 0 0 1 .68-.14h.11a2.22 2.22 0 0 1 .6.14 1.87 1.87 0 0 1 .59.4 1.69 1.69 0 0 1 .39.59 1.78 1.78 0 0 1 .14.7 1.72 1.72 0 0 1-.14.71 1.36 1.36 0 0 1-.39.57 1.73 1.73 0 0 1-.6.4 1.8 1.8 0 0 1-.59.13h-.11a1.74 1.74 0 0 1-.69-.13 1.88 1.88 0 0 1-.59-.4 1.41 1.41 0 0 1-.38-.59 1.69 1.69 0 0 1-.15-.69 1.8 1.8 0 0 1 .15-.7z" class="cls-3"/>
    </g>
</svg>
