<svg xmlns="http://www.w3.org/2000/svg" id="Capa_2" width="84.757" height="20.65" viewBox="0 0 84.757 20.65">
    <defs>
        <style>
            .cls-1{fill:#77777a}
        </style>
    </defs>
    <g id="Capa_1">
        <path id="Trazado_206" d="M26.25 19.16a7 7 0 0 1-1.83-.23v-1.7h.81v.88l.16.16a5.76 5.76 0 0 0 .86.07c.72 0 .93-.34.93-.82s-.2-.71-.93-.91c-1.25-.34-1.82-.79-1.82-2s1-1.8 2.29-1.8a6 6 0 0 1 1.65.23v1.62h-.81v-.76l-.15-.15a3.59 3.59 0 0 0-.69-.06c-.62 0-1 .29-1 .73s.1.67 1.06.93c1.15.32 1.79.79 1.79 1.85 0 1.35-1 2-2.34 2" class="cls-1" transform="translate(-.243)"/>
        <path id="Trazado_207" d="M30.62 16.37h1.21v-.22c0-.68-.14-1-.54-1s-.62.44-.67 1.22m2.31.62h-2.32c0 1 .41 1.33 1.25 1.33a2.77 2.77 0 0 0 1-.18v.71a2.61 2.61 0 0 1-1.43.31 2 2 0 0 1-2.14-2.31c0-1.69.91-2.5 2-2.5a1.74 1.74 0 0 1 1.81 1.88v.59z" class="cls-1" transform="translate(-.243)"/>
        <path id="Trazado_208" d="M35.64 15.07c-.41 0-.64.25-.64.76s.24.77.64.77.67-.26.67-.77-.24-.76-.67-.76M34.86 19a.8.8 0 0 0-.14.49c0 .35.22.57.87.57s1.14-.22 1.14-.67-.2-.39-.57-.39zm.78-1.69a2.74 2.74 0 0 1-.6-.06.41.41 0 0 0-.18.31c0 .17.11.25.36.25h1.33c.8 0 1.48.23 1.48 1.21s-1.12 1.63-2.47 1.63c-1.18 0-1.92-.24-1.92-1 0-.38.31-.6.61-.75a.88.88 0 0 1-.54-.84 1.28 1.28 0 0 1 .72-1.06 1.34 1.34 0 0 1-.64-1.19c0-1 .86-1.48 1.86-1.48a2.51 2.51 0 0 1 .71.09H38v.64h-.58l-.08.08a1.3 1.3 0 0 1 .17.67c0 1-.87 1.49-1.87 1.49" class="cls-1" transform="translate(-.243)"/>
        <path id="Trazado_209" d="M42.38 14.44c.35 0 .41.2.41.38v3.46l.16.16h.38v.63h-1.4c-.35 0-.4-.2-.4-.39v-.13a1.71 1.71 0 0 1-1.25.61 1.21 1.21 0 0 1-1.34-1.39v-2.54l-.16-.15h-.38v-.64h1.47c.35 0 .41.2.41.38v2.74c0 .25 0 .61.53.61a1.18 1.18 0 0 0 .69-.24v-2.7l-.16-.15h-.38v-.64z" class="cls-1" transform="translate(-.243)"/>
        <path id="Trazado_210" d="M45.83 18.44h.49v.64h-2.51v-.64h.39l.16-.16v-3l-.16-.15h-.39v-.64h1.4c.35 0 .4.2.4.38v.22a1.69 1.69 0 0 1 1.26-.7 2.48 2.48 0 0 1 .33 0v1.83h-.79v-.62l-.15-.13a1.87 1.87 0 0 0-.62.23v2.59z" class="cls-1" transform="translate(-.243)"/>
        <path id="Trazado_211" d="M49.83 15.18c-.59 0-.74.51-.74 1.57s.15 1.58.74 1.58.74-.51.74-1.58-.15-1.57-.74-1.57m0 4c-1.19 0-2.09-.74-2.09-2.41s.91-2.4 2.09-2.4 2.09.74 2.09 2.4-.91 2.41-2.09 2.41" class="cls-1" transform="translate(-.243)"/>
        <path id="Trazado_212" d="M54.1 19.16a5.2 5.2 0 0 1-1.5-.16v-1.33h.73v.59l.15.16a3.41 3.41 0 0 0 .61 0c.51 0 .67-.23.67-.56s-.09-.51-.82-.66c-1.09-.21-1.32-.79-1.32-1.4 0-.93.69-1.48 1.86-1.48a5.89 5.89 0 0 1 1.33.15v1.27h-.71v-.54l-.1-.1a4.11 4.11 0 0 0-.46 0c-.43 0-.7.19-.7.47s0 .5.68.62c1.14.24 1.56.66 1.56 1.35 0 1.13-.81 1.65-1.94 1.65" class="cls-1" transform="translate(-.243)"/>
        <path id="Trazado_213" d="M27 2v3.51h1.08c1.24 0 1.61-.57 1.61-1.77S29.33 2 28.09 2zm-2.37-.19l-.26-.26h-.64V.46h4.34c2.47 0 4.05 1 4.05 3.24S30.55 7 28.09 7H27v2.35l.25.26H28v1.06h-4.26V9.6h.64l.26-.26z" class="cls-1" transform="translate(-.243)"/>
        <path id="Trazado_214" d="M34.94 0c.58 0 .67.33.67.63v8.72l.25.26h.66v1.06h-4V9.6h.64l.26-.26v-8l-.26-.27h-.64V0z" class="cls-1" transform="translate(-.243)"/>
        <path id="Trazado_215" d="M43.64 2.94c.58 0 .67.34.67.65v5.76l.26.26h.64v1.05H42.9c-.59 0-.67-.33-.67-.63v-.24h-.07a2.82 2.82 0 0 1-2.07 1 2.035 2.035 0 0 1-2.25-2.33V4.27L37.58 4h-.64V2.94h2.45c.58 0 .67.34.67.65v4.54c0 .44 0 1 .89 1a2.1 2.1 0 0 0 1.15-.39V4.27L41.84 4h-.64V2.94z" class="cls-1" transform="translate(-.243)"/>
        <path id="Trazado_216" d="M48.45 10.82a8.22 8.22 0 0 1-2.45-.33V8.32h1.21v1l.25.27a8.37 8.37 0 0 0 1 .06c.85 0 1.12-.38 1.12-.93s-.16-.84-1.37-1.1C46.4 7.23 46 6.27 46 5.26c0-1.54 1.14-2.47 3.1-2.47a9.78 9.78 0 0 1 2.23.21v2.16h-1.21v-.89L49.87 4a5.63 5.63 0 0 0-.76 0c-.73 0-1.16.32-1.16.79s0 .82 1.14 1c1.91.39 2.6 1.09 2.6 2.26 0 1.87-1.34 2.76-3.23 2.76" class="cls-1" transform="translate(-.243)"/>
        <path id="Trazado_217" d="M58.45 1.79l-.26-.26h-.64V.46h3.73v1.07h-.65l-.24.26v5.53c0 2.39-1.45 3.5-3.7 3.5S53 9.71 53 7.32V1.79l-.26-.26h-.64V.46h4.17v1.07h-.65l-.25.26v5.53c0 1.3.45 2 1.54 2s1.54-.68 1.54-2z" class="cls-1" transform="translate(-.243)"/>
        <path id="Trazado_218" d="M64.31 0c.58 0 .67.33.67.63v8.72l.25.26h.65v1.06h-4V9.6h.64l.27-.26v-8l-.27-.27h-.64V0z" class="cls-1" transform="translate(-.243)"/>
        <path id="Trazado_219" d="M69.47 4v5.35l.26.26h1.42v1.06a14 14 0 0 1-2 .15c-1.26 0-1.92-.47-1.92-1.81V4h-.91V3H67l.26-.26.81-1.83h1.4V3h1.63v1z" class="cls-1" transform="translate(-.243)"/>
        <path id="Trazado_220" d="M75 9.6h.83v1.06H71.6V9.6h.64l.27-.26V4.27L72.23 4h-.63V2.94h2.32c.58 0 .66.33.66.65V4h.08a2.81 2.81 0 0 1 2.1-1.17 4.3 4.3 0 0 1 .55 0v3.06H76v-1l-.24-.23a3.36 3.36 0 0 0-1 .37v4.32z" class="cls-1" transform="translate(-.243)"/>
        <path id="Trazado_221" d="M81.93 8.78V7.51h-1c-.66 0-1 .3-1 .78a.79.79 0 0 0 .89.89 2.17 2.17 0 0 0 1.13-.39M85 10.67h-2.28c-.58 0-.67-.33-.67-.63v-.25H82a2.8 2.8 0 0 1-2.07 1A2 2 0 0 1 77.7 8.5c0-1.37 1-2.18 2.57-2.18h1.66v-.7c0-.85-.06-1.46-1.3-1.46a6.42 6.42 0 0 0-.67 0l-.22.22v1h-1.35V3.22a11.13 11.13 0 0 1 3-.42c2.09 0 2.72 1.12 2.72 2.47v4.08l.27.26H85z" class="cls-1" transform="translate(-.243)"/>
        <path id="Trazado_222" fill="#cf0a2c" d="M8.4 10.91c2.23 2.16 3.1 5.8 3.48 7.23a1.57 1.57 0 1 0 3-.81c-.38-1.43-1.45-5-.6-8s3.48-5.58 4.52-6.64A1.57 1.57 0 0 0 16.61.46C15.57 1.52 13 4.23 10 5s-6.57-.22-8-.61a1.57 1.57 0 0 0-.81 3c1.44.38 5.07 1.25 7.24 3.48" transform="translate(-.243)"/>
    </g>
</svg>
