<svg xmlns="http://www.w3.org/2000/svg" id="Capa_2" width="85.04" height="19.93" viewBox="0 0 85.04 19.93">
    <defs>
        <style>
            .cls-1{fill:#1d1d1b}
        </style>
    </defs>
    <g id="Capa_1">
        <path id="Trazado_181" d="M3 4.75v5a3.14 3.14 0 0 1 2.75-1.33c2.15 0 3.19 1.43 3.19 3.58v5.19h-3v-4.35c0-1-.15-2-1.36-2s-1.57 1-1.57 2v4.35H0V4.75z" class="cls-1"/>
        <path id="Trazado_182" d="M19.15 13.45h-6.34a1.69 1.69 0 0 0 1.89 1.88 1.5 1.5 0 0 0 1.44-.78H19c-.48 2-2.38 2.91-4.32 2.91-2.78.01-4.88-1.58-4.88-4.46a4.33 4.33 0 0 1 4.7-4.53c2.94 0 4.65 1.82 4.65 4.71zm-2.79-1.74a1.69 1.69 0 0 0-1.7-1.34 1.7 1.7 0 0 0-1.79 1.34z" class="cls-1"/>
        <path id="Rectángulo_125" d="M0 0H3.01V12.44H0z" class="cls-1" transform="translate(20.02 4.75)"/>
        <path id="Trazado_183" d="M28.74 13.05l2.02-4.34h3.37l-4.43 8.48h-1.92l-4.45-8.48h3.37z" class="cls-1"/>
        <path id="Trazado_184" d="M42.73 13.45H36.4a1.69 1.69 0 0 0 1.89 1.88 1.5 1.5 0 0 0 1.44-.78h2.89c-.48 2-2.38 2.91-4.31 2.91-2.81 0-4.91-1.59-4.91-4.51a4.33 4.33 0 0 1 4.7-4.53c2.94 0 4.65 1.82 4.65 4.71zm-2.79-1.74a1.8 1.8 0 0 0-3.49 0z" class="cls-1"/>
        <path id="Trazado_185" d="M47.17 17.19h-3.01v-6h-.98V8.71h.98V6.16h3.01v2.55h1.7v2.48h-1.7z" class="cls-1"/>
        <path id="Trazado_186" d="M52.68 6A1.69 1.69 0 1 1 51 4.34 1.69 1.69 0 0 1 52.68 6m-.18 11.19h-3V8.71h3z" class="cls-1"/>
        <path id="Trazado_187" d="M63.26 17.19h-3v-.94a3 3 0 0 1-2.56 1.22 4.36 4.36 0 0 1-4.28-4.53 4.32 4.32 0 0 1 4.25-4.51 3.46 3.46 0 0 1 2.63 1.11v-.83h3zM56.49 13a1.935 1.935 0 1 0 1.935-1.935A1.935 1.935 0 0 0 56.49 13" class="cls-1"/>
        <path id="Trazado_188" fill="#573a66" d="M73.98 13.62l-3.86.99 3-6.93L77 6.76z"/>
        <path id="Trazado_189" fill="#724e86" d="M72.93.85L76.82 0l1.57 3.59-3.88.9z"/>
        <path id="Trazado_190" fill="#8a5ea4" d="M67.26 14.12L72.93.85l1.58 3.64-4.39 10.12z"/>
        <path id="Trazado_191" fill="#006d73" d="M70.12 14.61l3.86-.99 6.47 1.08-3.85 1.02z"/>
        <path id="Trazado_192" fill="#00a4af" d="M78.19 19.39l-12.24-2.2 1.31-3.07 9.34 1.6z"/>
        <path id="Trazado_193" fill="#b70e0c" d="M74.51 4.49l3.88-.9 6.65 15.26-3.83 1.08z"/>
        <path id="Trazado_194" fill="#e30613" d="M73.12 7.68l1.39-3.19 6.7 15.44-3.02-.54z"/>
    </g>
</svg>
