<svg xmlns="http://www.w3.org/2000/svg" id="Capa_2" width="85.07" height="23.31" viewBox="0 0 85.07 23.31">
    <defs>
        <style>
            .cls-1{fill:#e63426}.cls-2{fill:#17213c}
        </style>
    </defs>
    <g id="Capa_1">
        <path id="Trazado_160" d="M66.74.28h1.64l4.05 15.16H68.3L65.61 5.42z" class="cls-1"/>
        <path id="Trazado_161" d="M65.27 6.99l2.17 8.45H63.4z" class="cls-1"/>
        <path id="Trazado_162" d="M71.73.28h1.63l4.05 15.16h-4.13L70.6 5.42z" class="cls-1"/>
        <path id="Trazado_163" d="M85.07.28l-.89 4h-3.93l-1.09-4z" class="cls-2"/>
        <path id="Trazado_164" d="M83.99 5.07l-.86 4.04h-1.6l-1.09-4.04z" class="cls-2"/>
        <path id="Trazado_165" d="M78.3.28l4.09 15.16h-4.13L74.14.28z" class="cls-2"/>
        <path id="Trazado_166" d="M48.8.28H33.94l-.63 2.78h5.49l-2.76 12.46h3.81l2.77-12.46h5.56z" class="cls-2"/>
        <path id="Trazado_167" d="M62.15 1.38l-.74-.44-.7-.31-.66-.23-.62-.16-.63-.12-.58-.04L57.13 0h-.58l-.58.04-.55.04-.54.08-.55.12-.55.12-.5.11-.51.16-.5.2-.47.19-.93.47-.86.55-.78.59-.7.67-.62.71-.59.74-.46.83-.43.82-.16.43-.11.44-.12.47-.12.43-.07.47-.04.43v.75l.04.67.11.67.2.58.27.59.35.55.39.47.46.48.51.39.59.35.66.32.7.23.78.2.81.12.86.08.93.04.94-.04.85-.08.78-.12.74-.2.7-.19.7-.24.7-.27.74-.32.78-3.57-.89.43-.86.39-.82.32-.81.27-.78.2-.74.16-.7.07-.7.04-.32-.04-.31-.04-.35-.03-.35-.12-.35-.12-.35-.12-.35-.2-.35-.19-.31-.24-.27-.23-.27-.32-.24-.31-.15-.36-.16-.39-.04-.39-.04-.47.04-.47.08-.51.12-.51.15-.48.24-.51.23-.43.35-.47.35-.39.43-.4.5-.35.59-.31.62-.28.74-.19.78-.16.86-.12.97-.04h.5l.51.08.54.08.55.16.54.19.59.28.62.35.62.43z" class="cls-2"/>
        <path id="Trazado_168" d="M20.08.28h-3.77l-3.39 15.24h3.81z" class="cls-2"/>
        <path id="Trazado_169" d="M8.95.28L8.33 3.1h5.76l.66-2.82z" class="cls-2"/>
        <path id="Trazado_170" d="M7.71 6.21l-.67 2.83h4.99l.62-2.83z" class="cls-2"/>
        <path id="Trazado_171" d="M8.13.28H4.16L.82 15.56h3.93z" class="cls-2"/>
        <path id="Trazado_172" d="M17.63 15.56L25.96.24l1.24 4.67-2.56 4.83h3.89l.7 2.75h-6.07l-1.64 3.07z" class="cls-2"/>
        <path id="Trazado_173" d="M26.81.24l4.13 15.28h3.97L30.59.24z" class="cls-2"/>
        <path id="Trazado_174" d="M3.27 18.58l-.16.63-.19-.12-.23-.08-.2-.04h-.43l-.19.04-.16.08-.11.08-.12.12-.12.11-.04.12-.04.16.04.2.04.15.24.24.39.35.42.43.16.16.12.2.07.31.04.32-.04.23-.11.24-.16.23-.19.2-.24.16-.23.11-.31.08H.9l-.32-.08-.27-.11-.31-.12.15-.71.36.2.27.12.27.11h.27l.28-.04.23-.11.12-.08.07-.12.08-.12v-.31l-.08-.2-.19-.27-.43-.36-.43-.43-.15-.16-.08-.19-.12-.32v-.31l.04-.28.12-.23.15-.24.24-.19.27-.16.27-.12.31-.08h.55l.23.04z" class="cls-2"/>
        <path id="Trazado_175" d="M15.99 18.42l-.11.59h-2.02l-.36 1.49h1.79l-.15.59h-1.79L13 22.66h2.06l-.12.59h-2.76l1.17-4.83z" class="cls-2"/>
        <path id="Trazado_176" d="M29.03 21.17l-.42 1.73-.43.16-.39.15-.43.08h-.39l-.47-.04-.39-.07-.35-.2-.31-.28-.19-.31-.16-.35-.08-.4v-.43l.04-.31.08-.28.08-.23.12-.28.15-.23.16-.24.23-.2.23-.23.24-.2.27-.16.31-.15.31-.12.35-.08.35-.08.39-.04h.39l.86.04-.12.59-.89-.08-.59.04-.27.08-.27.08-.24.08-.23.12-.19.11-.2.16-.35.35-.23.4-.2.39-.07.43v.32l.07.31.08.27.16.24.23.16.23.16.28.07.27.04.27-.04.23-.04.24-.07.27-.08.19-.83h-.73l.11-.51z" class="cls-2"/>
        <path id="Trazado_177" d="M43.08 18.42l-.66 2.99-.15.43-.16.39-.23.32-.28.27-.31.2-.35.16-.39.11h-.78l-.31-.08-.31-.11-.23-.2-.2-.24-.11-.23-.04-.28v-.35l.04-.28.7-3.1h.66l-.74 3.15V22l.04.15.08.2.11.12.16.12.19.07.2.04.23.04.2-.04.19-.04.2-.03.15-.08.16-.12.15-.12.12-.12.08-.12.11-.35.16-.51.62-2.79z" class="cls-2"/>
        <path id="Trazado_178" d="M53.51 19l-.35 1.53h.86l.19-.08.2-.12.12-.12.12-.12.08-.2v-.48l-.08-.12-.08-.12-.12-.08h-.93zm-.58-.59h1.41l.35.08.27.12.23.16.12.2.12.24v.72l-.08.2-.08.16-.16.16-.16.16-.19.12-.2.12h-.23l.08.12.12.12.16.31.74 1.81h-.7l-.47-1.14-.26-.43-.16-.31-.12-.08-.12-.08H53l-.51 2.12h-.66z" class="cls-2"/>
        <path id="Trazado_179" d="M66.47 22.74h.35l.31-.16.31-.24.31-.31.23-.35.23-.43.12-.43.08-.51v-.59l-.08-.24-.12-.2-.12-.16-.19-.08-.2-.08h-.82l-.16.08-.31.24-.31.31-.23.39-.2.39-.12.43-.08.47v.55l.08.24.12.2.16.16.15.12.23.08zm1-4.36h.39l.31.08.27.2.27.24.2.28.12.35v.82L69 21l-.08.31-.12.24-.12.28-.16.24-.15.24-.19.2-.2.2-.19.2-.23.12-.2.12-.23.08-.23.08H66l-.35-.12-.27-.2-.23-.24-.2-.31-.15-.35v-.78l.08-.55.19-.51.23-.51.35-.43.2-.24.19-.16.23-.16.2-.16.23-.08.27-.08h.23z" class="cls-2"/>
        <path id="Trazado_180" d="M81.65 18.58l-.16.63-.19-.12-.23-.08-.2-.04h-.43l-.19.04-.16.08-.11.08-.12.12-.08.11-.08.12-.03.16.03.2.08.15.2.24.38.35.43.43.16.16.12.2.07.31.04.32-.04.23-.11.24-.16.23-.19.2-.24.16-.23.11-.31.08h-.62l-.31-.08-.28-.11-.31-.12.19-.71.32.2.27.12.27.11h.27l.28-.04.23-.11.12-.08.07-.12.08-.12v-.31l-.08-.2-.19-.27-.43-.36-.43-.43-.15-.16-.08-.19-.12-.32v-.31l.04-.28.12-.23.19-.24.2-.19.27-.16.31-.12.27-.08h.55l.23.04z" class="cls-2"/>
    </g>
</svg>
