<svg xmlns="http://www.w3.org/2000/svg" width="25" viewBox="0 0 27.1 27.1">
    <g>
        <g>
            <path fill="none" d="M0 0H27.1V27.1H0z" transform="translate(0 -.429) translate(0 .429)"/>
        </g>
        <path fill="#0b4269" d="M12.882 5.292A11.933 11.933 0 0 0 .958 17.216a11.814 11.814 0 0 0 3.5 8.426l-3.5 3.5h11.924a11.924 11.924 0 1 0 0-23.848zm6.868 18.77A12.974 12.974 0 0 1 6.037 10.348h4.2l.468 4-1.929 1.937A11.482 11.482 0 0 0 13.8 21.32l1.928-1.92 4.022.465z" transform="translate(0 -.429) translate(.792 -3.361)"/>
    </g>
</svg>
