<svg xmlns="http://www.w3.org/2000/svg" width="64.481" height="37.884" viewBox="0 0 64.481 37.884">
    <path fill="#f9fdbf" d="M60.45 125.68h-6.741L46.53 113.5a3.019 3.019 0 0 0-2.57-1.5H18.254a3.019 3.019 0 0 0-2.574 1.5l-1.549 2.631a1.08 1.08 0 0 0 .33 1.447l-1.008 1.71a.984.984 0 0 0-1.323.381 1.082 1.082 0 0 0 .267 1.405l-1.12 1.9a.983.983 0 0 0-1.385.345L8.5 125.68H1a1.031 1.031 0 0 0-1 1.052v14.732a1.031 1.031 0 0 0 1.008 1.052h9.133a8.162 8.162 0 0 0 8.5 7.331 8.272 8.272 0 0 0 7.555-8.383h2.014a1.031 1.031 0 0 0 1.008 1.052h9.133a8.024 8.024 0 0 0 15.994 0h6.105a4.123 4.123 0 0 0 4.03-4.209v-8.418a4.123 4.123 0 0 0-4.03-4.209zm-31.233 0v-7.366h8.816v7.366zm-9.293 0a1 1 0 0 1-.859-.495 1.093 1.093 0 0 1-.049-1.023L21.5 118.9a1 1 0 0 1 .914-.587H27.2v7.366zm16.346 6.314a1.031 1.031 0 0 1-1.008 1.052h-2.014a1.053 1.053 0 0 1 0-2.1h2.015a1.031 1.031 0 0 1 1.007 1.047zm26.2 3.157h-2.02a1.053 1.053 0 0 1 0-2.1h2.015zm-22.422-9.471v-7.366H47l4.34 7.366zm-21.913 22.1a6.32 6.32 0 0 1 0-12.627 6.32 6.32 0 0 1 0 12.627zm28.21 0a6.32 6.32 0 1 1 6.045-6.314 6.184 6.184 0 0 1-6.045 6.312zm-26.2-6.314a2.017 2.017 0 1 1-2.015-2.1 2.061 2.061 0 0 1 2.02 2.098zm28.21 0a2.017 2.017 0 1 1-2.015-2.1 2.061 2.061 0 0 1 2.02 2.098z" transform="translate(0 -112)"/>
</svg>
